Cinzel-Black.ufo
<glyph name="exclam" format="2">
  <advance width="295"/>
  <unicode hex="0021"/>
  <outline>
    <contour>
      <point x="145" y="-14" type="curve" smooth="yes"/>
      <point x="195" y="-14"/>
      <point x="235" y="26"/>
      <point x="235" y="76" type="curve" smooth="yes"/>
      <point x="235" y="126"/>
      <point x="195" y="166"/>
      <point x="145" y="166" type="curve" smooth="yes"/>
      <point x="96" y="166"/>
      <point x="55" y="126"/>
      <point x="55" y="76" type="curve" smooth="yes"/>
      <point x="55" y="26"/>
      <point x="96" y="-14"/>
    </contour>
    <contour>
      <point x="182" y="230" type="line"/>
      <point x="227" y="363" type="line"/>
      <point x="250" y="702" type="line"/>
      <point x="45" y="702" type="line"/>
      <point x="67" y="363" type="line"/>
      <point x="112" y="230" type="line"/>
    </contour>
  </outline>
</glyph>
<glyph name="numbersign" format="2">
  <advance width="600"/>
  <unicode hex="0023"/>
  <outline>
    <contour>
      <point x="212" y="700" type="line"/>
      <point x="89" y="0" type="line"/>
      <point x="151" y="0" type="line"/>
      <point x="274" y="700" type="line"/>
    </contour>
    <contour>
      <point x="412" y="700" type="line"/>
      <point x="289" y="0" type="line"/>
      <point x="351" y="0" type="line"/>
      <point x="474" y="700" type="line"/>
    </contour>
    <contour>
      <point x="546" y="497" type="line"/>
      <point x="64" y="497" type="line"/>
      <point x="64" y="437" type="line"/>
      <point x="546" y="437" type="line"/>
    </contour>
    <contour>
      <point x="502" y="277" type="line"/>
      <point x="20" y="277" type="line"/>
      <point x="20" y="217" type="line"/>
      <point x="502" y="217" type="line"/>
    </contour>
  </outline>
</glyph>
<glyph name="dollar" format="2">
  <advance width="615"/>
  <unicode hex="0024"/>
  <outline>
    <contour>
      <point x="284" y="714" type="curve" smooth="yes"/>
      <point x="150" y="714"/>
      <point x="65" y="651"/>
      <point x="51" y="535" type="curve" smooth="yes"/>
      <point x="39" y="440"/>
      <point x="82" y="362"/>
      <point x="174" y="320" type="curve" smooth="yes"/>
      <point x="337" y="244" type="line" smooth="yes"/>
      <point x="413" y="209"/>
      <point x="443" y="176"/>
      <point x="443" y="134" type="curve" smooth="yes"/>
      <point x="443" y="83"/>
      <point x="398" y="36"/>
      <point x="302" y="36" type="curve" smooth="yes"/>
      <point x="162" y="36"/>
      <point x="78" y="135"/>
      <point x="85" y="240" type="curve"/>
      <point x="76" y="240" type="line"/>
      <point x="43" y="197"/>
      <point x="22" y="100"/>
      <point x="44" y="51" type="curve"/>
      <point x="79" y="15"/>
      <point x="165" y="-14"/>
      <point x="281" y="-14" type="curve" smooth="yes"/>
      <point x="470" y="-14"/>
      <point x="585" y="63"/>
      <point x="595" y="206" type="curve" smooth="yes"/>
      <point x="602" y="303"/>
      <point x="554" y="366"/>
      <point x="480" y="400" type="curve" smooth="yes"/>
      <point x="293" y="487" type="line" smooth="yes"/>
      <point x="243" y="509"/>
      <point x="200" y="532"/>
      <point x="204" y="580" type="curve" smooth="yes"/>
      <point x="208" y="629"/>
      <point x="258" y="664"/>
      <point x="340" y="664" type="curve" smooth="yes"/>
      <point x="439" y="664"/>
      <point x="499" y="614"/>
      <point x="499" y="541" type="curve"/>
      <point x="509" y="541" type="line"/>
      <point x="529" y="692" type="line"/>
      <point x="506" y="702"/>
      <point x="343" y="714"/>
    </contour>
    <contour>
      <point x="531" y="704" type="line"/>
      <point x="383" y="704" type="line" smooth="yes"/>
      <point x="383" y="683" type="line"/>
      <point x="528" y="683" type="line"/>
    </contour>
    <contour>
      <point x="334" y="788" type="line"/>
      <point x="266" y="-99" type="line"/>
      <point x="314" y="-102" type="line"/>
      <point x="382" y="787" type="line"/>
    </contour>
  </outline>
</glyph>
<glyph name="ampersand" format="2">
  <advance width="910.72"/>
  <unicode hex="0026"/>
  <outline>
    <contour>
      <point x="410" y="714" type="curve" smooth="yes"/>
      <point x="284" y="714"/>
      <point x="141" y="670"/>
      <point x="141" y="531.036" type="curve" smooth="yes"/>
      <point x="141" y="410"/>
      <point x="250" y="301"/>
      <point x="367" y="205" type="curve" smooth="yes"/>
      <point x="397" y="181"/>
      <point x="519" y="78"/>
      <point x="568" y="46" type="curve" smooth="yes"/>
      <point x="679" y="-27"/>
      <point x="815" y="-12"/>
      <point x="920.72" y="0" type="curve"/>
      <point x="920.002" y="11" type="line"/>
      <point x="860" y="40"/>
      <point x="781" y="110"/>
      <point x="645" y="230" type="curve" smooth="yes"/>
      <point x="640" y="234"/>
      <point x="569" y="295"/>
      <point x="527" y="331" type="curve" smooth="yes"/>
      <point x="413" y="429"/>
      <point x="351" y="489"/>
      <point x="351" y="562.604" type="curve" smooth="yes"/>
      <point x="351" y="622"/>
      <point x="392" y="664"/>
      <point x="453" y="664" type="curve" smooth="yes"/>
      <point x="547" y="664"/>
      <point x="568" y="566"/>
      <point x="568.996" y="479.951" type="curve"/>
      <point x="578.129" y="479.951" type="line"/>
      <point x="625.383" y="643.151" type="line"/>
      <point x="592" y="694"/>
      <point x="495" y="714"/>
    </contour>
    <contour>
      <point x="785" y="357" type="curve" smooth="yes"/>
      <point x="788" y="392"/>
      <point x="788" y="415"/>
      <point x="819.423" y="414.592" type="curve" smooth="yes"/>
      <point x="833.187" y="414.571" type="line"/>
      <point x="833.187" y="424.571" type="line"/>
      <point x="577.356" y="424.571" type="line"/>
      <point x="577.356" y="414.571" type="line"/>
      <point x="591.757" y="414.592" type="line" smooth="yes"/>
      <point x="614" y="415"/>
      <point x="635" y="403"/>
      <point x="651" y="369" type="curve" smooth="yes"/>
      <point x="702" y="260"/>
      <point x="642" y="40"/>
      <point x="463" y="40" type="curve" smooth="yes"/>
      <point x="371" y="40"/>
      <point x="249" y="99"/>
      <point x="238" y="244" type="curve" smooth="yes"/>
      <point x="230" y="351"/>
      <point x="294" y="380"/>
      <point x="293.985" y="385.58" type="curve"/>
      <point x="271.515" y="404.389" type="line"/>
      <point x="208" y="416"/>
      <point x="25" y="373"/>
      <point x="25" y="211" type="curve" smooth="yes"/>
      <point x="25" y="21"/>
      <point x="275" y="-10"/>
      <point x="401" y="-10" type="curve" smooth="yes"/>
      <point x="713" y="-10"/>
      <point x="770" y="181"/>
    </contour>
  </outline>
</glyph>
<glyph name="quotesingle" format="2">
  <advance width="220"/>
  <unicode hex="0027"/>
  <outline>
    <contour>
      <point x="59" y="700" type="line"/>
      <point x="69" y="627"/>
      <point x="65" y="593"/>
      <point x="30" y="505" type="curve"/>
      <point x="47" y="500" type="line"/>
      <point x="164" y="535"/>
      <point x="194" y="662"/>
      <point x="191" y="714" type="curve"/>
    </contour>
  </outline>
</glyph>
<glyph name="parenleft" format="2">
  <advance width="478"/>
  <unicode hex="0028"/>
  <outline>
    <contour>
      <point x="449" y="724" type="curve"/>
      <point x="443" y="732" type="line"/>
      <point x="196" y="705"/>
      <point x="90" y="543"/>
      <point x="90" y="334" type="curve" smooth="yes"/>
      <point x="90" y="141"/>
      <point x="195" y="-41"/>
      <point x="441" y="-100" type="curve"/>
      <point x="447" y="-91" type="line"/>
      <point x="349" y="-22"/>
      <point x="294" y="107"/>
      <point x="290" y="336" type="curve" smooth="yes"/>
      <point x="287" y="543"/>
      <point x="342" y="673"/>
    </contour>
  </outline>
</glyph>
<glyph name="parenright" format="2">
  <advance width="478"/>
  <unicode hex="0029"/>
  <outline>
    <contour>
      <point x="30" y="724" type="line"/>
      <point x="136" y="673"/>
      <point x="192" y="543"/>
      <point x="189" y="336" type="curve" smooth="yes"/>
      <point x="185" y="107"/>
      <point x="130.008" y="-22"/>
      <point x="32" y="-91" type="curve"/>
      <point x="38" y="-100" type="line"/>
      <point x="283" y="-41"/>
      <point x="389" y="141"/>
      <point x="389" y="334" type="curve" smooth="yes"/>
      <point x="389" y="543"/>
      <point x="283" y="705"/>
      <point x="36" y="732" type="curve"/>
    </contour>
  </outline>
</glyph>
<glyph name="plus" format="2">
  <advance width="481"/>
  <unicode hex="002B"/>
  <outline>
    <contour>
      <point x="40" y="342" type="line"/>
      <point x="40" y="277" type="line"/>
      <point x="442" y="277" type="line"/>
      <point x="442" y="342" type="line"/>
    </contour>
    <contour>
      <point x="208" y="109" type="line"/>
      <point x="273" y="109" type="line"/>
      <point x="273" y="511" type="line"/>
      <point x="208" y="511" type="line"/>
    </contour>
  </outline>
</glyph>
<glyph name="comma" format="2">
  <advance width="260"/>
  <unicode hex="002C"/>
  <outline>
    <contour>
      <point x="68" y="149" type="curve" smooth="yes"/>
      <point x="29" y="121"/>
      <point x="23" y="52"/>
      <point x="59" y="11" type="curve" smooth="yes"/>
      <point x="112" y="-49"/>
      <point x="77" y="-100"/>
      <point x="41" y="-116" type="curve"/>
      <point x="45" y="-129" type="line"/>
      <point x="165" y="-152"/>
      <point x="264" y="-10"/>
      <point x="210" y="108" type="curve" smooth="yes"/>
      <point x="185" y="163"/>
      <point x="113" y="182"/>
    </contour>
  </outline>
</glyph>
<glyph name="hyphen" format="2">
  <advance width="380"/>
  <unicode hex="002D"/>
  <outline>
    <contour>
      <point x="40" y="332" type="line"/>
      <point x="30" y="292" type="line"/>
      <point x="40" y="251" type="line"/>
      <point x="340" y="251" type="line"/>
      <point x="350" y="292" type="line"/>
      <point x="340" y="332" type="line"/>
    </contour>
  </outline>
</glyph>
<glyph name="period" format="2">
  <advance width="250"/>
  <unicode hex="002E"/>
  <outline>
    <contour>
      <point x="125" y="-14" type="curve" smooth="yes"/>
      <point x="175" y="-14"/>
      <point x="215" y="26"/>
      <point x="215" y="76" type="curve" smooth="yes"/>
      <point x="215" y="126"/>
      <point x="175" y="166"/>
      <point x="125" y="166" type="curve" smooth="yes"/>
      <point x="75" y="166"/>
      <point x="35" y="126"/>
      <point x="35" y="76" type="curve" smooth="yes"/>
      <point x="35" y="26"/>
      <point x="75" y="-14"/>
    </contour>
  </outline>
</glyph>
<glyph name="slash" format="2">
  <advance width="439"/>
  <unicode hex="002F"/>
  <outline>
    <contour>
      <point x="370.514" y="723" type="line"/>
      <point x="10" y="14.083" type="line"/>
      <point x="68.656" y="-14" type="line"/>
      <point x="429.594" y="696.502" type="line"/>
    </contour>
  </outline>
</glyph>
<glyph name="zero" format="2">
  <advance width="690"/>
  <unicode hex="0030"/>
  <outline>
    <contour>
      <point x="345" y="714" type="curve" smooth="yes"/>
      <point x="150" y="714"/>
      <point x="35" y="569"/>
      <point x="35" y="350" type="curve" smooth="yes"/>
      <point x="35" y="131"/>
      <point x="150" y="-14"/>
      <point x="345" y="-14" type="curve" smooth="yes"/>
      <point x="540.002" y="-14"/>
      <point x="655" y="131"/>
      <point x="655" y="350" type="curve" smooth="yes"/>
      <point x="655" y="569"/>
      <point x="540.002" y="714"/>
    </contour>
    <contour>
      <point x="345" y="664" type="curve" smooth="yes"/>
      <point x="414" y="664"/>
      <point x="445" y="565"/>
      <point x="445" y="350" type="curve" smooth="yes"/>
      <point x="445" y="135"/>
      <point x="414" y="36"/>
      <point x="345" y="36" type="curve"/>
      <point x="276" y="36"/>
      <point x="245" y="135"/>
      <point x="245" y="350" type="curve" smooth="yes"/>
      <point x="245" y="565"/>
      <point x="276" y="664"/>
    </contour>
  </outline>
</glyph>
<glyph name="one" format="2">
  <advance width="424"/>
  <unicode hex="0031"/>
  <outline>
    <contour>
      <point x="394" y="0" type="line"/>
      <point x="37" y="0" type="line"/>
      <point x="38" y="10" type="line"/>
      <point x="59" y="10" type="line" smooth="yes"/>
      <point x="89" y="10"/>
      <point x="114" y="34"/>
      <point x="114" y="64" type="curve" smooth="yes"/>
      <point x="114" y="571" type="line"/>
      <point x="114" y="623"/>
      <point x="88" y="640"/>
      <point x="48" y="640" type="curve"/>
      <point x="30" y="640" type="line"/>
      <point x="30" y="650" type="line"/>
      <point x="85" y="653"/>
      <point x="237" y="672"/>
      <point x="308" y="714" type="curve"/>
      <point x="318" y="714" type="line"/>
      <point x="318" y="63" type="line" smooth="yes"/>
      <point x="318" y="34"/>
      <point x="343" y="10"/>
      <point x="373" y="10" type="curve" smooth="yes"/>
      <point x="394" y="10" type="line"/>
    </contour>
  </outline>
</glyph>
<glyph name="two" format="2">
  <advance width="658"/>
  <unicode hex="0032"/>
  <outline>
    <contour>
      <point x="97" y="456" type="line"/>
      <point x="107" y="456" type="line"/>
      <point x="107" y="586"/>
      <point x="151" y="657"/>
      <point x="235" y="664" type="curve" smooth="yes"/>
      <point x="314" y="670"/>
      <point x="363" y="616"/>
      <point x="363" y="530" type="curve" smooth="yes"/>
      <point x="363" y="364"/>
      <point x="178" y="187"/>
      <point x="36" y="10" type="curve"/>
      <point x="36" y="0" type="line"/>
      <point x="556" y="0" type="line"/>
      <point x="624" y="281" type="line"/>
      <point x="614" y="281" type="line"/>
      <point x="579" y="209"/>
      <point x="536" y="176"/>
      <point x="477" y="176" type="curve"/>
      <point x="287" y="176" type="line"/>
      <point x="386" y="240"/>
      <point x="578" y="348"/>
      <point x="578" y="509" type="curve" smooth="yes"/>
      <point x="578" y="638"/>
      <point x="454" y="714"/>
      <point x="292" y="714" type="curve" smooth="yes"/>
      <point x="195" y="714"/>
      <point x="89" y="687"/>
      <point x="30" y="636" type="curve"/>
    </contour>
  </outline>
</glyph>
<glyph name="three" format="2">
  <advance width="602"/>
  <unicode hex="0033"/>
  <outline>
    <contour>
      <point x="279" y="712" type="curve" smooth="yes"/>
      <point x="171" y="712"/>
      <point x="81" y="683"/>
      <point x="30" y="641" type="curve"/>
      <point x="87" y="468" type="line"/>
      <point x="97" y="468" type="line"/>
      <point x="94" y="593"/>
      <point x="125" y="655"/>
      <point x="205" y="662" type="curve" smooth="yes"/>
      <point x="265" y="668"/>
      <point x="320" y="639"/>
      <point x="327" y="565" type="curve" smooth="yes"/>
      <point x="336" y="468"/>
      <point x="256" y="391"/>
      <point x="164" y="394" type="curve"/>
      <point x="162" y="384" type="line"/>
      <point x="248" y="383"/>
      <point x="347" y="338"/>
      <point x="347" y="216" type="curve" smooth="yes"/>
      <point x="347" y="70"/>
      <point x="205" y="-26"/>
      <point x="41" y="-22" type="curve"/>
      <point x="39" y="-32" type="line"/>
      <point x="260" y="-131"/>
      <point x="562" y="-35"/>
      <point x="562" y="200" type="curve" smooth="yes"/>
      <point x="562" y="355"/>
      <point x="433" y="398"/>
      <point x="354" y="399" type="curve"/>
      <point x="432" y="378"/>
      <point x="533" y="428"/>
      <point x="533" y="540" type="curve" smooth="yes"/>
      <point x="533" y="649"/>
      <point x="438" y="712"/>
    </contour>
  </outline>
</glyph>
<glyph name="four" format="2">
  <advance width="643"/>
  <unicode hex="0034"/>
  <outline>
    <contour>
      <point x="306" y="498" type="line"/>
      <point x="306" y="1" type="line"/>
      <point x="511" y="1" type="line"/>
      <point x="511" y="714" type="line"/>
      <point x="501" y="714" type="line"/>
    </contour>
    <contour>
      <point x="501" y="714" type="line"/>
      <point x="-15" y="199" type="line"/>
      <point x="-15" y="189" type="line"/>
      <point x="598" y="189" type="line"/>
      <point x="629" y="334" type="line"/>
      <point x="619" y="334" type="line"/>
      <point x="607" y="308"/>
      <point x="591" y="294"/>
      <point x="554" y="294" type="curve"/>
      <point x="154" y="294" type="line"/>
      <point x="510" y="640" type="line"/>
    </contour>
    <contour>
      <point x="511" y="64" type="curve"/>
      <point x="306" y="64" type="line"/>
      <point x="306" y="33"/>
      <point x="281" y="10"/>
      <point x="250" y="10" type="curve" smooth="yes"/>
      <point x="240" y="10" type="line"/>
      <point x="239" y="0" type="line"/>
      <point x="577" y="0" type="line"/>
      <point x="577" y="10" type="line"/>
      <point x="566" y="10" type="line" smooth="yes"/>
      <point x="536" y="10"/>
      <point x="511" y="34"/>
    </contour>
  </outline>
</glyph>
<glyph name="five" format="2">
  <advance width="591"/>
  <unicode hex="0035"/>
  <outline>
    <contour>
      <point x="478" y="532" type="line"/>
      <point x="520" y="739" type="line"/>
      <point x="510" y="739" type="line"/>
      <point x="495" y="709"/>
      <point x="473" y="689"/>
      <point x="431" y="689" type="curve"/>
      <point x="133" y="664" type="line"/>
      <point x="50" y="280" type="line"/>
      <point x="59" y="274" type="line"/>
      <point x="210" y="336"/>
      <point x="329" y="290"/>
      <point x="322" y="176" type="curve" smooth="yes"/>
      <point x="313" y="27"/>
      <point x="97" y="-24"/>
      <point x="12" y="-21" type="curve"/>
      <point x="10" y="-31" type="line"/>
      <point x="195" y="-129"/>
      <point x="530" y="-54"/>
      <point x="541" y="194" type="curve" smooth="yes"/>
      <point x="549" y="364"/>
      <point x="409" y="485"/>
      <point x="152" y="424" type="curve"/>
      <point x="171" y="507" type="line"/>
    </contour>
  </outline>
</glyph>
<glyph name="six" format="2">
  <advance width="675"/>
  <unicode hex="0036"/>
  <outline>
    <contour>
      <point x="559" y="734" type="line"/>
      <point x="211" y="776"/>
      <point x="40" y="600"/>
      <point x="40" y="315" type="curve" smooth="yes"/>
      <point x="40" y="86"/>
      <point x="148" y="-18"/>
      <point x="344" y="-15" type="curve" smooth="yes"/>
      <point x="542" y="-12"/>
      <point x="631" y="95"/>
      <point x="635" y="229" type="curve" smooth="yes"/>
      <point x="643" y="491"/>
      <point x="353" y="499"/>
      <point x="297" y="373" type="curve"/>
      <point x="305" y="365" type="line"/>
      <point x="322" y="376"/>
      <point x="350" y="388"/>
      <point x="380" y="376" type="curve" smooth="yes"/>
      <point x="409" y="364"/>
      <point x="430" y="332"/>
      <point x="430" y="218" type="curve" smooth="yes"/>
      <point x="430" y="127"/>
      <point x="415" y="45"/>
      <point x="341" y="45" type="curve" smooth="yes"/>
      <point x="268" y="45"/>
      <point x="265" y="128"/>
      <point x="265" y="294" type="curve" smooth="yes"/>
      <point x="265" y="515"/>
      <point x="278" y="639"/>
      <point x="563" y="727" type="curve"/>
    </contour>
  </outline>
</glyph>
<glyph name="seven" format="2">
  <advance width="572"/>
  <unicode hex="0037"/>
  <outline>
    <contour>
      <point x="5" y="465" type="line"/>
      <point x="33" y="698" type="line"/>
      <point x="563" y="700" type="line"/>
      <point x="435" y="403" type="line" smooth="yes"/>
      <point x="393" y="306"/>
      <point x="323" y="89"/>
      <point x="298" y="0" type="curve"/>
      <point x="128" y="0" type="line"/>
      <point x="189" y="100"/>
      <point x="316" y="324"/>
      <point x="358" y="414" type="curve" smooth="yes"/>
      <point x="410" y="525" type="line"/>
      <point x="90" y="525" type="line"/>
      <point x="50" y="525"/>
      <point x="30" y="505"/>
      <point x="15" y="465" type="curve"/>
    </contour>
  </outline>
</glyph>
<glyph name="eight" format="2">
  <advance width="636"/>
  <unicode hex="0038"/>
  <outline>
    <contour>
      <point x="68" y="505" type="curve" smooth="yes"/>
      <point x="68" y="357"/>
      <point x="198" y="298"/>
      <point x="269" y="262" type="curve" smooth="yes"/>
      <point x="391" y="200"/>
      <point x="427" y="164"/>
      <point x="427" y="120" type="curve" smooth="yes"/>
      <point x="427" y="67"/>
      <point x="371" y="30"/>
      <point x="306" y="36" type="curve" smooth="yes"/>
      <point x="236" y="43"/>
      <point x="194" y="96"/>
      <point x="194" y="189" type="curve" smooth="yes"/>
      <point x="194" y="284"/>
      <point x="238" y="336"/>
      <point x="300" y="355" type="curve"/>
      <point x="252" y="344" type="line"/>
      <point x="214" y="344"/>
      <point x="25" y="317"/>
      <point x="25" y="159" type="curve" smooth="yes"/>
      <point x="25" y="18"/>
      <point x="173" y="-14"/>
      <point x="298" y="-14" type="curve" smooth="yes"/>
      <point x="486" y="-14"/>
      <point x="611" y="59"/>
      <point x="611" y="200" type="curve" smooth="yes"/>
      <point x="611" y="328"/>
      <point x="509" y="368"/>
      <point x="381" y="436" type="curve" smooth="yes"/>
      <point x="267" y="497"/>
      <point x="233" y="523"/>
      <point x="233" y="579" type="curve" smooth="yes"/>
      <point x="233" y="628"/>
      <point x="261" y="666"/>
      <point x="311" y="663" type="curve" smooth="yes"/>
      <point x="366" y="660"/>
      <point x="394" y="616"/>
      <point x="396" y="561" type="curve" smooth="yes"/>
      <point x="398" y="510"/>
      <point x="382" y="417"/>
      <point x="332" y="403" type="curve"/>
      <point x="366" y="403" type="line"/>
      <point x="458" y="403"/>
      <point x="562" y="450"/>
      <point x="562" y="544" type="curve" smooth="yes"/>
      <point x="562" y="646"/>
      <point x="445" y="714"/>
      <point x="314" y="714" type="curve" smooth="yes"/>
      <point x="175" y="714"/>
      <point x="68" y="638"/>
    </contour>
  </outline>
</glyph>
<glyph name="nine" format="2">
  <advance width="675"/>
  <unicode hex="0039"/>
  <outline>
    <contour>
      <point x="116" y="-38" type="line"/>
      <point x="464" y="-80"/>
      <point x="635" y="96"/>
      <point x="635" y="381" type="curve" smooth="yes"/>
      <point x="635" y="610"/>
      <point x="527" y="714"/>
      <point x="331" y="711" type="curve" smooth="yes"/>
      <point x="132" y="708"/>
      <point x="44" y="601"/>
      <point x="40" y="467" type="curve" smooth="yes"/>
      <point x="32" y="205"/>
      <point x="322" y="197"/>
      <point x="377" y="323" type="curve"/>
      <point x="370" y="331" type="line"/>
      <point x="353" y="320"/>
      <point x="325" y="308"/>
      <point x="295" y="320" type="curve" smooth="yes"/>
      <point x="266" y="332"/>
      <point x="245" y="364"/>
      <point x="245" y="478" type="curve" smooth="yes"/>
      <point x="245" y="569"/>
      <point x="260" y="651"/>
      <point x="334" y="651" type="curve" smooth="yes"/>
      <point x="407" y="651"/>
      <point x="410" y="568"/>
      <point x="410" y="402" type="curve" smooth="yes"/>
      <point x="410" y="181"/>
      <point x="397" y="57"/>
      <point x="112" y="-31" type="curve"/>
    </contour>
  </outline>
</glyph>
<glyph name="less" format="2">
  <advance width="501"/>
  <unicode hex="003C"/>
  <outline>
    <contour>
      <point x="442" y="455" type="line"/>
      <point x="442" y="526" type="line"/>
      <point x="40" y="339" type="line"/>
      <point x="40" y="280" type="line"/>
      <point x="442" y="93" type="line"/>
      <point x="442" y="164" type="line"/>
      <point x="80" y="335" type="line"/>
      <point x="80" y="285" type="line"/>
    </contour>
  </outline>
</glyph>
<glyph name="equal" format="2">
  <advance width="481"/>
  <unicode hex="003D"/>
  <outline>
    <contour>
      <point x="40" y="419" type="line"/>
      <point x="40" y="354" type="line"/>
      <point x="442" y="354" type="line"/>
      <point x="442" y="419" type="line"/>
    </contour>
    <contour>
      <point x="40" y="244" type="line"/>
      <point x="40" y="179" type="line"/>
      <point x="442" y="179" type="line"/>
      <point x="442" y="244" type="line"/>
    </contour>
  </outline>
</glyph>
<glyph name="greater" format="2">
  <advance width="481"/>
  <unicode hex="003E"/>
  <outline>
    <contour>
      <point x="40" y="455" type="line"/>
      <point x="402" y="285" type="line"/>
      <point x="402" y="335" type="line"/>
      <point x="40" y="164" type="line"/>
      <point x="40" y="93" type="line"/>
      <point x="442" y="280" type="line"/>
      <point x="442" y="339" type="line"/>
      <point x="40" y="526" type="line"/>
    </contour>
  </outline>
</glyph>
<glyph name="question" format="2">
  <advance width="493"/>
  <unicode hex="003F"/>
  <outline>
    <contour>
      <point x="0" y="625" type="curve"/>
      <point x="50" y="510" type="line"/>
      <point x="60" y="510" type="line"/>
      <point x="60" y="617"/>
      <point x="96" y="664"/>
      <point x="157" y="664" type="curve" smooth="yes"/>
      <point x="215" y="664"/>
      <point x="247" y="622"/>
      <point x="248" y="546" type="curve" smooth="yes"/>
      <point x="250" y="420"/>
      <point x="165" y="422"/>
      <point x="156" y="339" type="curve" smooth="yes"/>
      <point x="149" y="272"/>
      <point x="198" y="230"/>
      <point x="256" y="215" type="curve"/>
      <point x="265" y="221" type="line"/>
      <point x="235" y="279"/>
      <point x="275" y="307"/>
      <point x="316" y="337" type="curve" smooth="yes"/>
      <point x="417" y="411"/>
      <point x="463" y="455"/>
      <point x="463" y="537" type="curve" smooth="yes"/>
      <point x="463" y="649"/>
      <point x="378" y="714"/>
      <point x="221" y="714" type="curve" smooth="yes"/>
      <point x="111" y="714"/>
      <point x="30" y="677"/>
    </contour>
    <contour>
      <point x="226" y="-14" type="curve" smooth="yes"/>
      <point x="275" y="-14"/>
      <point x="315" y="26"/>
      <point x="315" y="76" type="curve" smooth="yes"/>
      <point x="315" y="126"/>
      <point x="275" y="166"/>
      <point x="226" y="166" type="curve" smooth="yes"/>
      <point x="176" y="166"/>
      <point x="135" y="126"/>
      <point x="135" y="76" type="curve" smooth="yes"/>
      <point x="135" y="26"/>
      <point x="176" y="-14"/>
    </contour>
  </outline>
</glyph>
<glyph name="A" format="2">
  <advance width="720"/>
  <unicode hex="0041"/>
  <anchor x="547" y="10" name="ogonek"/>
  <anchor x="349" y="764" name="top"/>
  <outline>
    <contour>
      <point x="351" y="724" type="line" smooth="yes"/>
      <point x="264" y="468" type="line"/>
      <point x="457" y="6" type="line"/>
      <point x="697" y="6" type="line"/>
    </contour>
    <contour>
      <point x="136" y="73" type="curve"/>
      <point x="57" y="73" type="line"/>
      <point x="35" y="28"/>
      <point x="-1" y="10"/>
      <point x="-31" y="10" type="curve" smooth="yes"/>
      <point x="-31" y="10"/>
      <point x="-40" y="10"/>
      <point x="-40" y="10" type="curve"/>
      <point x="-40" y="0" type="line"/>
      <point x="183" y="0" type="line"/>
      <point x="183" y="10" type="line"/>
      <point x="174" y="10" type="line" smooth="yes"/>
      <point x="149" y="10"/>
      <point x="118" y="33"/>
    </contour>
    <contour>
      <point x="351" y="724" type="line"/>
      <point x="342" y="724" type="line"/>
      <point x="338" y="690"/>
      <point x="297" y="600"/>
      <point x="285" y="575" type="curve"/>
      <point x="24" y="3" type="line"/>
      <point x="105" y="3" type="line"/>
      <point x="351" y="568" type="line"/>
    </contour>
    <contour>
      <point x="433" y="216" type="line"/>
      <point x="150" y="216" type="line"/>
      <point x="150" y="166" type="line"/>
      <point x="433" y="166" type="line"/>
    </contour>
    <contour>
      <point x="428" y="73" type="line"/>
      <point x="445" y="33"/>
      <point x="416" y="10"/>
      <point x="390" y="10" type="curve" smooth="yes"/>
      <point x="381" y="10" type="line"/>
      <point x="381" y="0" type="line"/>
      <point x="760" y="0" type="line"/>
      <point x="760" y="10" type="line"/>
      <point x="760" y="10"/>
      <point x="752" y="10"/>
      <point x="752" y="10" type="curve" smooth="yes"/>
      <point x="721" y="10"/>
      <point x="686" y="28"/>
      <point x="664" y="73" type="curve"/>
    </contour>
  </outline>
</glyph>
<glyph name="B" format="2">
  <advance width="731"/>
  <unicode hex="0042"/>
  <outline>
    <contour>
      <point x="162.263" y="700" type="line" smooth="yes"/>
      <point x="162.263" y="700"/>
      <point x="172.315" y="651.483"/>
      <point x="172.315" y="649.949" type="curve"/>
      <point x="324.828" y="649.818" type="line"/>
      <point x="390" y="650"/>
      <point x="441" y="617"/>
      <point x="441.036" y="510.072" type="curve" smooth="yes"/>
      <point x="441" y="427"/>
      <point x="410" y="379"/>
      <point x="345.668" y="379.222" type="curve"/>
      <point x="345.896" y="369.81" type="line"/>
      <point x="430" y="370"/>
      <point x="472" y="311"/>
      <point x="471.559" y="215.389" type="curve" smooth="yes"/>
      <point x="472" y="94"/>
      <point x="405" y="51"/>
      <point x="324.828" y="51.47" type="curve"/>
      <point x="303.646" y="51.47" type="line"/>
      <point x="303.646" y="51.47"/>
      <point x="302.788" y="0"/>
      <point x="302.788" y="0" type="curve"/>
      <point x="393.646" y="0" type="line" smooth="yes"/>
      <point x="576" y="0"/>
      <point x="707" y="61"/>
      <point x="706.559" y="199.868" type="curve" smooth="yes"/>
      <point x="707" y="311"/>
      <point x="623" y="376"/>
      <point x="525.201" y="380.853" type="curve"/>
      <point x="592" y="383"/>
      <point x="656" y="430"/>
      <point x="656.036" y="526.101" type="curve" smooth="yes"/>
      <point x="656" y="663"/>
      <point x="527" y="700"/>
      <point x="378.447" y="700" type="curve" smooth="yes"/>
    </contour>
    <contour>
      <point x="311.966" y="700" type="line"/>
      <point x="106.849" y="700" type="line"/>
      <point x="106.849" y="0" type="line"/>
      <point x="311.966" y="0" type="line"/>
    </contour>
    <contour>
      <point x="109.775" y="72.864" type="line"/>
      <point x="106.865" y="72.864" type="line"/>
      <point x="106.21" y="38.029"/>
      <point x="77.813" y="9.979"/>
      <point x="42.812" y="9.979" type="curve" smooth="yes"/>
      <point x="41" y="10"/>
      <point x="32" y="10"/>
      <point x="30.162" y="10" type="curve"/>
      <point x="30" y="0" type="line"/>
      <point x="109.775" y="0" type="line"/>
    </contour>
    <contour>
      <point x="109.778" y="627.195" type="line"/>
      <point x="109.778" y="700" type="line"/>
      <point x="30.003" y="700" type="line"/>
      <point x="30.165" y="690.06" type="line"/>
      <point x="32" y="690"/>
      <point x="41" y="690"/>
      <point x="43" y="690" type="curve" smooth="yes"/>
      <point x="77.816" y="690.08"/>
      <point x="106.213" y="662.03"/>
      <point x="106.869" y="627.195" type="curve"/>
    </contour>
  </outline>
</glyph>
<glyph name="C" format="2">
  <advance width="793"/>
  <unicode hex="0043"/>
  <anchor x="445" y="-9" name="bottom"/>
  <anchor x="436" y="764" name="top"/>
  <outline>
    <contour>
      <point x="729" y="292" type="line"/>
      <point x="721" y="292" type="line"/>
      <point x="684" y="101"/>
      <point x="634" y="36"/>
      <point x="472" y="36" type="curve"/>
      <point x="336" y="40"/>
      <point x="255" y="158.007"/>
      <point x="255" y="354" type="curve" smooth="yes"/>
      <point x="255" y="549"/>
      <point x="342" y="664"/>
      <point x="490" y="664" type="curve" smooth="yes"/>
      <point x="593" y="664"/>
      <point x="671" y="618"/>
      <point x="711" y="477" type="curve"/>
      <point x="720" y="477" type="line"/>
      <point x="730" y="668" type="line"/>
      <point x="674" y="692"/>
      <point x="585" y="714"/>
      <point x="473" y="714" type="curve" smooth="yes"/>
      <point x="197" y="714"/>
      <point x="35" y="579"/>
      <point x="35" y="351" type="curve" smooth="yes"/>
      <point x="35" y="118"/>
      <point x="203" y="-13"/>
      <point x="472" y="-14" type="curve"/>
      <point x="630.992" y="-14"/>
      <point x="713" y="44"/>
      <point x="753" y="110" type="curve"/>
    </contour>
  </outline>
</glyph>
<glyph name="E" format="2">
  <advance width="667"/>
  <unicode hex="0045"/>
  <anchor x="358.706" y="0" name="bottom"/>
  <anchor x="567.919" y="4.638" name="ogonek"/>
  <anchor x="339.039" y="764" name="top"/>
  <outline>
    <contour>
      <point x="311.901" y="700" type="line"/>
      <point x="106.869" y="700" type="line"/>
      <point x="106.869" y="0" type="line"/>
      <point x="311.901" y="0" type="line"/>
    </contour>
    <contour>
      <point x="571.857" y="50.59" type="line"/>
      <point x="309.082" y="50.59" type="line"/>
      <point x="309.082" y="0" type="line"/>
      <point x="611.857" y="0" type="line"/>
    </contour>
    <contour>
      <point x="539.032" y="370.218" type="line"/>
      <point x="309.082" y="370.218" type="line"/>
      <point x="309.082" y="320.218" type="line"/>
      <point x="539.032" y="320.218" type="line"/>
    </contour>
    <contour>
      <point x="591.822" y="700" type="line"/>
      <point x="309.082" y="700" type="line"/>
      <point x="309.082" y="649.409" type="line" smooth="yes"/>
      <point x="591.822" y="649.409" type="line"/>
    </contour>
    <contour>
      <point x="652.845" y="231.543" type="line"/>
      <point x="642.845" y="231.543" type="line"/>
      <point x="611.753" y="117.359"/>
      <point x="531.283" y="50.592"/>
      <point x="435.32" y="50.592" type="curve"/>
      <point x="399.016" y="0" type="line"/>
      <point x="614.557" y="0" type="line"/>
    </contour>
    <contour>
      <point x="539.032" y="322.487" type="line"/>
      <point x="420.904" y="322.487" type="line"/>
      <point x="420.904" y="320.249" type="line"/>
      <point x="484.378" y="319.055"/>
      <point x="529.487" y="273.785"/>
      <point x="529.275" y="210.977" type="curve" smooth="yes"/>
      <point x="529.259" y="206.243" type="line"/>
      <point x="539.032" y="206.119" type="line"/>
    </contour>
    <contour>
      <point x="539.032" y="484.375" type="line"/>
      <point x="529.259" y="484.25" type="line"/>
      <point x="529.276" y="479.516" type="line" smooth="yes"/>
      <point x="529.501" y="416.714"/>
      <point x="484.451" y="371.446"/>
      <point x="420.904" y="370.248" type="curve"/>
      <point x="420.904" y="368.012" type="line"/>
      <point x="539.032" y="368.012" type="line"/>
    </contour>
    <contour>
      <point x="591.822" y="652.218" type="line"/>
      <point x="453.236" y="652.218" type="line"/>
      <point x="453.236" y="649.51" type="line"/>
      <point x="534.22" y="647.987"/>
      <point x="581.959" y="599.769"/>
      <point x="581.765" y="519.891" type="curve" smooth="yes"/>
      <point x="581.746" y="512.067" type="line"/>
      <point x="591.822" y="511.917" type="line"/>
    </contour>
    <contour>
      <point x="591.822" y="718.187" type="line"/>
      <point x="572.872" y="710.201"/>
      <point x="513.24" y="699.987"/>
      <point x="469.88" y="699.987" type="curve"/>
      <point x="591.822" y="688.909" type="line"/>
    </contour>
    <contour>
      <point x="109.775" y="72.864" type="line"/>
      <point x="106.865" y="72.864" type="line"/>
      <point x="106.21" y="38.029"/>
      <point x="77.813" y="9.979"/>
      <point x="42.811" y="9.979" type="curve" smooth="yes"/>
      <point x="42.659" y="9.979"/>
      <point x="30.318" y="10"/>
      <point x="30.161" y="10" type="curve"/>
      <point x="30" y="0" type="line"/>
      <point x="109.775" y="0" type="line"/>
    </contour>
    <contour>
      <point x="109.782" y="627.196" type="line"/>
      <point x="109.782" y="700.06" type="line"/>
      <point x="30.007" y="700.06" type="line"/>
      <point x="30.169" y="690.06" type="line"/>
      <point x="30.326" y="690.06"/>
      <point x="42.667" y="690.08"/>
      <point x="42.819" y="690.08" type="curve" smooth="yes"/>
      <point x="77.82" y="690.08"/>
      <point x="106.217" y="662.03"/>
      <point x="106.873" y="627.196" type="curve"/>
    </contour>
  </outline>
</glyph>
<glyph name="F" format="2">
  <advance width="631"/>
  <unicode hex="0046"/>
  <outline>
    <contour>
      <point x="312" y="700" type="line"/>
      <point x="107" y="700" type="line"/>
      <point x="107" y="0" type="line"/>
      <point x="312" y="0" type="line"/>
    </contour>
    <contour>
      <point x="539" y="370" type="line"/>
      <point x="309" y="370" type="line"/>
      <point x="309" y="320" type="line"/>
      <point x="539" y="320" type="line"/>
    </contour>
    <contour>
      <point x="592" y="700" type="line"/>
      <point x="309" y="700" type="line"/>
      <point x="309" y="649" type="line" smooth="yes"/>
      <point x="592" y="649" type="line"/>
    </contour>
    <contour>
      <point x="539" y="322" type="line"/>
      <point x="421" y="322" type="line"/>
      <point x="421" y="320" type="line"/>
      <point x="484" y="319"/>
      <point x="529" y="274"/>
      <point x="529" y="211" type="curve" smooth="yes"/>
      <point x="529" y="206" type="line"/>
      <point x="539" y="206" type="line"/>
    </contour>
    <contour>
      <point x="539" y="484" type="line"/>
      <point x="529" y="484" type="line"/>
      <point x="529" y="480" type="line" smooth="yes"/>
      <point x="530" y="417"/>
      <point x="484" y="371"/>
      <point x="421" y="370" type="curve"/>
      <point x="421" y="368" type="line"/>
      <point x="539" y="368" type="line"/>
    </contour>
    <contour>
      <point x="592" y="652" type="line"/>
      <point x="453" y="652" type="line"/>
      <point x="453" y="650" type="line"/>
      <point x="534" y="648"/>
      <point x="582" y="600"/>
      <point x="582" y="520" type="curve" smooth="yes"/>
      <point x="582" y="512" type="line"/>
      <point x="592" y="512" type="line"/>
    </contour>
    <contour>
      <point x="592" y="718" type="line"/>
      <point x="573" y="710"/>
      <point x="513" y="700"/>
      <point x="470" y="700" type="curve"/>
      <point x="592" y="689" type="line"/>
    </contour>
    <contour>
      <point x="110" y="73" type="line"/>
      <point x="107" y="73" type="line"/>
      <point x="106" y="38"/>
      <point x="78" y="10"/>
      <point x="43" y="10" type="curve" smooth="yes"/>
      <point x="43" y="10"/>
      <point x="30" y="10"/>
      <point x="30" y="10" type="curve"/>
      <point x="30" y="0" type="line"/>
      <point x="110" y="0" type="line"/>
    </contour>
    <contour>
      <point x="110" y="627" type="line"/>
      <point x="110" y="700" type="line"/>
      <point x="30" y="700" type="line"/>
      <point x="30" y="690" type="line"/>
      <point x="30" y="690"/>
      <point x="43" y="690"/>
      <point x="43" y="690" type="curve" smooth="yes"/>
      <point x="78" y="690"/>
      <point x="106" y="662"/>
      <point x="107" y="627" type="curve"/>
    </contour>
    <contour>
      <point x="309" y="73" type="line"/>
      <point x="309" y="0" type="line"/>
      <point x="389" y="0" type="line"/>
      <point x="389" y="10" type="line"/>
      <point x="388" y="10"/>
      <point x="376" y="10"/>
      <point x="376" y="10" type="curve" smooth="yes"/>
      <point x="341" y="10"/>
      <point x="313" y="38"/>
      <point x="312" y="73" type="curve"/>
    </contour>
  </outline>
</glyph>
<glyph name="G" format="2">
  <advance width="861"/>
  <unicode hex="0047"/>
  <anchor x="444" y="0" name="bottom"/>
  <anchor x="426" y="764" name="top"/>
  <outline>
    <contour>
      <point x="784" y="280" type="line"/>
      <point x="783" y="309"/>
      <point x="801" y="325"/>
      <point x="834" y="325" type="curve" smooth="yes"/>
      <point x="849" y="325" type="line"/>
      <point x="849" y="335" type="line"/>
      <point x="513" y="335" type="line"/>
      <point x="513" y="325" type="line"/>
      <point x="529" y="325" type="line" smooth="yes"/>
      <point x="561" y="325"/>
      <point x="580" y="309"/>
      <point x="580" y="280" type="curve" smooth="yes"/>
      <point x="579" y="143" type="line"/>
      <point x="579" y="73"/>
      <point x="512" y="36"/>
      <point x="447" y="36" type="curve" smooth="yes"/>
      <point x="314" y="36"/>
      <point x="255" y="153"/>
      <point x="255" y="342" type="curve" smooth="yes"/>
      <point x="255" y="547"/>
      <point x="325" y="664"/>
      <point x="485" y="664" type="curve" smooth="yes"/>
      <point x="575" y="664"/>
      <point x="672" y="627"/>
      <point x="714" y="477" type="curve"/>
      <point x="723" y="477" type="line"/>
      <point x="733" y="668" type="line"/>
      <point x="674" y="693"/>
      <point x="545" y="714"/>
      <point x="435" y="714" type="curve"/>
      <point x="184" y="714"/>
      <point x="35" y="578"/>
      <point x="35" y="352" type="curve" smooth="yes"/>
      <point x="35" y="122"/>
      <point x="189" y="-14"/>
      <point x="425" y="-14" type="curve" smooth="yes"/>
      <point x="592" y="-14"/>
      <point x="736" y="54"/>
      <point x="784" y="115" type="curve"/>
    </contour>
  </outline>
</glyph>
<glyph name="I" format="2">
  <advance width="418"/>
  <unicode hex="0049"/>
  <anchor x="210" y="3" name="ogonek"/>
  <anchor x="208" y="764" name="top"/>
  <outline>
    <contour>
      <point x="312" y="700" type="line"/>
      <point x="107" y="700" type="line"/>
      <point x="107" y="0" type="line"/>
      <point x="312" y="0" type="line"/>
    </contour>
    <contour>
      <point x="110" y="73" type="line"/>
      <point x="107" y="73" type="line"/>
      <point x="106" y="38"/>
      <point x="78" y="10"/>
      <point x="43" y="10" type="curve" smooth="yes"/>
      <point x="43" y="10"/>
      <point x="30" y="10"/>
      <point x="30" y="10" type="curve"/>
      <point x="30" y="0" type="line"/>
      <point x="110" y="0" type="line"/>
    </contour>
    <contour>
      <point x="110" y="627" type="line"/>
      <point x="110" y="700" type="line"/>
      <point x="30" y="700" type="line"/>
      <point x="30" y="690" type="line"/>
      <point x="30" y="690"/>
      <point x="43" y="690"/>
      <point x="43" y="690" type="curve" smooth="yes"/>
      <point x="78" y="690"/>
      <point x="106" y="662"/>
      <point x="107" y="627" type="curve"/>
    </contour>
    <contour>
      <point x="309" y="73" type="line"/>
      <point x="309" y="0" type="line"/>
      <point x="389" y="0" type="line"/>
      <point x="389" y="10" type="line"/>
      <point x="388" y="10"/>
      <point x="376" y="10"/>
      <point x="376" y="10" type="curve" smooth="yes"/>
      <point x="341" y="10"/>
      <point x="313" y="38"/>
      <point x="312" y="73" type="curve"/>
    </contour>
    <contour>
      <point x="309" y="627" type="line"/>
      <point x="312" y="627" type="line"/>
      <point x="313" y="662"/>
      <point x="341" y="690"/>
      <point x="376" y="690" type="curve" smooth="yes"/>
      <point x="376" y="690"/>
      <point x="388" y="690"/>
      <point x="389" y="690" type="curve"/>
      <point x="389" y="700" type="line"/>
      <point x="309" y="700" type="line"/>
    </contour>
  </outline>
</glyph>
<glyph name="K" format="2">
  <advance width="822"/>
  <unicode hex="004B"/>
  <anchor x="470" y="0" name="bottom"/>
  <anchor x="465" y="700" name="top"/>
  <outline>
    <contour>
      <point x="493" y="460" type="line"/>
      <point x="344" y="318" type="line"/>
      <point x="344" y="316"/>
      <point x="452" y="142"/>
      <point x="483" y="100" type="curve" smooth="yes"/>
      <point x="561" y="-6"/>
      <point x="711" y="0"/>
      <point x="740" y="0" type="curve" smooth="yes"/>
      <point x="848" y="0" type="line"/>
      <point x="848" y="10" type="line"/>
      <point x="807" y="11"/>
      <point x="773" y="37"/>
      <point x="741" y="86" type="curve" smooth="yes"/>
    </contour>
    <contour>
      <point x="719" y="693" type="line"/>
      <point x="619" y="693" type="line"/>
      <point x="344" y="318" type="line"/>
      <point x="417" y="328" type="line"/>
    </contour>
    <contour>
      <point x="790" y="700" type="line"/>
      <point x="786" y="700" type="line"/>
      <point x="549" y="700" type="line"/>
      <point x="549" y="691" type="line"/>
      <point x="559" y="691" type="line"/>
      <point x="587" y="691"/>
      <point x="599" y="666"/>
      <point x="583" y="644" type="curve"/>
      <point x="676" y="642" type="line"/>
      <point x="702" y="671"/>
      <point x="742" y="691"/>
      <point x="786" y="691" type="curve" smooth="yes"/>
      <point x="790" y="691" type="line"/>
    </contour>
    <contour>
      <point x="312" y="700" type="line"/>
      <point x="107" y="700" type="line"/>
      <point x="107" y="0" type="line"/>
      <point x="312" y="0" type="line"/>
    </contour>
    <contour>
      <point x="110" y="73" type="line"/>
      <point x="107" y="73" type="line"/>
      <point x="106" y="38"/>
      <point x="78" y="10"/>
      <point x="43" y="10" type="curve" smooth="yes"/>
      <point x="41" y="10"/>
      <point x="32" y="10"/>
      <point x="30" y="10" type="curve"/>
      <point x="30" y="0" type="line"/>
      <point x="110" y="0" type="line"/>
    </contour>
    <contour>
      <point x="110" y="627" type="line"/>
      <point x="110" y="700" type="line"/>
      <point x="30" y="700" type="line"/>
      <point x="30" y="690" type="line"/>
      <point x="32" y="690"/>
      <point x="41" y="690"/>
      <point x="43" y="690" type="curve" smooth="yes"/>
      <point x="78" y="690"/>
      <point x="106" y="662"/>
      <point x="107" y="627" type="curve"/>
    </contour>
    <contour>
      <point x="309" y="73" type="line"/>
      <point x="309" y="0" type="line"/>
      <point x="389" y="0" type="line"/>
      <point x="389" y="10" type="line"/>
      <point x="387" y="10"/>
      <point x="378" y="10"/>
      <point x="376" y="10" type="curve" smooth="yes"/>
      <point x="341" y="10"/>
      <point x="313" y="38"/>
      <point x="312" y="73" type="curve"/>
    </contour>
    <contour>
      <point x="309" y="627" type="line"/>
      <point x="312" y="627" type="line"/>
      <point x="313" y="662"/>
      <point x="341" y="690"/>
      <point x="376" y="690" type="curve" smooth="yes"/>
      <point x="378" y="690"/>
      <point x="387" y="690"/>
      <point x="389" y="690" type="curve"/>
      <point x="389" y="700" type="line"/>
      <point x="309" y="700" type="line"/>
    </contour>
  </outline>
</glyph>
<glyph name="L" format="2">
  <advance width="652"/>
  <unicode hex="004C"/>
  <anchor x="353.796" y="-64" name="bottom"/>
  <anchor x="210" y="764" name="top"/>
  <outline>
    <contour>
      <point x="311.901" y="700" type="line"/>
      <point x="106.869" y="700" type="line"/>
      <point x="106.869" y="0" type="line"/>
      <point x="311.901" y="0" type="line"/>
    </contour>
    <contour>
      <point x="571.857" y="50.59" type="line"/>
      <point x="309.082" y="50.59" type="line"/>
      <point x="309.082" y="0" type="line"/>
      <point x="611.857" y="0" type="line"/>
    </contour>
    <contour>
      <point x="652.845" y="231.543" type="line"/>
      <point x="642.845" y="231.543" type="line"/>
      <point x="611.753" y="117.359"/>
      <point x="531.283" y="50.592"/>
      <point x="435.32" y="50.592" type="curve"/>
      <point x="399.016" y="0" type="line"/>
      <point x="614.557" y="0" type="line"/>
    </contour>
    <contour>
      <point x="109.775" y="72.864" type="line"/>
      <point x="106.865" y="72.864" type="line"/>
      <point x="106.21" y="38.029"/>
      <point x="77.813" y="9.979"/>
      <point x="42.811" y="9.979" type="curve" smooth="yes"/>
      <point x="42.659" y="9.979"/>
      <point x="30.318" y="10"/>
      <point x="30.161" y="10" type="curve"/>
      <point x="30" y="0" type="line"/>
      <point x="109.775" y="0" type="line"/>
    </contour>
    <contour>
      <point x="109.776" y="627.196" type="line"/>
      <point x="109.776" y="700.06" type="line"/>
      <point x="30" y="700.06" type="line"/>
      <point x="30.163" y="690.06" type="line"/>
      <point x="30.32" y="690.06"/>
      <point x="42.661" y="690.08"/>
      <point x="42.813" y="690.08" type="curve" smooth="yes"/>
      <point x="77.814" y="690.08"/>
      <point x="106.211" y="662.03"/>
      <point x="106.867" y="627.196" type="curve"/>
    </contour>
    <contour>
      <point x="309.028" y="627.196" type="line"/>
      <point x="311.937" y="627.196" type="line"/>
      <point x="312.593" y="662.03"/>
      <point x="340.99" y="690.08"/>
      <point x="375.991" y="690.08" type="curve" smooth="yes"/>
      <point x="376.143" y="690.08"/>
      <point x="388.484" y="690.06"/>
      <point x="388.641" y="690.06" type="curve"/>
      <point x="388.803" y="700.06" type="line"/>
      <point x="309.028" y="700.06" type="line"/>
    </contour>
  </outline>
</glyph>
<glyph name="M" format="2">
  <advance width="968"/>
  <unicode hex="004D"/>
  <guideline x="942.63" y="352.798" angle="0"/>
  <outline>
    <contour>
      <point x="805.298" y="713.697" type="line"/>
      <point x="378.594" y="78.95" type="line"/>
      <point x="434.846" y="-24" type="line"/>
      <point x="444.265" y="-24" type="line"/>
      <point x="442.323" y="29.387"/>
      <point x="485.582" y="92.11"/>
      <point x="485.582" y="92.11" type="curve"/>
      <point x="812.923" y="577.912" type="line"/>
    </contour>
    <contour>
      <point x="85.623" y="72.645" type="line"/>
      <point x="64.211" y="72.645" type="line"/>
      <point x="59.082" y="33.113"/>
      <point x="27.078" y="9.991"/>
      <point x="-9" y="9.991" type="curve" smooth="yes"/>
      <point x="-9" y="9.991"/>
      <point x="-24" y="10"/>
      <point x="-25" y="10" type="curve"/>
      <point x="-25" y="0" type="line"/>
      <point x="85.623" y="0" type="line"/>
    </contour>
    <contour>
      <point x="140.284" y="56.525" type="curve"/>
      <point x="133.21" y="56.525" type="line"/>
      <point x="133.21" y="0" type="line"/>
      <point x="194.594" y="0" type="line"/>
      <point x="194.594" y="9.445" type="line"/>
      <point x="179.013" y="9.445" type="line" smooth="yes"/>
      <point x="157.469" y="9.49"/>
      <point x="140.024" y="30.59"/>
      <point x="140.024" y="52.145" type="curve" smooth="yes"/>
      <point x="140.024" y="53.626"/>
      <point x="140.122" y="55.086"/>
    </contour>
    <contour>
      <point x="152.129" y="714" type="line"/>
      <point x="54.394" y="0" type="line"/>
      <point x="133.368" y="0" type="line"/>
      <point x="206.359" y="586.713" type="line"/>
      <point x="161.406" y="714" type="line"/>
    </contour>
    <contour>
      <point x="161.406" y="714" type="line"/>
      <point x="131.054" y="396.025" type="line"/>
      <point x="434.849" y="-24" type="line"/>
      <point x="512.994" y="232.533" type="line"/>
    </contour>
    <contour>
      <point x="814.44" y="713.697" type="line"/>
      <point x="805.298" y="713.697" type="line"/>
      <point x="652.875" y="364.946" type="line"/>
      <point x="700.928" y="0" type="line"/>
      <point x="914.873" y="0" type="line"/>
    </contour>
    <contour>
      <point x="883.373" y="72.645" type="line"/>
      <point x="883.373" y="0" type="line"/>
      <point x="993.586" y="0" type="line"/>
      <point x="993.586" y="10" type="line"/>
      <point x="993.466" y="10"/>
      <point x="977.78" y="9.991"/>
      <point x="977.668" y="9.991" type="curve" smooth="yes"/>
      <point x="941.918" y="9.991"/>
      <point x="911.914" y="33.113"/>
      <point x="904.785" y="72.645" type="curve"/>
    </contour>
    <contour>
      <point x="693.681" y="56.525" type="line"/>
      <point x="693.844" y="55.085"/>
      <point x="693.941" y="53.626"/>
      <point x="693.941" y="52.145" type="curve" smooth="yes"/>
      <point x="693.941" y="30.59"/>
      <point x="676.496" y="9.49"/>
      <point x="654.953" y="9.445" type="curve" smooth="yes"/>
      <point x="639.371" y="9.445" type="line"/>
      <point x="639.371" y="0" type="line"/>
      <point x="700.756" y="0" type="line"/>
      <point x="700.756" y="56.525" type="line"/>
    </contour>
  </outline>
</glyph>
<glyph name="N" format="2">
  <advance width="881"/>
  <unicode hex="004E"/>
  <anchor x="507.779" y="-64" name="bottom"/>
  <anchor x="411.804" y="764" name="top"/>
  <outline>
    <contour>
      <point x="96.9" y="714.952" type="line"/>
      <point x="110.288" y="584.837" type="line"/>
      <point x="785.022" y="-14" type="line"/>
      <point x="771.873" y="114.808" type="line"/>
    </contour>
    <contour>
      <point x="103.152" y="70.59" type="line"/>
      <point x="100.346" y="70.59" type="line"/>
      <point x="99.715" y="37.017"/>
      <point x="72.347" y="9.981"/>
      <point x="38.613" y="9.981" type="curve" smooth="yes"/>
      <point x="38.46" y="9.981"/>
      <point x="20.305" y="9.994"/>
      <point x="20.155" y="10" type="curve"/>
      <point x="20" y="0" type="line"/>
      <point x="103.152" y="0" type="line"/>
    </contour>
    <contour>
      <point x="305.637" y="70.59" type="curve"/>
      <point x="302.835" y="70.59" type="line"/>
      <point x="302.835" y="0" type="line"/>
      <point x="385.987" y="0" type="line"/>
      <point x="385.833" y="10" type="line"/>
      <point x="385.68" y="9.994"/>
      <point x="367.523" y="9.981"/>
      <point x="367.372" y="9.981" type="curve" smooth="yes"/>
      <point x="333.64" y="9.981"/>
      <point x="306.273" y="37.017"/>
    </contour>
    <contour>
      <point x="96.997" y="715" type="line"/>
      <point x="87.136" y="714.991" type="line"/>
      <point x="87.136" y="714.991"/>
      <point x="100.345" y="668.335"/>
      <point x="100.345" y="590.069" type="curve" smooth="yes"/>
      <point x="100.345" y="0" type="line"/>
      <point x="305.732" y="0" type="line"/>
      <point x="305.02" y="498.772" type="line"/>
    </contour>
    <contour>
      <point x="780.983" y="700.019" type="line"/>
      <point x="575.596" y="700.019" type="line"/>
      <point x="575.641" y="218.152" type="line"/>
      <point x="785.022" y="-14" type="line"/>
      <point x="794.104" y="-14" type="line" smooth="yes"/>
      <point x="794.104" y="-14"/>
      <point x="780.983" y="31.165"/>
      <point x="780.983" y="113.582" type="curve" smooth="yes"/>
    </contour>
    <contour>
      <point x="861.306" y="700.019" type="line"/>
      <point x="778.158" y="700.019" type="line"/>
      <point x="778.154" y="629.432" type="line"/>
      <point x="780.962" y="629.432" type="line"/>
      <point x="781.593" y="663.007"/>
      <point x="808.96" y="690.043"/>
      <point x="842.696" y="690.039" type="curve" smooth="yes"/>
      <point x="842.846" y="690.042"/>
      <point x="861.002" y="690.027"/>
      <point x="861.152" y="690.02" type="curve"/>
    </contour>
    <contour>
      <point x="495.233" y="700.019" type="line"/>
      <point x="495.387" y="690.019" type="line"/>
      <point x="495.536" y="690.025"/>
      <point x="513.693" y="690.041"/>
      <point x="513.841" y="690.038" type="curve" smooth="yes"/>
      <point x="547.579" y="690.042"/>
      <point x="574.944" y="663.005"/>
      <point x="575.575" y="629.431" type="curve"/>
      <point x="578.385" y="629.431" type="line"/>
      <point x="578.379" y="700.019" type="line"/>
    </contour>
  </outline>
</glyph>
<glyph name="O" format="2">
  <advance width="905"/>
  <unicode hex="004F"/>
  <anchor x="450.432" y="778" name="top"/>
  <outline>
    <contour>
      <point x="450.432" y="714" type="curve" smooth="yes"/>
      <point x="192.446" y="714"/>
      <point x="35" y="578.797"/>
      <point x="35" y="349.992" type="curve" smooth="yes"/>
      <point x="35" y="121.197"/>
      <point x="192.446" y="-14"/>
      <point x="450.432" y="-14" type="curve" smooth="yes"/>
      <point x="708.418" y="-14"/>
      <point x="865.865" y="121.197"/>
      <point x="865.865" y="349.992" type="curve" smooth="yes"/>
      <point x="865.865" y="578.797"/>
      <point x="708.418" y="714"/>
    </contour>
    <contour>
      <point x="450.432" y="35.925" type="curve" smooth="yes"/>
      <point x="328.008" y="35.925"/>
      <point x="255.667" y="152.578"/>
      <point x="255.667" y="349.992" type="curve" smooth="yes"/>
      <point x="255.667" y="547.416"/>
      <point x="328.008" y="664.075"/>
      <point x="450.432" y="664.075" type="curve" smooth="yes"/>
      <point x="572.856" y="664.075"/>
      <point x="645.198" y="547.416"/>
      <point x="645.198" y="349.992" type="curve" smooth="yes"/>
      <point x="645.198" y="152.578"/>
      <point x="572.856" y="35.925"/>
    </contour>
  </outline>
</glyph>
<glyph name="P" format="2">
  <advance width="707"/>
  <unicode hex="0050"/>
  <outline>
    <contour>
      <point x="304" y="700" type="line" smooth="yes"/>
      <point x="304" y="700"/>
      <point x="314" y="650"/>
      <point x="314" y="650" type="curve"/>
      <point x="352" y="650" type="line"/>
      <point x="429" y="650"/>
      <point x="474" y="598"/>
      <point x="477" y="517" type="curve" smooth="yes"/>
      <point x="478" y="500"/>
      <point x="476" y="477"/>
      <point x="471" y="457" type="curve" smooth="yes"/>
      <point x="443" y="342"/>
      <point x="350" y="340"/>
      <point x="351" y="339" type="curve"/>
      <point x="351" y="329" type="line"/>
      <point x="505" y="218"/>
      <point x="702" y="324"/>
      <point x="692" y="509" type="curve" smooth="yes"/>
      <point x="686" y="612"/>
      <point x="615" y="700"/>
      <point x="416" y="700" type="curve" smooth="yes"/>
    </contour>
    <contour>
      <point x="317" y="700" type="line"/>
      <point x="112" y="700" type="line"/>
      <point x="112" y="0" type="line"/>
      <point x="317" y="0" type="line"/>
    </contour>
    <contour>
      <point x="115" y="73" type="line"/>
      <point x="112" y="73" type="line"/>
      <point x="111" y="38"/>
      <point x="83" y="10"/>
      <point x="48" y="10" type="curve" smooth="yes"/>
      <point x="46" y="10"/>
      <point x="37" y="10"/>
      <point x="35" y="10" type="curve"/>
      <point x="35" y="0" type="line"/>
      <point x="115" y="0" type="line"/>
    </contour>
    <contour>
      <point x="115" y="627" type="line"/>
      <point x="115" y="700" type="line"/>
      <point x="35" y="700" type="line"/>
      <point x="36" y="690" type="line"/>
      <point x="38" y="690"/>
      <point x="46" y="690"/>
      <point x="48" y="690" type="curve" smooth="yes"/>
      <point x="83" y="690"/>
      <point x="112" y="662"/>
      <point x="112" y="627" type="curve"/>
    </contour>
    <contour>
      <point x="314" y="73" type="line"/>
      <point x="314" y="0" type="line"/>
      <point x="394" y="0" type="line"/>
      <point x="394" y="10" type="line"/>
      <point x="392" y="10"/>
      <point x="383" y="10"/>
      <point x="381" y="10" type="curve" smooth="yes"/>
      <point x="346" y="10"/>
      <point x="318" y="38"/>
      <point x="317" y="73" type="curve"/>
    </contour>
  </outline>
</glyph>
<glyph name="Q" format="2">
  <advance width="912"/>
  <unicode hex="0051"/>
  <outline>
    <contour>
      <point x="453.017" y="-14" type="line"/>
      <point x="574" y="-18"/>
      <point x="660" y="-134"/>
      <point x="824" y="-224" type="curve" smooth="yes"/>
      <point x="1130" y="-391"/>
      <point x="1376" y="-283"/>
      <point x="1375.75" y="-67" type="curve"/>
      <point x="1368.93" y="-64" type="line"/>
      <point x="1266" y="-138"/>
      <point x="1121" y="-149"/>
      <point x="921" y="-76" type="curve" smooth="yes"/>
      <point x="711" y="1"/>
      <point x="677" y="13"/>
      <point x="398.682" y="34.861" type="curve"/>
    </contour>
    <contour>
      <point x="455.432" y="714" type="curve" smooth="yes"/>
      <point x="197.446" y="714"/>
      <point x="40" y="578.797"/>
      <point x="40" y="349.992" type="curve" smooth="yes"/>
      <point x="40" y="121.197"/>
      <point x="197.446" y="-14"/>
      <point x="455.432" y="-14" type="curve" smooth="yes"/>
      <point x="713.418" y="-14"/>
      <point x="870.865" y="121.197"/>
      <point x="870.865" y="349.992" type="curve" smooth="yes"/>
      <point x="870.865" y="578.797"/>
      <point x="713.418" y="714"/>
    </contour>
    <contour>
      <point x="455.432" y="35.925" type="curve" smooth="yes"/>
      <point x="333.008" y="35.925"/>
      <point x="260.667" y="152.578"/>
      <point x="260.667" y="349.992" type="curve" smooth="yes"/>
      <point x="260.667" y="547.416"/>
      <point x="333.008" y="664.075"/>
      <point x="455.432" y="664.075" type="curve" smooth="yes"/>
      <point x="577.856" y="664.075"/>
      <point x="650.198" y="547.416"/>
      <point x="650.198" y="349.992" type="curve" smooth="yes"/>
      <point x="650.198" y="152.578"/>
      <point x="577.856" y="35.925"/>
    </contour>
  </outline>
</glyph>
<glyph name="R" format="2">
  <advance width="793"/>
  <unicode hex="0052"/>
  <anchor x="480" y="-64" name="bottom"/>
  <anchor x="391" y="764" name="top"/>
  <outline>
    <contour>
      <point x="305" y="700" type="line" smooth="yes"/>
      <point x="305" y="700"/>
      <point x="314" y="648"/>
      <point x="315" y="648" type="curve" smooth="yes"/>
      <point x="330" y="648"/>
      <point x="352" y="648"/>
      <point x="362" y="648" type="curve" smooth="yes"/>
      <point x="422" y="648"/>
      <point x="471" y="615"/>
      <point x="476" y="516" type="curve" smooth="yes"/>
      <point x="477" y="497"/>
      <point x="475" y="486"/>
      <point x="474" y="475" type="curve" smooth="yes"/>
      <point x="463" y="389"/>
      <point x="422" y="352"/>
      <point x="367" y="352" type="curve" smooth="yes"/>
      <point x="364" y="352"/>
      <point x="356" y="352"/>
      <point x="351" y="352" type="curve"/>
      <point x="351" y="342" type="line"/>
      <point x="370" y="335"/>
      <point x="389" y="323"/>
      <point x="403" y="275" type="curve" smooth="yes"/>
      <point x="416" y="232"/>
      <point x="419" y="175"/>
      <point x="455" y="114" type="curve" smooth="yes"/>
      <point x="516" y="10"/>
      <point x="609" y="0"/>
      <point x="729" y="0" type="curve" smooth="yes"/>
      <point x="854" y="0" type="line"/>
      <point x="854" y="10" type="line"/>
      <point x="806" y="11"/>
      <point x="783" y="24"/>
      <point x="738" y="86" type="curve" smooth="yes"/>
      <point x="701" y="136"/>
      <point x="658" y="213"/>
      <point x="653" y="221" type="curve" smooth="yes"/>
      <point x="629" y="261"/>
      <point x="587" y="305"/>
      <point x="531" y="321" type="curve"/>
      <point x="656" y="340"/>
      <point x="691" y="435"/>
      <point x="691" y="511" type="curve" smooth="yes"/>
      <point x="691" y="665"/>
      <point x="547" y="700"/>
      <point x="426" y="700" type="curve" smooth="yes"/>
    </contour>
    <contour>
      <point x="318" y="700" type="line"/>
      <point x="112" y="700" type="line"/>
      <point x="112" y="0" type="line"/>
      <point x="318" y="0" type="line"/>
    </contour>
    <contour>
      <point x="115" y="73" type="line"/>
      <point x="112" y="73" type="line"/>
      <point x="111" y="38"/>
      <point x="83" y="10"/>
      <point x="48" y="10" type="curve" smooth="yes"/>
      <point x="46" y="10"/>
      <point x="37" y="10"/>
      <point x="35" y="10" type="curve"/>
      <point x="35" y="0" type="line"/>
      <point x="115" y="0" type="line"/>
    </contour>
    <contour>
      <point x="115" y="627" type="line"/>
      <point x="115" y="700" type="line"/>
      <point x="35" y="700" type="line"/>
      <point x="35" y="690" type="line"/>
      <point x="37" y="690"/>
      <point x="46" y="690"/>
      <point x="48" y="690" type="curve" smooth="yes"/>
      <point x="83" y="690"/>
      <point x="111" y="662"/>
      <point x="112" y="627" type="curve"/>
    </contour>
    <contour>
      <point x="315" y="73" type="line"/>
      <point x="315" y="0" type="line"/>
      <point x="394" y="0" type="line"/>
      <point x="394" y="10" type="line"/>
      <point x="392" y="10"/>
      <point x="384" y="10"/>
      <point x="382" y="10" type="curve" smooth="yes"/>
      <point x="347" y="10"/>
      <point x="318" y="38"/>
      <point x="318" y="73" type="curve"/>
    </contour>
  </outline>
</glyph>
<glyph name="S" format="2">
  <advance width="645"/>
  <unicode hex="0053"/>
  <anchor x="313.802" y="-13" name="bottom"/>
  <anchor x="320.036" y="764" name="top"/>
  <outline>
    <contour>
      <point x="294.027" y="714" type="curve" smooth="yes"/>
      <point x="160.027" y="714"/>
      <point x="75.027" y="651"/>
      <point x="61.027" y="535" type="curve" smooth="yes"/>
      <point x="49.027" y="440"/>
      <point x="92.027" y="362"/>
      <point x="183.593" y="319.61" type="curve" smooth="yes"/>
      <point x="346.644" y="244.285" type="line" smooth="yes"/>
      <point x="423.027" y="209"/>
      <point x="453.027" y="176"/>
      <point x="452.924" y="134.476" type="curve" smooth="yes"/>
      <point x="453.027" y="83"/>
      <point x="408.027" y="36"/>
      <point x="312.027" y="36" type="curve" smooth="yes"/>
      <point x="172.027" y="36"/>
      <point x="88.027" y="135"/>
      <point x="94.729" y="240.047" type="curve"/>
      <point x="85.937" y="240.047" type="line"/>
      <point x="52.704" y="197.21"/>
      <point x="31.924" y="99.51"/>
      <point x="54.377" y="50.639" type="curve"/>
      <point x="89.027" y="15"/>
      <point x="175.027" y="-14"/>
      <point x="291.027" y="-14" type="curve" smooth="yes"/>
      <point x="480.027" y="-14"/>
      <point x="595.027" y="63"/>
      <point x="605.027" y="206" type="curve" smooth="yes"/>
      <point x="612.027" y="303"/>
      <point x="564.027" y="366"/>
      <point x="489.639" y="400.221" type="curve" smooth="yes"/>
      <point x="302.739" y="486.53" type="line" smooth="yes"/>
      <point x="253.027" y="509"/>
      <point x="210.027" y="532"/>
      <point x="214.027" y="580" type="curve" smooth="yes"/>
      <point x="218.027" y="629"/>
      <point x="268.027" y="664"/>
      <point x="350.027" y="664" type="curve" smooth="yes"/>
      <point x="449.027" y="664"/>
      <point x="509.027" y="614"/>
      <point x="509.436" y="541.034" type="curve"/>
      <point x="519.065" y="541.034" type="line"/>
      <point x="539.065" y="691.869" type="line"/>
      <point x="516.027" y="702"/>
      <point x="353.027" y="714"/>
    </contour>
    <contour>
      <point x="540.643" y="703.741" type="line"/>
      <point x="392.56" y="703.741" type="line" smooth="yes"/>
      <point x="392.56" y="683.478" type="line"/>
      <point x="537.95" y="683.478" type="line"/>
    </contour>
  </outline>
</glyph>
<glyph name="U" format="2">
  <advance width="845"/>
  <unicode hex="0055"/>
  <anchor x="443" y="-8" name="ogonek"/>
  <anchor x="482.994" y="764" name="top"/>
  <outline>
    <contour>
      <point x="304" y="700" type="line" smooth="yes"/>
      <point x="99" y="700" type="line"/>
      <point x="99" y="256" type="line" smooth="yes"/>
      <point x="99" y="88"/>
      <point x="211" y="-14"/>
      <point x="456" y="-14" type="curve" smooth="yes"/>
      <point x="648" y="-14"/>
      <point x="756" y="88"/>
      <point x="756" y="257" type="curve" smooth="yes"/>
      <point x="756" y="700" type="line"/>
      <point x="669" y="700" type="line"/>
      <point x="669" y="247" type="line" smooth="yes"/>
      <point x="669" y="115"/>
      <point x="601" y="37"/>
      <point x="486" y="37" type="curve" smooth="yes"/>
      <point x="372" y="37"/>
      <point x="304" y="120"/>
      <point x="304" y="260" type="curve"/>
    </contour>
    <contour>
      <point x="102" y="700" type="line"/>
      <point x="30" y="700" type="line"/>
      <point x="30" y="690" type="line"/>
      <point x="30" y="690"/>
      <point x="46" y="690"/>
      <point x="46" y="690" type="curve" smooth="yes"/>
      <point x="75" y="690"/>
      <point x="99" y="669"/>
      <point x="99" y="640" type="curve"/>
      <point x="102" y="640" type="line"/>
    </contour>
    <contour>
      <point x="373" y="700" type="line"/>
      <point x="302" y="700" type="line"/>
      <point x="302" y="640" type="line"/>
      <point x="304" y="640" type="line"/>
      <point x="304" y="669"/>
      <point x="328" y="690"/>
      <point x="357" y="690" type="curve" smooth="yes"/>
      <point x="357" y="690"/>
      <point x="373" y="690"/>
      <point x="373" y="690" type="curve"/>
    </contour>
    <contour>
      <point x="672" y="700" type="line"/>
      <point x="600" y="700" type="line"/>
      <point x="600" y="690" type="line"/>
      <point x="600" y="690"/>
      <point x="616" y="690"/>
      <point x="616" y="690" type="curve" smooth="yes"/>
      <point x="645" y="690"/>
      <point x="669" y="669"/>
      <point x="669" y="640" type="curve"/>
      <point x="672" y="640" type="line"/>
    </contour>
    <contour>
      <point x="825" y="700" type="line"/>
      <point x="754" y="700" type="line"/>
      <point x="754" y="640" type="line"/>
      <point x="756" y="640" type="line"/>
      <point x="756" y="669"/>
      <point x="780" y="690"/>
      <point x="809" y="690" type="curve" smooth="yes"/>
      <point x="809" y="690"/>
      <point x="825" y="690"/>
      <point x="825" y="690" type="curve"/>
    </contour>
  </outline>
</glyph>
<glyph name="W" format="2">
  <advance width="964"/>
  <unicode hex="0057"/>
  <guideline x="487.595" y="369.67" angle="0"/>
  <anchor x="543.309" y="764" name="top"/>
  <outline>
    <contour>
      <point x="20.794" y="693.96" type="line"/>
      <point x="290.728" y="-22" type="line"/>
      <point x="379.851" y="336.447" type="line"/>
      <point x="236.231" y="693.934" type="line"/>
    </contour>
    <contour>
      <point x="554.123" y="715.642" type="line"/>
      <point x="545" y="715.642" type="line"/>
      <point x="256.65" y="115.784" type="line"/>
      <point x="290.728" y="-22" type="line"/>
      <point x="300.164" y="-22" type="line"/>
      <point x="300.81" y="33.149"/>
      <point x="327.125" y="89.156"/>
      <point x="327.125" y="89.156" type="curve"/>
      <point x="579.292" y="604.818" type="line"/>
    </contour>
    <contour>
      <point x="554.314" y="715.321" type="line"/>
      <point x="462.242" y="456.429" type="line"/>
      <point x="716.12" y="-22" type="line"/>
      <point x="781.118" y="295.908" type="line"/>
    </contour>
    <contour>
      <point x="928.722" y="694.217" type="line"/>
      <point x="851.681" y="694.217" type="line"/>
      <point x="677.017" y="76.933" type="line"/>
      <point x="716.12" y="-22" type="line"/>
      <point x="725.556" y="-22" type="line"/>
      <point x="720.087" y="27.624"/>
      <point x="740.417" y="89.156"/>
      <point x="740.417" y="89.156" type="curve"/>
    </contour>
    <contour>
      <point x="832.596" y="627.831" type="curve"/>
      <point x="907.686" y="627.5" type="line"/>
      <point x="921.897" y="672.049"/>
      <point x="964.975" y="690"/>
      <point x="995.62" y="690" type="curve" smooth="yes"/>
      <point x="995.62" y="690"/>
      <point x="1004.41" y="690"/>
      <point x="1004.41" y="690" type="curve"/>
      <point x="1004.41" y="700" type="line"/>
      <point x="785.804" y="700" type="line"/>
      <point x="785.804" y="690.093" type="line"/>
      <point x="794.596" y="690.093" type="line" smooth="yes"/>
      <point x="822.413" y="690.093"/>
      <point x="843.198" y="667.849"/>
    </contour>
    <contour>
      <point x="262.879" y="627.51" type="line"/>
      <point x="248.277" y="667.528"/>
      <point x="274.501" y="690.086"/>
      <point x="300.317" y="690.086" type="curve" smooth="yes"/>
      <point x="309.109" y="690.086" type="line"/>
      <point x="309.109" y="700" type="line"/>
      <point x="-50" y="700" type="line"/>
      <point x="-50" y="690" type="line"/>
      <point x="-50" y="690"/>
      <point x="-42" y="690"/>
      <point x="-42" y="690" type="curve" smooth="yes"/>
      <point x="-11" y="690"/>
      <point x="28.004" y="672.059"/>
      <point x="46.216" y="627.51" type="curve"/>
    </contour>
  </outline>
</glyph>
<glyph name="X" format="2">
  <advance width="773"/>
  <unicode hex="0058"/>
  <outline>
    <contour>
      <point x="281" y="700" type="line"/>
      <point x="43" y="700" type="line"/>
      <point x="499" y="1" type="line"/>
      <point x="739" y="1" type="line"/>
    </contour>
    <contour>
      <point x="179" y="72" type="curve"/>
      <point x="81" y="69" type="line"/>
      <point x="57" y="38"/>
      <point x="23" y="10"/>
      <point x="-19" y="10" type="curve" smooth="yes"/>
      <point x="-33" y="10" type="line"/>
      <point x="-33" y="0" type="line"/>
      <point x="227" y="0" type="line"/>
      <point x="227" y="10" type="line"/>
      <point x="227" y="10"/>
      <point x="214" y="10"/>
      <point x="214" y="10" type="curve" smooth="yes"/>
      <point x="187" y="10"/>
      <point x="160" y="44"/>
    </contour>
    <contour>
      <point x="291" y="355" type="line"/>
      <point x="31" y="0" type="line"/>
      <point x="128" y="0" type="line"/>
      <point x="356" y="321" type="line"/>
    </contour>
    <contour>
      <point x="453" y="72" type="line"/>
      <point x="470" y="43"/>
      <point x="446" y="10"/>
      <point x="419" y="10" type="curve" smooth="yes"/>
      <point x="419" y="10"/>
      <point x="406" y="10"/>
      <point x="406" y="10" type="curve"/>
      <point x="406" y="0" type="line"/>
      <point x="810" y="0" type="line"/>
      <point x="810" y="10" type="line"/>
      <point x="796" y="10" type="line" smooth="yes"/>
      <point x="754" y="10"/>
      <point x="715" y="37"/>
      <point x="695" y="68" type="curve"/>
    </contour>
    <contour>
      <point x="375" y="700" type="line"/>
      <point x="-27" y="700" type="line"/>
      <point x="-27" y="690" type="line"/>
      <point x="-13" y="690" type="line" smooth="yes"/>
      <point x="29" y="690"/>
      <point x="67" y="662"/>
      <point x="88" y="631" type="curve"/>
      <point x="329" y="628" type="line"/>
      <point x="311" y="656"/>
      <point x="335" y="690"/>
      <point x="363" y="690" type="curve" smooth="yes"/>
      <point x="363" y="690"/>
      <point x="375" y="690"/>
      <point x="375" y="690" type="curve"/>
    </contour>
    <contour>
      <point x="701" y="700" type="line"/>
      <point x="604" y="700" type="line"/>
      <point x="410" y="397" type="line"/>
      <point x="455" y="333" type="line"/>
    </contour>
    <contour>
      <point x="769" y="700" type="line"/>
      <point x="510" y="700" type="line"/>
      <point x="511" y="690" type="line"/>
      <point x="511" y="690"/>
      <point x="523" y="690"/>
      <point x="523" y="690" type="curve" smooth="yes"/>
      <point x="550" y="690"/>
      <point x="576" y="656"/>
      <point x="558" y="628" type="curve"/>
      <point x="655" y="631" type="line"/>
      <point x="677" y="662"/>
      <point x="713" y="690"/>
      <point x="755" y="690" type="curve" smooth="yes"/>
      <point x="769" y="690" type="line"/>
    </contour>
  </outline>
</glyph>
<glyph name="Y" format="2">
  <advance width="729"/>
  <unicode hex="0059"/>
  <anchor x="435.006" y="764" name="top"/>
  <outline>
    <contour>
      <point x="254" y="699" type="line"/>
      <point x="28" y="699" type="line"/>
      <point x="259" y="322" type="line"/>
      <point x="464" y="322" type="line"/>
    </contour>
    <contour>
      <point x="464" y="322" type="line"/>
      <point x="259" y="322" type="line"/>
      <point x="259" y="0" type="line"/>
      <point x="464" y="0" type="line"/>
    </contour>
    <contour>
      <point x="614" y="699" type="line"/>
      <point x="391" y="312" type="line"/>
      <point x="451" y="303" type="line"/>
      <point x="703" y="699" type="line"/>
    </contour>
    <contour>
      <point x="573" y="628" type="curve"/>
      <point x="660" y="631" type="line"/>
      <point x="680" y="662"/>
      <point x="719" y="690"/>
      <point x="761" y="690" type="curve" smooth="yes"/>
      <point x="775" y="690" type="line"/>
      <point x="775" y="700" type="line"/>
      <point x="526" y="700" type="line"/>
      <point x="526" y="690" type="line"/>
      <point x="526" y="690"/>
      <point x="538" y="690"/>
      <point x="538" y="690" type="curve" smooth="yes"/>
      <point x="565" y="690"/>
      <point x="589" y="656"/>
    </contour>
    <contour>
      <point x="294" y="628" type="line"/>
      <point x="279" y="656"/>
      <point x="299" y="690"/>
      <point x="329" y="690" type="curve" smooth="yes"/>
      <point x="329" y="690"/>
      <point x="341" y="690"/>
      <point x="341" y="690" type="curve"/>
      <point x="341" y="700" type="line"/>
      <point x="-45" y="700" type="line"/>
      <point x="-45" y="690" type="line"/>
      <point x="-31" y="690" type="line" smooth="yes"/>
      <point x="11" y="690"/>
      <point x="50" y="662"/>
      <point x="69" y="631" type="curve"/>
    </contour>
    <contour>
      <point x="262" y="73" type="line"/>
      <point x="259" y="73" type="line"/>
      <point x="258" y="38"/>
      <point x="230" y="10"/>
      <point x="195" y="10" type="curve" smooth="yes"/>
      <point x="194" y="10"/>
      <point x="182" y="10"/>
      <point x="182" y="10" type="curve"/>
      <point x="182" y="0" type="line"/>
      <point x="262" y="0" type="line"/>
    </contour>
    <contour>
      <point x="461" y="73" type="line"/>
      <point x="461" y="0" type="line"/>
      <point x="540" y="0" type="line"/>
      <point x="540" y="10" type="line"/>
      <point x="540" y="10"/>
      <point x="528" y="10"/>
      <point x="528" y="10" type="curve" smooth="yes"/>
      <point x="493" y="10"/>
      <point x="464" y="38"/>
      <point x="464" y="73" type="curve"/>
    </contour>
  </outline>
</glyph>
<glyph name="bracketleft" format="2">
  <advance width="472"/>
  <unicode hex="005B"/>
  <outline>
    <contour>
      <point x="120" y="722" type="line"/>
      <point x="120" y="-90" type="line"/>
      <point x="432.49" y="-90" type="line"/>
      <point x="432.49" y="-80" type="line"/>
      <point x="325" y="-30" type="line"/>
      <point x="325" y="662" type="line"/>
      <point x="429.183" y="712" type="line"/>
      <point x="429.183" y="722" type="line"/>
    </contour>
  </outline>
</glyph>
<glyph name="backslash" format="2">
  <advance width="439"/>
  <unicode hex="005C"/>
  <outline>
    <contour>
      <point x="69" y="723" type="line"/>
      <point x="10" y="697" type="line"/>
      <point x="371" y="-14" type="line"/>
      <point x="430" y="14" type="line"/>
    </contour>
  </outline>
</glyph>
<glyph name="bracketright" format="2">
  <advance width="472"/>
  <unicode hex="005D"/>
  <outline>
    <contour>
      <point x="352" y="722" type="line"/>
      <point x="43" y="722" type="line"/>
      <point x="43" y="712" type="line"/>
      <point x="147" y="662" type="line"/>
      <point x="147" y="-30" type="line"/>
      <point x="40" y="-80" type="line"/>
      <point x="40" y="-90" type="line"/>
      <point x="352" y="-90" type="line"/>
    </contour>
  </outline>
</glyph>
<glyph name="asciicircum" format="2">
  <advance width="572"/>
  <unicode hex="005E"/>
  <outline>
    <contour>
      <point x="35" y="171.882" type="line"/>
      <point x="253.344" y="380.636" type="line"/>
      <point x="321.394" y="380.636" type="line"/>
      <point x="537.691" y="171.882" type="line"/>
      <point x="448.946" y="171.882" type="line"/>
      <point x="287.317" y="325.13" type="line"/>
      <point x="123.881" y="171.882" type="line"/>
    </contour>
  </outline>
</glyph>
<glyph name="grave" format="2">
  <advance width="600"/>
  <unicode hex="0060"/>
  <outline>
    <contour>
      <point x="294" y="750" type="line"/>
      <point x="265" y="816"/>
      <point x="183" y="898"/>
      <point x="139" y="936" type="curve"/>
      <point x="91" y="915"/>
      <point x="67" y="882"/>
      <point x="54" y="836" type="curve"/>
      <point x="117" y="794"/>
      <point x="213" y="752"/>
      <point x="287" y="743" type="curve"/>
    </contour>
  </outline>
</glyph>
<glyph name="a" format="2">
  <advance width="632"/>
  <unicode hex="0061"/>
  <guideline x="146.325" y="600" angle="0"/>
  <guideline x="26.211" y="614" angle="0"/>
  <anchor x="578.344" y="9.972" name="ogonek"/>
  <anchor x="304.521" y="664" name="top"/>
  <outline>
    <contour>
      <point x="307.614" y="636.407" type="line" smooth="yes"/>
      <point x="222.195" y="390.617" type="line"/>
      <point x="390.539" y="5.105" type="line"/>
      <point x="617.766" y="5.105" type="line"/>
    </contour>
    <contour>
      <point x="122.541" y="60.87" type="curve"/>
      <point x="43.315" y="61.148" type="line"/>
      <point x="25.619" y="23.838"/>
      <point x="-8" y="10"/>
      <point x="-34" y="10" type="curve" smooth="yes"/>
      <point x="-34" y="10"/>
      <point x="-42" y="10"/>
      <point x="-42" y="10" type="curve"/>
      <point x="-42" y="0" type="line"/>
      <point x="164.452" y="0" type="line"/>
      <point x="164.452" y="9.908" type="line"/>
      <point x="156.649" y="9.908" type="line" smooth="yes"/>
      <point x="133.741" y="9.908"/>
      <point x="107.858" y="27.356"/>
    </contour>
    <contour>
      <point x="307.614" y="636.407" type="line"/>
      <point x="299.762" y="636.407" type="line"/>
      <point x="296.05" y="606.839"/>
      <point x="259.343" y="528.783"/>
      <point x="247.79" y="503.389" type="curve"/>
      <point x="16.155" y="2.592" type="line"/>
      <point x="97.16" y="2.592" type="line"/>
      <point x="306.836" y="482.983" type="line"/>
    </contour>
    <contour>
      <point x="375.002" y="172.492" type="line"/>
      <point x="125.565" y="172.492" type="line"/>
      <point x="125.565" y="127.097" type="line"/>
      <point x="375.002" y="127.097" type="line"/>
    </contour>
    <contour>
      <point x="366.15" y="60.87" type="line"/>
      <point x="380.852" y="27.356"/>
      <point x="355.197" y="9.911"/>
      <point x="332.288" y="9.911" type="curve" smooth="yes"/>
      <point x="324.488" y="9.911" type="line"/>
      <point x="324.488" y="0" type="line"/>
      <point x="675.622" y="0" type="line"/>
      <point x="675.622" y="10" type="line"/>
      <point x="675.622" y="10"/>
      <point x="668.201" y="10"/>
      <point x="668.201" y="10" type="curve" smooth="yes"/>
      <point x="641.007" y="10"/>
      <point x="608.91" y="23.838"/>
      <point x="590.231" y="61.148" type="curve"/>
    </contour>
  </outline>
</glyph>
<glyph name="b" format="2">
  <advance width="626"/>
  <unicode hex="0062"/>
  <outline>
    <contour>
      <point x="138.61" y="600.069" type="line" smooth="yes"/>
      <point x="138.61" y="600.069"/>
      <point x="146.525" y="556.069"/>
      <point x="146.525" y="555.079" type="curve"/>
      <point x="280.82" y="555.084" type="line"/>
      <point x="328.654" y="555.084"/>
      <point x="370.09" y="528.224"/>
      <point x="370.09" y="435.055" type="curve" smooth="yes"/>
      <point x="370.09" y="370.337"/>
      <point x="359.029" y="324.647"/>
      <point x="306.127" y="324.647" type="curve"/>
      <point x="306.115" y="316.661" type="line"/>
      <point x="371.819" y="317.71"/>
      <point x="390.107" y="261.844"/>
      <point x="390.107" y="187.37" type="curve" smooth="yes"/>
      <point x="390.107" y="81.026"/>
      <point x="334.681" y="46.038"/>
      <point x="273.033" y="46.038" type="curve"/>
      <point x="271.391" y="46.038" type="line"/>
      <point x="271.391" y="46.038"/>
      <point x="271.439" y="0"/>
      <point x="271.439" y="0" type="curve"/>
      <point x="340.589" y="0" type="line" smooth="yes"/>
      <point x="498.7" y="0"/>
      <point x="611" y="50.977"/>
      <point x="611" y="172.65" type="curve" smooth="yes"/>
      <point x="611" y="270.166"/>
      <point x="540.053" y="324.122"/>
      <point x="461.06" y="326.773" type="curve"/>
      <point x="517.095" y="326.214"/>
      <point x="570.996" y="366.185"/>
      <point x="570.996" y="450.827" type="curve" smooth="yes"/>
      <point x="570.996" y="571.342"/>
      <point x="460.439" y="600.069"/>
      <point x="333.554" y="600.069" type="curve" smooth="yes"/>
    </contour>
    <contour>
      <point x="278.343" y="600.069" type="line"/>
      <point x="85.467" y="600.069" type="line"/>
      <point x="85.467" y="0" type="line"/>
      <point x="278.343" y="0" type="line"/>
    </contour>
    <contour>
      <point x="88.482" y="62.446" type="line"/>
      <point x="85.467" y="62.446" type="line"/>
      <point x="85.503" y="32.174"/>
      <point x="62.655" y="10"/>
      <point x="33.948" y="10" type="curve" smooth="yes"/>
      <point x="32.898" y="10"/>
      <point x="25.109" y="10"/>
      <point x="23" y="10" type="curve"/>
      <point x="23.009" y="0" type="line"/>
      <point x="88.482" y="0" type="line"/>
    </contour>
    <contour>
      <point x="88.482" y="537.622" type="line"/>
      <point x="88.482" y="600.069" type="line"/>
      <point x="23.009" y="600.069" type="line"/>
      <point x="23" y="590.07" type="line"/>
      <point x="25.109" y="590.07"/>
      <point x="31.839" y="590.069"/>
      <point x="33.948" y="590.069" type="curve" smooth="yes"/>
      <point x="62.655" y="590.069"/>
      <point x="85.502" y="567.767"/>
      <point x="85.466" y="537.622" type="curve"/>
    </contour>
  </outline>
</glyph>
<glyph name="c" format="2">
  <advance width="668"/>
  <unicode hex="0063"/>
  <anchor x="388" y="-9" name="bottom"/>
  <anchor x="377" y="679" name="top"/>
  <outline>
    <contour>
      <point x="613" y="250" type="line"/>
      <point x="606" y="250" type="line"/>
      <point x="572" y="88"/>
      <point x="542" y="33"/>
      <point x="404" y="33" type="curve"/>
      <point x="290" y="38"/>
      <point x="227" y="142"/>
      <point x="227" y="304" type="curve" smooth="yes"/>
      <point x="227" y="458"/>
      <point x="284" y="567"/>
      <point x="421" y="567" type="curve" smooth="yes"/>
      <point x="504" y="567"/>
      <point x="566" y="529"/>
      <point x="602" y="406" type="curve"/>
      <point x="609" y="406" type="line"/>
      <point x="622" y="576" type="line"/>
      <point x="576" y="594"/>
      <point x="500" y="612"/>
      <point x="404" y="612" type="curve" smooth="yes"/>
      <point x="163" y="612"/>
      <point x="23" y="497"/>
      <point x="23" y="301" type="curve" smooth="yes"/>
      <point x="23" y="99"/>
      <point x="168" y="-11"/>
      <point x="404" y="-12" type="curve"/>
      <point x="541" y="-12"/>
      <point x="608" y="37"/>
      <point x="639" y="90" type="curve"/>
    </contour>
  </outline>
</glyph>
<glyph name="d" format="2">
  <advance width="741"/>
  <unicode hex="0064"/>
  <anchor x="312.5" y="325.733" name="center"/>
  <anchor x="359.29" y="664.942" name="top"/>
  <outline>
    <contour>
      <point x="359.29" y="600.071" type="curve"/>
      <point x="120.182" y="600.071" type="line"/>
      <point x="120.182" y="554.704" type="line"/>
      <point x="288.17" y="554.704"/>
      <point x="339.462" y="554.704"/>
      <point x="339.462" y="554.704" type="curve" smooth="yes"/>
      <point x="447.103" y="554.704"/>
      <point x="512.399" y="460.449"/>
      <point x="512.399" y="299.516" type="curve" smooth="yes"/>
      <point x="512.399" y="139.619"/>
      <point x="446.059" y="46.419"/>
      <point x="339.462" y="46.419" type="curve" smooth="yes"/>
      <point x="339.462" y="46.418"/>
      <point x="290.369" y="46.418"/>
      <point x="128.823" y="46.418" type="curve"/>
      <point x="130.957" y="0" type="line"/>
      <point x="359.29" y="0" type="line"/>
      <point x="585.105" y="0"/>
      <point x="717" y="109.651"/>
      <point x="717" y="299.516" type="curve" smooth="yes"/>
      <point x="717" y="489.355"/>
      <point x="585.105" y="600.071"/>
    </contour>
    <contour>
      <point x="282.767" y="600.071" type="line"/>
      <point x="86.72" y="600.071" type="line"/>
      <point x="86.72" y="0" type="line"/>
      <point x="282.767" y="0" type="line"/>
    </contour>
    <contour>
      <point x="89.926" y="64.37" type="line"/>
      <point x="86.72" y="64.37" type="line"/>
      <point x="86.704" y="34.098"/>
      <point x="60.981" y="10"/>
      <point x="30.861" y="10" type="curve" smooth="yes"/>
      <point x="29.813" y="10"/>
      <point x="19.009" y="10"/>
      <point x="19.005" y="10" type="curve"/>
      <point x="19" y="0" type="line"/>
      <point x="89.926" y="0" type="line"/>
    </contour>
    <contour>
      <point x="88.938" y="537.696" type="line"/>
      <point x="88.938" y="600.066" type="line"/>
      <point x="18.012" y="600.066" type="line"/>
      <point x="18.017" y="590.066" type="line"/>
      <point x="19.066" y="590.066"/>
      <point x="29.839" y="590.066"/>
      <point x="29.844" y="590.066" type="curve" smooth="yes"/>
      <point x="61.007" y="590.066"/>
      <point x="85.716" y="567.828"/>
      <point x="86.776" y="537.696" type="curve"/>
    </contour>
  </outline>
</glyph>
<glyph name="e" format="2">
  <advance width="575"/>
  <unicode hex="0065"/>
  <anchor x="301" y="0" name="bottom"/>
  <anchor x="487" y="5" name="ogonek"/>
  <anchor x="288" y="664" name="top"/>
  <outline>
    <contour>
      <point x="280" y="600" type="line"/>
      <point x="84" y="600" type="line"/>
      <point x="84" y="0" type="line"/>
      <point x="280" y="0" type="line"/>
    </contour>
    <contour>
      <point x="491" y="46" type="line"/>
      <point x="278" y="46" type="line"/>
      <point x="278" y="0" type="line"/>
      <point x="531" y="0" type="line"/>
    </contour>
    <contour>
      <point x="466" y="319" type="line"/>
      <point x="278" y="319" type="line"/>
      <point x="278" y="272" type="line"/>
      <point x="466" y="272" type="line"/>
    </contour>
    <contour>
      <point x="510" y="600" type="line"/>
      <point x="278" y="600" type="line"/>
      <point x="278" y="554" type="line" smooth="yes"/>
      <point x="510" y="554" type="line"/>
    </contour>
    <contour>
      <point x="561" y="210" type="line"/>
      <point x="552" y="210" type="line"/>
      <point x="527" y="106"/>
      <point x="453" y="46"/>
      <point x="376" y="46" type="curve"/>
      <point x="347" y="0" type="line"/>
      <point x="533" y="0" type="line"/>
    </contour>
    <contour>
      <point x="466" y="274" type="line"/>
      <point x="357" y="274" type="line"/>
      <point x="357" y="272" type="line"/>
      <point x="416" y="271"/>
      <point x="456" y="228"/>
      <point x="456" y="170" type="curve" smooth="yes"/>
      <point x="456" y="166" type="line"/>
      <point x="466" y="166" type="line"/>
    </contour>
    <contour>
      <point x="466" y="424" type="line"/>
      <point x="456" y="424" type="line"/>
      <point x="456" y="422" type="line" smooth="yes"/>
      <point x="456" y="363"/>
      <point x="416" y="320"/>
      <point x="357" y="319" type="curve"/>
      <point x="357" y="317" type="line"/>
      <point x="466" y="317" type="line"/>
    </contour>
    <contour>
      <point x="510" y="556" type="line"/>
      <point x="383" y="556" type="line"/>
      <point x="383" y="554" type="line"/>
      <point x="459" y="552"/>
      <point x="500" y="508"/>
      <point x="500" y="431" type="curve" smooth="yes"/>
      <point x="500" y="426" type="line"/>
      <point x="510" y="426" type="line"/>
    </contour>
    <contour>
      <point x="510" y="615" type="line"/>
      <point x="495" y="609"/>
      <point x="447" y="600"/>
      <point x="411" y="600" type="curve"/>
      <point x="510" y="591" type="line"/>
    </contour>
    <contour>
      <point x="87" y="62" type="line"/>
      <point x="84" y="62" type="line"/>
      <point x="84" y="32"/>
      <point x="60" y="10"/>
      <point x="32" y="10" type="curve" smooth="yes"/>
      <point x="31" y="10"/>
      <point x="21.001" y="10"/>
      <point x="21" y="10" type="curve"/>
      <point x="21" y="0" type="line"/>
      <point x="86" y="0" type="line"/>
    </contour>
    <contour>
      <point x="87" y="537" type="line"/>
      <point x="86" y="600" type="line"/>
      <point x="21" y="600" type="line"/>
      <point x="21" y="590" type="line"/>
      <point x="21" y="590"/>
      <point x="31" y="590"/>
      <point x="32" y="590" type="curve" smooth="yes"/>
      <point x="60" y="590"/>
      <point x="84" y="568"/>
      <point x="84" y="537" type="curve"/>
    </contour>
  </outline>
</glyph>
<glyph name="f" format="2">
  <advance width="542"/>
  <unicode hex="0066"/>
  <outline>
    <contour>
      <point x="280" y="600" type="line"/>
      <point x="84" y="600" type="line"/>
      <point x="84" y="0" type="line"/>
      <point x="280" y="0" type="line"/>
    </contour>
    <contour>
      <point x="466" y="319" type="line"/>
      <point x="278" y="319" type="line"/>
      <point x="278" y="272" type="line"/>
      <point x="466" y="272" type="line"/>
    </contour>
    <contour>
      <point x="510" y="600" type="line"/>
      <point x="278" y="600" type="line"/>
      <point x="278" y="554" type="line" smooth="yes"/>
      <point x="510" y="554" type="line"/>
    </contour>
    <contour>
      <point x="466" y="274" type="line"/>
      <point x="356" y="274" type="line"/>
      <point x="356" y="272" type="line"/>
      <point x="416" y="271"/>
      <point x="456" y="228"/>
      <point x="456" y="170" type="curve" smooth="yes"/>
      <point x="456" y="166" type="line"/>
      <point x="466" y="166" type="line"/>
    </contour>
    <contour>
      <point x="466" y="424" type="line"/>
      <point x="456" y="424" type="line"/>
      <point x="456" y="422" type="line" smooth="yes"/>
      <point x="456" y="363"/>
      <point x="416" y="320"/>
      <point x="356" y="319" type="curve"/>
      <point x="356" y="317" type="line"/>
      <point x="466" y="317" type="line"/>
    </contour>
    <contour>
      <point x="510" y="557" type="line"/>
      <point x="381" y="557" type="line"/>
      <point x="381" y="554" type="line"/>
      <point x="458" y="552"/>
      <point x="500" y="507"/>
      <point x="500" y="430" type="curve" smooth="yes"/>
      <point x="500" y="424" type="line"/>
      <point x="510" y="424" type="line"/>
    </contour>
    <contour>
      <point x="510" y="615" type="line"/>
      <point x="495" y="609"/>
      <point x="446" y="600"/>
      <point x="411" y="600" type="curve"/>
      <point x="510" y="591" type="line"/>
    </contour>
    <contour>
      <point x="87" y="62" type="line"/>
      <point x="84" y="62" type="line"/>
      <point x="84" y="32"/>
      <point x="60" y="10"/>
      <point x="32" y="10" type="curve" smooth="yes"/>
      <point x="31" y="10"/>
      <point x="21.002" y="10"/>
      <point x="21" y="10" type="curve"/>
      <point x="21" y="0" type="line"/>
      <point x="86" y="0" type="line"/>
    </contour>
    <contour>
      <point x="87" y="537" type="line"/>
      <point x="86" y="600" type="line"/>
      <point x="21" y="600" type="line"/>
      <point x="21" y="590" type="line"/>
      <point x="21" y="590"/>
      <point x="31" y="590"/>
      <point x="32" y="590" type="curve" smooth="yes"/>
      <point x="60" y="590"/>
      <point x="84" y="568"/>
      <point x="84" y="537" type="curve"/>
    </contour>
    <contour>
      <point x="278" y="62" type="line"/>
      <point x="279" y="0" type="line"/>
      <point x="343" y="0" type="line"/>
      <point x="344" y="10" type="line"/>
      <point x="342" y="10"/>
      <point x="333" y="10"/>
      <point x="333" y="10" type="curve" smooth="yes"/>
      <point x="304" y="10"/>
      <point x="281" y="32"/>
      <point x="280" y="62" type="curve"/>
    </contour>
  </outline>
</glyph>
<glyph name="g" format="2">
  <advance width="723"/>
  <unicode hex="0067"/>
  <anchor x="370.88" y="-64" name="bottom"/>
  <anchor x="364.997" y="675.93" name="top"/>
  <outline>
    <contour>
      <point x="364.997" y="611.93" type="curve"/>
      <point x="148.607" y="611.93"/>
      <point x="24" y="496.204"/>
      <point x="24" y="301.599" type="curve" smooth="yes"/>
      <point x="24" y="103.696"/>
      <point x="153.683" y="-12"/>
      <point x="355" y="-12" type="curve" smooth="yes"/>
      <point x="496.208" y="-12"/>
      <point x="625.19" y="45.718"/>
      <point x="664.403" y="97.705" type="curve"/>
      <point x="665.478" y="240.32" type="line"/>
      <point x="664.41" y="265.501"/>
      <point x="679.575" y="279.622"/>
      <point x="706.895" y="279.622" type="curve" smooth="yes"/>
      <point x="719" y="279.624" type="line"/>
      <point x="719" y="287.555" type="line"/>
      <point x="413.729" y="287.556" type="line"/>
      <point x="413.729" y="279.624" type="line"/>
      <point x="427.948" y="279.622" type="line" smooth="yes"/>
      <point x="454.195" y="279.62"/>
      <point x="470.366" y="265.506"/>
      <point x="470.385" y="240.294" type="curve" smooth="yes"/>
      <point x="469.406" y="127.67" type="line"/>
      <point x="479.465" y="66.124"/>
      <point x="426.786" y="33.333"/>
      <point x="376.797" y="33.333" type="curve" smooth="yes"/>
      <point x="272.843" y="33.333"/>
      <point x="228.249" y="131.533"/>
      <point x="228.249" y="291.892" type="curve" smooth="yes"/>
      <point x="228.249" y="468.376"/>
      <point x="283.616" y="566.558"/>
      <point x="415.542" y="566.558" type="curve" smooth="yes"/>
      <point x="482.679" y="566.558"/>
      <point x="564.086" y="539.106"/>
      <point x="601.085" y="405.951" type="curve"/>
      <point x="608.1" y="405.954" type="line"/>
      <point x="622.261" y="576.236" type="line"/>
      <point x="573.508" y="594.943"/>
      <point x="457.445" y="611.93"/>
    </contour>
  </outline>
</glyph>
<glyph name="i" format="2">
  <advance width="363"/>
  <unicode hex="0069"/>
  <anchor x="180" y="665" name="top"/>
  <outline>
    <contour>
      <point x="279" y="600" type="line"/>
      <point x="83" y="600" type="line"/>
      <point x="83" y="0" type="line"/>
      <point x="279" y="0" type="line"/>
    </contour>
    <contour>
      <point x="86" y="62" type="line"/>
      <point x="83" y="62" type="line"/>
      <point x="83" y="32"/>
      <point x="59" y="10"/>
      <point x="32" y="10" type="curve" smooth="yes"/>
      <point x="31" y="10"/>
      <point x="21.002" y="10"/>
      <point x="21" y="10" type="curve"/>
      <point x="21" y="0" type="line"/>
      <point x="86" y="0" type="line"/>
    </contour>
    <contour>
      <point x="277" y="62" type="line"/>
      <point x="277" y="0" type="line"/>
      <point x="342" y="0" type="line"/>
      <point x="341.998" y="10" type="line"/>
      <point x="341" y="10"/>
      <point x="331" y="10"/>
      <point x="331" y="10" type="curve" smooth="yes"/>
      <point x="303" y="10"/>
      <point x="280" y="32"/>
      <point x="279" y="62" type="curve"/>
    </contour>
    <contour>
      <point x="277" y="538" type="line"/>
      <point x="279" y="538" type="line"/>
      <point x="280" y="568"/>
      <point x="303" y="590"/>
      <point x="331" y="590" type="curve" smooth="yes"/>
      <point x="332" y="590"/>
      <point x="341" y="590"/>
      <point x="341" y="590" type="curve"/>
      <point x="341" y="600" type="line"/>
      <point x="277" y="600" type="line"/>
    </contour>
    <contour>
      <point x="86" y="538" type="line"/>
      <point x="86" y="600" type="line"/>
      <point x="21" y="600" type="line"/>
      <point x="21" y="590" type="line"/>
      <point x="21" y="590"/>
      <point x="31" y="590"/>
      <point x="32" y="590" type="curve" smooth="yes"/>
      <point x="59" y="590"/>
      <point x="83" y="568"/>
      <point x="83" y="538" type="curve"/>
    </contour>
  </outline>
</glyph>
<glyph name="j" format="2">
  <advance width="361"/>
  <unicode hex="006A"/>
  <outline>
    <contour>
      <point x="276" y="600" type="line"/>
      <point x="80" y="600" type="line" smooth="yes"/>
      <point x="80" y="54" type="line" smooth="yes"/>
      <point x="80" y="-31"/>
      <point x="72" y="-122"/>
      <point x="-13" y="-163" type="curve"/>
      <point x="-13" y="-172" type="line"/>
      <point x="131" y="-192"/>
      <point x="276" y="-105"/>
      <point x="276" y="51" type="curve" smooth="yes"/>
    </contour>
    <contour>
      <point x="83" y="600" type="line"/>
      <point x="15" y="600" type="line"/>
      <point x="16" y="590" type="line"/>
      <point x="26" y="590" type="line" smooth="yes"/>
      <point x="56" y="590"/>
      <point x="80" y="566"/>
      <point x="80" y="535" type="curve"/>
      <point x="83" y="535" type="line"/>
    </contour>
    <contour>
      <point x="341" y="600" type="line"/>
      <point x="274" y="600" type="line"/>
      <point x="274" y="535" type="line"/>
      <point x="276" y="535" type="line"/>
      <point x="277" y="566"/>
      <point x="301" y="590"/>
      <point x="330" y="590" type="curve" smooth="yes"/>
      <point x="341" y="590" type="line"/>
    </contour>
  </outline>
</glyph>
<glyph name="k" format="2">
  <advance width="705"/>
  <unicode hex="006B"/>
  <anchor x="386.469" y="-64.564" name="bottom"/>
  <outline>
    <contour>
      <point x="447.259" y="404.833" type="line"/>
      <point x="307.093" y="268.516" type="line"/>
      <point x="307.014" y="266.319"/>
      <point x="372.632" y="133.219"/>
      <point x="404" y="90" type="curve" smooth="yes"/>
      <point x="474.459" y="-7"/>
      <point x="612.284" y="0.127"/>
      <point x="635.203" y="0.11" type="curve" smooth="yes"/>
      <point x="737.68" y="0" type="line"/>
      <point x="737.68" y="8.428" type="line"/>
      <point x="705.156" y="9.294"/>
      <point x="674.755" y="33.027"/>
      <point x="646.78" y="77.629" type="curve" smooth="yes"/>
    </contour>
    <contour>
      <point x="622.681" y="593.557" type="line"/>
      <point x="536.084" y="593.557" type="line"/>
      <point x="307.093" y="268.516" type="line"/>
      <point x="371.571" y="278.592" type="line"/>
    </contour>
    <contour>
      <point x="682.713" y="600.514" type="line"/>
      <point x="679.073" y="600.514" type="line"/>
      <point x="478.593" y="600.514" type="line"/>
      <point x="478.593" y="591.957" type="line"/>
      <point x="486.624" y="591.965" type="line"/>
      <point x="510.035" y="591.965"/>
      <point x="520.148" y="571.507"/>
      <point x="506.4" y="551.968" type="curve"/>
      <point x="587.697" y="550.319" type="line"/>
      <point x="609.115" y="575.487"/>
      <point x="642.382" y="591.646"/>
      <point x="679.073" y="591.746" type="curve" smooth="yes"/>
      <point x="682.713" y="591.746" type="line"/>
    </contour>
    <contour>
      <point x="281.587" y="600.514" type="line"/>
      <point x="85.891" y="600.514" type="line"/>
      <point x="85.891" y="0" type="line"/>
      <point x="281.587" y="0" type="line"/>
    </contour>
    <contour>
      <point x="88.3" y="62.437" type="line"/>
      <point x="85.882" y="62.437" type="line"/>
      <point x="85.337" y="32.474"/>
      <point x="61.816" y="10"/>
      <point x="32.726" y="10" type="curve" smooth="yes"/>
      <point x="29.906" y="10"/>
      <point x="22.993" y="10"/>
      <point x="22.993" y="10" type="curve"/>
      <point x="22.993" y="0" type="line"/>
      <point x="88.3" y="0" type="line"/>
    </contour>
    <contour>
      <point x="279.175" y="62.437" type="line"/>
      <point x="279.175" y="0" type="line"/>
      <point x="344.591" y="0" type="line"/>
      <point x="344.591" y="10" type="line"/>
      <point x="344.591" y="10"/>
      <point x="338.168" y="10"/>
      <point x="335.107" y="10" type="curve" smooth="yes"/>
      <point x="305.993" y="10"/>
      <point x="282.138" y="32.474"/>
      <point x="281.593" y="62.437" type="curve"/>
    </contour>
    <contour>
      <point x="279.166" y="538.149" type="line"/>
      <point x="281.584" y="538.149" type="line"/>
      <point x="282.128" y="568.11"/>
      <point x="306.022" y="590.585"/>
      <point x="335.111" y="590.585" type="curve" smooth="yes"/>
      <point x="337.172" y="590.585"/>
      <point x="343.714" y="590.616"/>
      <point x="345.332" y="590.688" type="curve"/>
      <point x="345.467" y="600.585" type="line"/>
      <point x="279.166" y="600.585" type="line"/>
    </contour>
    <contour>
      <point x="88.324" y="538.149" type="line"/>
      <point x="88.324" y="600.585" type="line"/>
      <point x="22.023" y="600.585" type="line"/>
      <point x="22.158" y="590.688" type="line"/>
      <point x="23.995" y="590.616"/>
      <point x="30.711" y="590.585"/>
      <point x="32.73" y="590.585" type="curve" smooth="yes"/>
      <point x="61.643" y="590.585"/>
      <point x="85.361" y="568.11"/>
      <point x="85.907" y="538.149" type="curve"/>
    </contour>
  </outline>
</glyph>
<glyph name="l" format="2">
  <advance width="557"/>
  <unicode hex="006C"/>
  <anchor x="277" y="0" name="bottom"/>
  <anchor x="186" y="664" name="top"/>
  <anchor x="454" y="500" name="topright"/>
  <outline>
    <contour>
      <point x="280" y="600" type="line"/>
      <point x="84" y="600" type="line"/>
      <point x="84" y="0" type="line"/>
      <point x="280" y="0" type="line"/>
    </contour>
    <contour>
      <point x="490" y="46" type="line"/>
      <point x="278" y="46" type="line"/>
      <point x="278" y="0" type="line"/>
      <point x="531" y="0" type="line"/>
    </contour>
    <contour>
      <point x="562" y="210" type="line"/>
      <point x="552" y="210" type="line"/>
      <point x="527" y="106"/>
      <point x="453" y="46"/>
      <point x="376" y="46" type="curve"/>
      <point x="347" y="0" type="line"/>
      <point x="533" y="0" type="line"/>
    </contour>
    <contour>
      <point x="87" y="62" type="line"/>
      <point x="84" y="62" type="line"/>
      <point x="84" y="32"/>
      <point x="60" y="10"/>
      <point x="32" y="10" type="curve" smooth="yes"/>
      <point x="31" y="10"/>
      <point x="21.002" y="10"/>
      <point x="21" y="10" type="curve"/>
      <point x="21" y="0" type="line"/>
      <point x="86" y="0" type="line"/>
    </contour>
    <contour>
      <point x="278" y="538" type="line"/>
      <point x="280" y="538" type="line"/>
      <point x="281" y="568"/>
      <point x="304" y="590"/>
      <point x="333" y="590" type="curve" smooth="yes"/>
      <point x="333" y="590"/>
      <point x="343" y="590"/>
      <point x="344" y="590" type="curve"/>
      <point x="344" y="600" type="line"/>
      <point x="278" y="600" type="line"/>
    </contour>
    <contour>
      <point x="87" y="538" type="line"/>
      <point x="87" y="600" type="line"/>
      <point x="21" y="600" type="line"/>
      <point x="21" y="590" type="line"/>
      <point x="21" y="590"/>
      <point x="31" y="590"/>
      <point x="32" y="590" type="curve" smooth="yes"/>
      <point x="60" y="590"/>
      <point x="84" y="568"/>
      <point x="84" y="538" type="curve"/>
    </contour>
  </outline>
</glyph>
<glyph name="m" format="2">
  <advance width="854"/>
  <unicode hex="006D"/>
  <outline>
    <contour>
      <point x="709.428" y="611.951" type="line"/>
      <point x="325.115" y="72.089" type="line"/>
      <point x="379.995" y="-22" type="line"/>
      <point x="388.314" y="-22" type="line"/>
      <point x="385.022" y="25.057"/>
      <point x="424.826" y="79.071"/>
      <point x="424.826" y="79.071" type="curve"/>
      <point x="716.7" y="484.882" type="line"/>
    </contour>
    <contour>
      <point x="76.168" y="62.226" type="line"/>
      <point x="58.48" y="62.226" type="line"/>
      <point x="53.259" y="28.047"/>
      <point x="26.195" y="10"/>
      <point x="-6" y="10" type="curve" smooth="yes"/>
      <point x="-6" y="10"/>
      <point x="-18" y="10"/>
      <point x="-19" y="10" type="curve"/>
      <point x="-19" y="0" type="line"/>
      <point x="76.168" y="0" type="line"/>
    </contour>
    <contour>
      <point x="128.135" y="48.142" type="curve"/>
      <point x="122.945" y="48.142" type="line"/>
      <point x="112.945" y="0" type="line"/>
      <point x="174.993" y="0" type="line"/>
      <point x="174.993" y="10" type="line"/>
      <point x="161.455" y="10" type="line" smooth="yes"/>
      <point x="135.299" y="10"/>
      <point x="127.156" y="37.326"/>
    </contour>
    <contour>
      <point x="136.229" y="611.93" type="line"/>
      <point x="49.681" y="0" type="line"/>
      <point x="121.916" y="0" type="line"/>
      <point x="185.551" y="492.027" type="line"/>
      <point x="143.487" y="611.93" type="line"/>
    </contour>
    <contour>
      <point x="143.487" y="611.93" type="line"/>
      <point x="116.243" y="306.84" type="line"/>
      <point x="379.995" y="-22" type="line"/>
      <point x="454.868" y="221.257" type="line"/>
    </contour>
    <contour>
      <point x="717.751" y="611.951" type="line"/>
      <point x="709.428" y="611.951" type="line"/>
      <point x="562.798" y="274.549" type="line"/>
      <point x="603.08" y="0" type="line"/>
      <point x="806.373" y="0" type="line"/>
    </contour>
    <contour>
      <point x="778.245" y="62.226" type="line"/>
      <point x="778.245" y="0" type="line"/>
      <point x="872.997" y="0" type="line"/>
      <point x="872.997" y="10" type="line"/>
      <point x="872.999" y="10"/>
      <point x="859.462" y="10"/>
      <point x="859.464" y="10" type="curve" smooth="yes"/>
      <point x="829.278" y="10"/>
      <point x="803.274" y="28.047"/>
      <point x="796.994" y="62.226" type="curve"/>
    </contour>
    <contour>
      <point x="596.046" y="48.142" type="line"/>
      <point x="597.399" y="36.311"/>
      <point x="590.806" y="9.995"/>
      <point x="562.726" y="10" type="curve" smooth="yes"/>
      <point x="549.187" y="10" type="line"/>
      <point x="549.187" y="0" type="line"/>
      <point x="611.236" y="0" type="line"/>
      <point x="601.236" y="48.142" type="line"/>
    </contour>
  </outline>
</glyph>
<glyph name="n" format="2">
  <advance width="779"/>
  <unicode hex="006E"/>
  <anchor x="460" y="-65" name="bottom"/>
  <anchor x="362" y="664" name="top"/>
  <outline>
    <contour>
      <point x="80" y="613" type="line"/>
      <point x="91" y="498" type="line"/>
      <point x="699" y="-12" type="line"/>
      <point x="688" y="101" type="line"/>
    </contour>
    <contour>
      <point x="86" y="60" type="line"/>
      <point x="83" y="60" type="line"/>
      <point x="83" y="31"/>
      <point x="58" y="10"/>
      <point x="28" y="10" type="curve" smooth="yes"/>
      <point x="28" y="10"/>
      <point x="12.007" y="10"/>
      <point x="12.004" y="10" type="curve"/>
      <point x="12" y="0" type="line"/>
      <point x="86" y="0" type="line"/>
    </contour>
    <contour>
      <point x="279" y="60" type="curve"/>
      <point x="277" y="60" type="line"/>
      <point x="277" y="0" type="line"/>
      <point x="350" y="0" type="line"/>
      <point x="350" y="10" type="line"/>
      <point x="350" y="10"/>
      <point x="334" y="10"/>
      <point x="334" y="10" type="curve" smooth="yes"/>
      <point x="304" y="10"/>
      <point x="280" y="31"/>
    </contour>
    <contour>
      <point x="80" y="613" type="line"/>
      <point x="71" y="613" type="line"/>
      <point x="71" y="613"/>
      <point x="83" y="575"/>
      <point x="83" y="507" type="curve" smooth="yes"/>
      <point x="83" y="0" type="line"/>
      <point x="279" y="0" type="line"/>
      <point x="279" y="402" type="line"/>
    </contour>
    <contour>
      <point x="696" y="600" type="line"/>
      <point x="499" y="600" type="line"/>
      <point x="500" y="216" type="line"/>
      <point x="699" y="-12" type="line"/>
      <point x="708" y="-12" type="line" smooth="yes"/>
      <point x="708" y="-12"/>
      <point x="696" y="24"/>
      <point x="696" y="97" type="curve" smooth="yes"/>
    </contour>
    <contour>
      <point x="694" y="540" type="line"/>
      <point x="696" y="540" type="line"/>
      <point x="697" y="569"/>
      <point x="721" y="590"/>
      <point x="751" y="590" type="curve" smooth="yes"/>
      <point x="751" y="590"/>
      <point x="768" y="590"/>
      <point x="768" y="590" type="curve"/>
      <point x="768" y="600" type="line"/>
      <point x="694" y="600" type="line"/>
    </contour>
    <contour>
      <point x="499" y="540" type="curve"/>
      <point x="502" y="540" type="line"/>
      <point x="502" y="600" type="line"/>
      <point x="428" y="600" type="line"/>
      <point x="428" y="590" type="line"/>
      <point x="428" y="590"/>
      <point x="445" y="590"/>
      <point x="445" y="590" type="curve" smooth="yes"/>
      <point x="475" y="590"/>
      <point x="499" y="569"/>
    </contour>
  </outline>
</glyph>
<glyph name="o" format="2">
  <advance width="779"/>
  <unicode hex="006F"/>
  <anchor x="390" y="665" name="top"/>
  <outline>
    <contour>
      <point x="389" y="612" type="curve" smooth="yes"/>
      <point x="161" y="612"/>
      <point x="25" y="498"/>
      <point x="25" y="299" type="curve" smooth="yes"/>
      <point x="25" y="102"/>
      <point x="161" y="-12"/>
      <point x="389" y="-12" type="curve" smooth="yes"/>
      <point x="618" y="-12"/>
      <point x="754" y="102"/>
      <point x="754" y="299" type="curve" smooth="yes"/>
      <point x="754" y="498"/>
      <point x="618" y="612"/>
    </contour>
    <contour>
      <point x="389" y="33" type="curve" smooth="yes"/>
      <point x="285" y="33"/>
      <point x="229" y="131"/>
      <point x="229" y="299" type="curve" smooth="yes"/>
      <point x="229" y="469"/>
      <point x="285" y="567"/>
      <point x="389" y="567" type="curve" smooth="yes"/>
      <point x="494" y="567"/>
      <point x="549" y="469"/>
      <point x="549" y="299" type="curve" smooth="yes"/>
      <point x="549" y="131"/>
      <point x="494" y="33"/>
    </contour>
  </outline>
</glyph>
<glyph name="p" format="2">
  <advance width="607"/>
  <unicode hex="0070"/>
  <outline>
    <contour>
      <point x="270.138" y="600.07" type="line" smooth="yes"/>
      <point x="270.138" y="600.07"/>
      <point x="277.781" y="554.699"/>
      <point x="277.781" y="554.699" type="curve"/>
      <point x="292.232" y="554.699" type="line"/>
      <point x="350.233" y="554.699"/>
      <point x="384.376" y="510.683"/>
      <point x="388" y="443" type="curve" smooth="yes"/>
      <point x="388.746" y="429.076"/>
      <point x="386.649" y="409.484"/>
      <point x="383" y="391" type="curve" smooth="yes"/>
      <point x="365.285" y="298.525"/>
      <point x="307.096" y="289.83"/>
      <point x="307.096" y="289.83" type="curve"/>
      <point x="307.096" y="281.857" type="line"/>
      <point x="435.42" y="179.679"/>
      <point x="602.801" y="274.933"/>
      <point x="592" y="438" type="curve" smooth="yes"/>
      <point x="586.416" y="522.305"/>
      <point x="531.053" y="600.07"/>
      <point x="357.379" y="600.07" type="curve" smooth="yes"/>
    </contour>
    <contour>
      <point x="279.808" y="600.07" type="line"/>
      <point x="83.607" y="600.07" type="line"/>
      <point x="83.607" y="0" type="line"/>
      <point x="279.808" y="0" type="line"/>
    </contour>
    <contour>
      <point x="86.608" y="62.412" type="line"/>
      <point x="83.604" y="62.412" type="line"/>
      <point x="83.666" y="32.141"/>
      <point x="61.018" y="9.92"/>
      <point x="32.631" y="9.92" type="curve" smooth="yes"/>
      <point x="30.462" y="9.92"/>
      <point x="24.162" y="9.92"/>
      <point x="21.994" y="9.92" type="curve"/>
      <point x="22.012" y="0" type="line"/>
      <point x="85.407" y="0" type="line"/>
    </contour>
    <contour>
      <point x="85.543" y="537.562" type="line"/>
      <point x="84.343" y="600.07" type="line"/>
      <point x="20.947" y="600.07" type="line"/>
      <point x="20.929" y="590.07" type="line"/>
      <point x="24.189" y="590.07"/>
      <point x="29.398" y="590.07"/>
      <point x="31.566" y="590.07" type="curve" smooth="yes"/>
      <point x="59.953" y="590.07"/>
      <point x="83.601" y="567.833"/>
      <point x="83.632" y="537.562" type="curve"/>
    </contour>
    <contour>
      <point x="277.899" y="62.412" type="line"/>
      <point x="279.099" y="0" type="line"/>
      <point x="342.494" y="0" type="line"/>
      <point x="342.512" y="10" type="line"/>
      <point x="340.344" y="10"/>
      <point x="334.263" y="10"/>
      <point x="332" y="10" type="curve" smooth="yes"/>
      <point x="301.453" y="10"/>
      <point x="280.841" y="32.141"/>
      <point x="279.81" y="62.412" type="curve"/>
    </contour>
  </outline>
</glyph>
<glyph name="q" format="2">
  <advance width="760"/>
  <unicode hex="0071"/>
  <outline>
    <contour>
      <point x="379" y="612" type="curve" smooth="yes"/>
      <point x="156" y="612"/>
      <point x="25" y="498"/>
      <point x="25" y="299" type="curve" smooth="yes"/>
      <point x="25" y="102"/>
      <point x="156" y="-12"/>
      <point x="379" y="-12" type="curve" smooth="yes"/>
      <point x="603" y="-12"/>
      <point x="734" y="102"/>
      <point x="734" y="299" type="curve" smooth="yes"/>
      <point x="734" y="498"/>
      <point x="603" y="612"/>
    </contour>
    <contour>
      <point x="379" y="33" type="curve" smooth="yes"/>
      <point x="280" y="33"/>
      <point x="230" y="131"/>
      <point x="230" y="299" type="curve" smooth="yes"/>
      <point x="230" y="469"/>
      <point x="280" y="567"/>
      <point x="379" y="567" type="curve" smooth="yes"/>
      <point x="479" y="567"/>
      <point x="529" y="469"/>
      <point x="529" y="299" type="curve" smooth="yes"/>
      <point x="529" y="131"/>
      <point x="479" y="33"/>
    </contour>
    <contour>
      <point x="378" y="-12" type="line"/>
      <point x="477" y="-11"/>
      <point x="534" y="-113"/>
      <point x="677" y="-196" type="curve" smooth="yes"/>
      <point x="935" y="-346"/>
      <point x="1149" y="-264"/>
      <point x="1144" y="-54" type="curve"/>
      <point x="1138" y="-51" type="line"/>
      <point x="1057" y="-108"/>
      <point x="949" y="-121"/>
      <point x="774" y="-56" type="curve" smooth="yes"/>
      <point x="597" y="9"/>
      <point x="593" y="11"/>
      <point x="321" y="34" type="curve"/>
    </contour>
  </outline>
</glyph>
<glyph name="r" format="2">
  <advance width="678"/>
  <unicode hex="0072"/>
  <anchor x="421" y="-65" name="bottom"/>
  <anchor x="335" y="664" name="top"/>
  <outline>
    <contour>
      <point x="283" y="600" type="line" smooth="yes"/>
      <point x="283" y="600"/>
      <point x="288" y="552"/>
      <point x="290" y="552" type="curve" smooth="yes"/>
      <point x="309" y="552"/>
      <point x="308" y="552"/>
      <point x="311" y="552" type="curve" smooth="yes"/>
      <point x="316" y="552"/>
      <point x="394" y="557"/>
      <point x="400" y="443" type="curve" smooth="yes"/>
      <point x="401" y="425"/>
      <point x="399" y="415"/>
      <point x="399" y="411" type="curve" smooth="yes"/>
      <point x="390" y="327"/>
      <point x="355" y="302"/>
      <point x="323" y="302" type="curve" smooth="yes"/>
      <point x="320" y="302"/>
      <point x="319" y="302"/>
      <point x="318" y="302" type="curve"/>
      <point x="318" y="294" type="line"/>
      <point x="323" y="292"/>
      <point x="341" y="284"/>
      <point x="351" y="237" type="curve" smooth="yes"/>
      <point x="361" y="188"/>
      <point x="369" y="151"/>
      <point x="398" y="101" type="curve" smooth="yes"/>
      <point x="456" y="2"/>
      <point x="512" y="0"/>
      <point x="619" y="0" type="curve" smooth="yes"/>
      <point x="737" y="0" type="line"/>
      <point x="737" y="10" type="line"/>
      <point x="705" y="10"/>
      <point x="686" y="15"/>
      <point x="648" y="73" type="curve" smooth="yes"/>
      <point x="617" y="120"/>
      <point x="599" y="161"/>
      <point x="585" y="186" type="curve" smooth="yes"/>
      <point x="568" y="217"/>
      <point x="527" y="262"/>
      <point x="476" y="275" type="curve"/>
      <point x="580" y="293"/>
      <point x="604" y="374"/>
      <point x="604" y="435" type="curve" smooth="yes"/>
      <point x="604" y="575"/>
      <point x="477" y="600"/>
      <point x="376" y="600" type="curve" smooth="yes"/>
    </contour>
    <contour>
      <point x="291" y="600" type="line"/>
      <point x="94" y="600" type="line"/>
      <point x="94" y="0" type="line"/>
      <point x="291" y="0" type="line"/>
    </contour>
    <contour>
      <point x="97" y="62" type="line"/>
      <point x="94" y="62" type="line"/>
      <point x="94" y="32"/>
      <point x="70" y="10"/>
      <point x="43" y="10" type="curve" smooth="yes"/>
      <point x="38" y="10"/>
      <point x="35" y="10"/>
      <point x="32" y="10" type="curve"/>
      <point x="32" y="0" type="line"/>
      <point x="96" y="0" type="line"/>
    </contour>
    <contour>
      <point x="97" y="538" type="line"/>
      <point x="96" y="600" type="line"/>
      <point x="32" y="600" type="line"/>
      <point x="32" y="590" type="line"/>
      <point x="34" y="590"/>
      <point x="38" y="590"/>
      <point x="44" y="590" type="curve" smooth="yes"/>
      <point x="71" y="590"/>
      <point x="94" y="568"/>
      <point x="94" y="538" type="curve"/>
    </contour>
    <contour>
      <point x="289" y="62" type="line"/>
      <point x="290" y="0" type="line"/>
      <point x="353" y="0" type="line"/>
      <point x="353" y="10" type="line"/>
      <point x="349" y="10"/>
      <point x="344" y="10"/>
      <point x="344" y="10" type="curve" smooth="yes"/>
      <point x="321" y="10"/>
      <point x="291" y="27"/>
      <point x="291" y="62" type="curve"/>
    </contour>
  </outline>
</glyph>
<glyph name="s" format="2">
  <advance width="549"/>
  <unicode hex="0073"/>
  <anchor x="281" y="0" name="bottom"/>
  <anchor x="287" y="664" name="top"/>
  <outline>
    <contour>
      <point x="241" y="612" type="curve" smooth="yes"/>
      <point x="134" y="612"/>
      <point x="66" y="561"/>
      <point x="51" y="457" type="curve" smooth="yes"/>
      <point x="38" y="367"/>
      <point x="80" y="294"/>
      <point x="166" y="258" type="curve" smooth="yes"/>
      <point x="271" y="209" type="line" smooth="yes"/>
      <point x="342" y="178"/>
      <point x="371" y="149"/>
      <point x="371" y="112" type="curve" smooth="yes"/>
      <point x="371" y="73"/>
      <point x="341" y="33"/>
      <point x="266" y="34" type="curve" smooth="yes"/>
      <point x="147" y="35"/>
      <point x="81" y="125"/>
      <point x="85" y="216" type="curve"/>
      <point x="79" y="216" type="line"/>
      <point x="48" y="178"/>
      <point x="27" y="91"/>
      <point x="49" y="45" type="curve"/>
      <point x="72" y="15"/>
      <point x="137" y="-12"/>
      <point x="241" y="-12" type="curve" smooth="yes"/>
      <point x="406" y="-12"/>
      <point x="503" y="53"/>
      <point x="513" y="182" type="curve" smooth="yes"/>
      <point x="521" y="274"/>
      <point x="474" y="331"/>
      <point x="407" y="360" type="curve" smooth="yes"/>
      <point x="278" y="419" type="line" smooth="yes"/>
      <point x="235" y="437"/>
      <point x="191" y="454"/>
      <point x="196" y="499" type="curve" smooth="yes"/>
      <point x="201" y="540"/>
      <point x="236" y="565"/>
      <point x="299" y="565" type="curve" smooth="yes"/>
      <point x="379" y="565"/>
      <point x="429" y="521"/>
      <point x="429" y="457" type="curve"/>
      <point x="435" y="457" type="line"/>
      <point x="457" y="593" type="line"/>
      <point x="441" y="602"/>
      <point x="282" y="612"/>
    </contour>
    <contour>
      <point x="459" y="603" type="line"/>
      <point x="326" y="603" type="line" smooth="yes"/>
      <point x="326" y="586" type="line"/>
      <point x="456" y="586" type="line"/>
    </contour>
  </outline>
</glyph>
<glyph name="u" format="2">
  <advance width="708"/>
  <unicode hex="0075"/>
  <anchor x="387" y="-4" name="ogonek"/>
  <anchor x="398" y="664" name="top"/>
  <outline>
    <contour>
      <point x="272" y="600" type="line" smooth="yes"/>
      <point x="76" y="600" type="line"/>
      <point x="76" y="221" type="line" smooth="yes"/>
      <point x="76" y="75"/>
      <point x="170" y="-12"/>
      <point x="387" y="-12" type="curve" smooth="yes"/>
      <point x="551" y="-12"/>
      <point x="640" y="76"/>
      <point x="640" y="223" type="curve" smooth="yes"/>
      <point x="640" y="600" type="line"/>
      <point x="561" y="600" type="line"/>
      <point x="561" y="212" type="line" smooth="yes"/>
      <point x="560" y="101"/>
      <point x="508" y="36"/>
      <point x="418" y="36" type="curve" smooth="yes"/>
      <point x="326" y="36"/>
      <point x="272" y="105"/>
      <point x="272" y="223" type="curve"/>
    </contour>
    <contour>
      <point x="78" y="600" type="line"/>
      <point x="19" y="600" type="line"/>
      <point x="19" y="592" type="line"/>
      <point x="19" y="592"/>
      <point x="32" y="592"/>
      <point x="32" y="592" type="curve" smooth="yes"/>
      <point x="56" y="592"/>
      <point x="76" y="574"/>
      <point x="76" y="549" type="curve"/>
      <point x="78" y="549" type="line"/>
    </contour>
    <contour>
      <point x="329" y="600" type="line"/>
      <point x="270" y="600" type="line"/>
      <point x="270" y="549" type="line"/>
      <point x="272" y="549" type="line"/>
      <point x="272" y="574"/>
      <point x="291" y="592"/>
      <point x="315" y="592" type="curve" smooth="yes"/>
      <point x="315" y="592"/>
      <point x="329" y="592"/>
      <point x="329" y="592" type="curve"/>
    </contour>
    <contour>
      <point x="563" y="600" type="line"/>
      <point x="504" y="600" type="line"/>
      <point x="504" y="592" type="line"/>
      <point x="504" y="592"/>
      <point x="517" y="592"/>
      <point x="517" y="592" type="curve" smooth="yes"/>
      <point x="541" y="592"/>
      <point x="560" y="574"/>
      <point x="561" y="549" type="curve"/>
      <point x="563" y="549" type="line"/>
    </contour>
    <contour>
      <point x="697" y="600" type="line"/>
      <point x="638" y="600" type="line"/>
      <point x="638" y="549" type="line"/>
      <point x="640" y="549" type="line"/>
      <point x="640" y="574"/>
      <point x="660" y="592"/>
      <point x="684" y="592" type="curve" smooth="yes"/>
      <point x="684" y="592"/>
      <point x="697" y="592"/>
      <point x="697" y="592" type="curve"/>
    </contour>
  </outline>
</glyph>
<glyph name="v" format="2">
  <advance width="620"/>
  <unicode hex="0076"/>
  <outline>
    <contour>
      <point x="319" y="-12" type="line" smooth="yes"/>
      <point x="404" y="233" type="line"/>
      <point x="242" y="595" type="line"/>
      <point x="13" y="595" type="line"/>
    </contour>
    <contour>
      <point x="319" y="-12" type="line"/>
      <point x="327" y="-12" type="line"/>
      <point x="331" y="19"/>
      <point x="368" y="97"/>
      <point x="379" y="122" type="curve"/>
      <point x="606" y="597" type="line"/>
      <point x="526" y="597" type="line"/>
      <point x="317" y="135" type="line"/>
    </contour>
    <contour>
      <point x="499" y="538" type="curve"/>
      <point x="578" y="538" type="line"/>
      <point x="596" y="576"/>
      <point x="629" y="590"/>
      <point x="655" y="590" type="curve" smooth="yes"/>
      <point x="655" y="590"/>
      <point x="663" y="590"/>
      <point x="663" y="590" type="curve"/>
      <point x="663" y="600" type="line"/>
      <point x="458" y="600" type="line"/>
      <point x="458" y="591" type="line"/>
      <point x="466" y="591" type="line" smooth="yes"/>
      <point x="489" y="591"/>
      <point x="514" y="572"/>
    </contour>
    <contour>
      <point x="267" y="538" type="line"/>
      <point x="254" y="572"/>
      <point x="279" y="591"/>
      <point x="301" y="591" type="curve" smooth="yes"/>
      <point x="309" y="591" type="line"/>
      <point x="309" y="600" type="line"/>
      <point x="-42" y="600" type="line"/>
      <point x="-42" y="590" type="line"/>
      <point x="-42" y="590"/>
      <point x="-35" y="590"/>
      <point x="-35" y="590" type="curve" smooth="yes"/>
      <point x="-8" y="590"/>
      <point x="23" y="576"/>
      <point x="42" y="538" type="curve"/>
    </contour>
  </outline>
</glyph>
<glyph name="w" format="2">
  <advance width="851"/>
  <unicode hex="0077"/>
  <anchor x="487.738" y="664" name="top"/>
  <outline>
    <contour>
      <point x="28.518" y="593.688" type="line"/>
      <point x="263.56" y="-10" type="line"/>
      <point x="350.265" y="326.232" type="line"/>
      <point x="232.841" y="593.691" type="line"/>
    </contour>
    <contour>
      <point x="499.351" y="612.885" type="line"/>
      <point x="492.069" y="612.885" type="line"/>
      <point x="232.049" y="115.449" type="line"/>
      <point x="263.56" y="-10" type="line"/>
      <point x="271.897" y="-10" type="line"/>
      <point x="271.872" y="37.319"/>
      <point x="295.952" y="83.694"/>
      <point x="295.952" y="83.694" type="curve"/>
      <point x="523.593" y="513.895" type="line"/>
    </contour>
    <contour>
      <point x="499.348" y="612.907" type="line"/>
      <point x="412.987" y="366.97" type="line"/>
      <point x="635.732" y="-10" type="line"/>
      <point x="697.896" y="280.302" type="line"/>
    </contour>
    <contour>
      <point x="818.286" y="593.665" type="line"/>
      <point x="749.195" y="593.665" type="line"/>
      <point x="597.779" y="73.759" type="line"/>
      <point x="635.732" y="-10" type="line"/>
      <point x="644.068" y="-10" type="line"/>
      <point x="637.691" y="32.033"/>
      <point x="655.401" y="83.694"/>
      <point x="655.401" y="83.694" type="curve"/>
    </contour>
    <contour>
      <point x="732.525" y="539.07" type="curve"/>
      <point x="799.527" y="537.992" type="line"/>
      <point x="812.059" y="576.519"/>
      <point x="849.801" y="589.958"/>
      <point x="875.696" y="589.958" type="curve" smooth="yes"/>
      <point x="875.696" y="589.958"/>
      <point x="883" y="589.958"/>
      <point x="883" y="589.958" type="curve"/>
      <point x="883" y="599.952" type="line"/>
      <point x="691.752" y="599.952" type="line"/>
      <point x="691.752" y="589.952" type="line"/>
      <point x="699.056" y="589.952" type="line" smooth="yes"/>
      <point x="723.115" y="589.952"/>
      <point x="740.802" y="572.746"/>
    </contour>
    <contour>
      <point x="256.912" y="537.903" type="line"/>
      <point x="243.34" y="571.58"/>
      <point x="266.293" y="589.952"/>
      <point x="288.233" y="589.952" type="curve" smooth="yes"/>
      <point x="296.597" y="589.952" type="line"/>
      <point x="296.597" y="599.952" type="line"/>
      <point x="-32" y="599.952" type="line"/>
      <point x="-32" y="589.958" type="line"/>
      <point x="-32" y="589.958"/>
      <point x="-25" y="589.958"/>
      <point x="-25" y="589.958" type="curve" smooth="yes"/>
      <point x="1.199" y="589.958"/>
      <point x="34.704" y="576.519"/>
      <point x="50.413" y="537.992" type="curve"/>
    </contour>
  </outline>
</glyph>
<glyph name="x" format="2">
  <advance width="666"/>
  <unicode hex="0078"/>
  <outline>
    <contour>
      <point x="264" y="600" type="line"/>
      <point x="44" y="600" type="line"/>
      <point x="409" y="1" type="line"/>
      <point x="631" y="1" type="line"/>
    </contour>
    <contour>
      <point x="159" y="60" type="curve"/>
      <point x="71" y="57" type="line"/>
      <point x="51" y="31"/>
      <point x="22" y="10"/>
      <point x="-12" y="10" type="curve" smooth="yes"/>
      <point x="-24" y="10" type="line"/>
      <point x="-24" y="0" type="line"/>
      <point x="197" y="0" type="line"/>
      <point x="197" y="10" type="line"/>
      <point x="197" y="10"/>
      <point x="187" y="10"/>
      <point x="187" y="10" type="curve" smooth="yes"/>
      <point x="164" y="10"/>
      <point x="142" y="36"/>
    </contour>
    <contour>
      <point x="254" y="302" type="line"/>
      <point x="32" y="5" type="line"/>
      <point x="116" y="1" type="line" smooth="yes"/>
      <point x="311" y="271" type="line"/>
    </contour>
    <contour>
      <point x="373" y="60" type="line"/>
      <point x="387" y="36"/>
      <point x="367" y="10"/>
      <point x="344" y="10" type="curve" smooth="yes"/>
      <point x="344" y="10"/>
      <point x="334" y="10"/>
      <point x="334" y="10" type="curve"/>
      <point x="334" y="0" type="line"/>
      <point x="691" y="0" type="line"/>
      <point x="691" y="10" type="line"/>
      <point x="680" y="10" type="line" smooth="yes"/>
      <point x="645" y="10"/>
      <point x="613" y="31"/>
      <point x="597" y="57" type="curve"/>
    </contour>
    <contour>
      <point x="339" y="602" type="line"/>
      <point x="-16" y="602" type="line"/>
      <point x="-16" y="592" type="line"/>
      <point x="-5" y="592" type="line" smooth="yes"/>
      <point x="29" y="592"/>
      <point x="62" y="570"/>
      <point x="78" y="545" type="curve"/>
      <point x="300" y="542" type="line"/>
      <point x="286" y="565"/>
      <point x="306" y="592"/>
      <point x="329" y="592" type="curve" smooth="yes"/>
      <point x="329" y="592"/>
      <point x="339" y="592"/>
      <point x="339" y="592" type="curve"/>
    </contour>
    <contour>
      <point x="609" y="600" type="line"/>
      <point x="526" y="600" type="line"/>
      <point x="361" y="342" type="line"/>
      <point x="399" y="284" type="line"/>
    </contour>
    <contour>
      <point x="667" y="602" type="line"/>
      <point x="451" y="602" type="line"/>
      <point x="451" y="592" type="line"/>
      <point x="451" y="592"/>
      <point x="461" y="592"/>
      <point x="461" y="592" type="curve" smooth="yes"/>
      <point x="484" y="592"/>
      <point x="504" y="565"/>
      <point x="489" y="542" type="curve"/>
      <point x="572" y="545" type="line"/>
      <point x="589" y="570"/>
      <point x="621" y="592"/>
      <point x="655" y="592" type="curve" smooth="yes"/>
      <point x="667" y="592" type="line"/>
    </contour>
  </outline>
</glyph>
<glyph name="y" format="2">
  <advance width="633"/>
  <unicode hex="0079"/>
  <anchor x="373.398" y="664" name="top"/>
  <outline>
    <contour>
      <point x="225.98" y="599.061" type="line"/>
      <point x="12.29" y="599.061" type="line"/>
      <point x="223.71" y="274.002" type="line"/>
      <point x="416.963" y="276.005" type="line"/>
    </contour>
    <contour>
      <point x="416.708" y="280.578" type="line"/>
      <point x="220.648" y="277.584" type="line"/>
      <point x="220.648" y="0" type="line"/>
      <point x="416.708" y="0" type="line"/>
    </contour>
    <contour>
      <point x="542.075" y="599.061" type="line"/>
      <point x="350.678" y="268.615" type="line"/>
      <point x="405.172" y="260.73" type="line"/>
      <point x="621.541" y="599.061" type="line"/>
    </contour>
    <contour>
      <point x="507.092" y="538.698" type="curve"/>
      <point x="584.838" y="541.737" type="line"/>
      <point x="602.53" y="567.931"/>
      <point x="634.804" y="590.07"/>
      <point x="671.247" y="590.07" type="curve" smooth="yes"/>
      <point x="683.749" y="590.07" type="line"/>
      <point x="683.749" y="600.07" type="line"/>
      <point x="466.496" y="600.07" type="line"/>
      <point x="466.496" y="590.07" type="line"/>
      <point x="466.496" y="590.07"/>
      <point x="476.898" y="590.07"/>
      <point x="476.898" y="590.07" type="curve" smooth="yes"/>
      <point x="500.777" y="590.07"/>
      <point x="520.614" y="562.746"/>
    </contour>
    <contour>
      <point x="261.733" y="538.659" type="line"/>
      <point x="248.16" y="562.845"/>
      <point x="266.986" y="590.07"/>
      <point x="291.926" y="590.07" type="curve" smooth="yes"/>
      <point x="291.926" y="590.07"/>
      <point x="302.329" y="590.07"/>
      <point x="302.329" y="590.07" type="curve"/>
      <point x="302.329" y="600.07" type="line"/>
      <point x="-48" y="600.07" type="line"/>
      <point x="-48" y="590.07" type="line"/>
      <point x="-36" y="590.07" type="line" smooth="yes"/>
      <point x="0" y="590.07"/>
      <point x="32.995" y="567.617"/>
      <point x="49.602" y="541.7" type="curve"/>
    </contour>
    <contour>
      <point x="223.783" y="62.412" type="line"/>
      <point x="220.648" y="62.412" type="line"/>
      <point x="220.658" y="32.141"/>
      <point x="195.662" y="10"/>
      <point x="166.53" y="10" type="curve" smooth="yes"/>
      <point x="165.471" y="10"/>
      <point x="155.065" y="10"/>
      <point x="155.067" y="10" type="curve"/>
      <point x="155.07" y="0" type="line"/>
      <point x="223.783" y="0" type="line"/>
    </contour>
    <contour>
      <point x="414.633" y="62.412" type="line"/>
      <point x="414.633" y="0" type="line"/>
      <point x="482.817" y="0" type="line"/>
      <point x="482.817" y="10" type="line"/>
      <point x="482.817" y="10"/>
      <point x="472.411" y="10"/>
      <point x="471.886" y="10" type="curve" smooth="yes"/>
      <point x="441.693" y="10"/>
      <point x="417.758" y="32.141"/>
      <point x="416.707" y="62.412" type="curve"/>
    </contour>
  </outline>
</glyph>
<glyph name="z" format="2">
  <advance width="606"/>
  <unicode hex="007A"/>
  <anchor x="318" y="664" name="top"/>
  <outline>
    <contour>
      <point x="577" y="612" type="curve"/>
      <point x="566" y="607"/>
      <point x="518" y="601"/>
      <point x="482" y="601" type="curve"/>
      <point x="38" y="601" type="line"/>
      <point x="38" y="555" type="line"/>
      <point x="326" y="555" type="line"/>
      <point x="25" y="8" type="line"/>
      <point x="25" y="0" type="line"/>
      <point x="264" y="0" type="line"/>
      <point x="577" y="605" type="line"/>
      <point x="577" y="605"/>
      <point x="577" y="612"/>
    </contour>
    <contour>
      <point x="555" y="45" type="line"/>
      <point x="92" y="45" type="line"/>
      <point x="92" y="0" type="line"/>
      <point x="549" y="0" type="line"/>
    </contour>
    <contour>
      <point x="598" y="210" type="line" smooth="yes"/>
      <point x="588" y="210" type="line"/>
      <point x="559" y="106"/>
      <point x="484" y="45"/>
      <point x="395" y="45" type="curve"/>
      <point x="360.998" y="0" type="line"/>
      <point x="562" y="0" type="line" smooth="yes"/>
    </contour>
    <contour>
      <point x="38" y="558" type="line"/>
      <point x="38" y="428" type="line"/>
      <point x="48" y="428" type="line"/>
      <point x="48" y="432" type="line" smooth="yes"/>
      <point x="48" y="509"/>
      <point x="91" y="555"/>
      <point x="168" y="555" type="curve"/>
      <point x="168" y="558" type="line"/>
    </contour>
    <contour>
      <point x="38" y="616" type="curve"/>
      <point x="38" y="591" type="line"/>
      <point x="146" y="601" type="line"/>
      <point x="108" y="601"/>
      <point x="54" y="609"/>
    </contour>
  </outline>
</glyph>
<glyph name="braceleft" format="2">
  <advance width="407"/>
  <unicode hex="007B"/>
  <outline>
    <contour>
      <point x="128" y="340" type="curve"/>
      <point x="120" y="325"/>
      <point x="103" y="325"/>
      <point x="85" y="324" type="curve"/>
      <point x="85" y="314" type="line"/>
      <point x="101" y="313"/>
      <point x="119" y="308"/>
      <point x="125" y="292" type="curve" smooth="yes"/>
      <point x="136" y="263"/>
      <point x="104" y="186"/>
      <point x="104" y="109" type="curve" smooth="yes"/>
      <point x="104" y="1"/>
      <point x="166" y="-100"/>
      <point x="366" y="-100" type="curve"/>
      <point x="368" y="-92" type="line"/>
      <point x="274" y="-68"/>
      <point x="309" y="13"/>
      <point x="309" y="110" type="curve" smooth="yes"/>
      <point x="309" y="275"/>
      <point x="247" y="294"/>
      <point x="171" y="316" type="curve"/>
      <point x="247" y="340"/>
      <point x="309" y="334"/>
      <point x="309" y="536" type="curve" smooth="yes"/>
      <point x="309" y="628"/>
      <point x="296" y="701"/>
      <point x="388" y="725" type="curve"/>
      <point x="386" y="733" type="line"/>
      <point x="186" y="733"/>
      <point x="104" y="633"/>
      <point x="104" y="521" type="curve" smooth="yes"/>
      <point x="104" y="449"/>
      <point x="138" y="365"/>
    </contour>
  </outline>
</glyph>
<glyph name="bar" format="2">
  <advance width="265"/>
  <unicode hex="007C"/>
  <outline>
    <contour>
      <point x="100" y="700" type="line"/>
      <point x="100" y="-180" type="line"/>
      <point x="165" y="-180" type="line"/>
      <point x="165" y="700" type="line"/>
    </contour>
  </outline>
</glyph>
<glyph name="braceright" format="2">
  <advance width="407"/>
  <unicode hex="007D"/>
  <outline>
    <contour>
      <point x="21.685" y="732.78" type="curve"/>
      <point x="20" y="724.78" type="line"/>
      <point x="111.566" y="701"/>
      <point x="98.566" y="628"/>
      <point x="98.104" y="536.206" type="curve" smooth="yes"/>
      <point x="98.566" y="334"/>
      <point x="160.566" y="340"/>
      <point x="236.995" y="316.39" type="curve"/>
      <point x="160.566" y="294"/>
      <point x="98.566" y="275"/>
      <point x="98.104" y="110.218" type="curve" smooth="yes"/>
      <point x="98.566" y="13"/>
      <point x="133.566" y="-68"/>
      <point x="40" y="-92" type="curve"/>
      <point x="41.685" y="-100" type="line"/>
      <point x="241.566" y="-100"/>
      <point x="303.566" y="1"/>
      <point x="303.566" y="109" type="curve" smooth="yes"/>
      <point x="303.566" y="186"/>
      <point x="271.566" y="263"/>
      <point x="282.566" y="292" type="curve" smooth="yes"/>
      <point x="288.566" y="308"/>
      <point x="306.566" y="313"/>
      <point x="322.566" y="314.472" type="curve"/>
      <point x="322.566" y="324.472" type="line"/>
      <point x="304.983" y="324.595"/>
      <point x="287.399" y="324.718"/>
      <point x="279.816" y="339.841" type="curve"/>
      <point x="269.566" y="365"/>
      <point x="303.566" y="449"/>
      <point x="303.566" y="521" type="curve" smooth="yes"/>
      <point x="303.566" y="633"/>
      <point x="221.566" y="733"/>
    </contour>
  </outline>
</glyph>
<glyph name="exclamdown" format="2">
  <advance width="295"/>
  <unicode hex="00A1"/>
  <outline>
    <contour>
      <point x="150" y="716" type="curve" smooth="yes"/>
      <point x="100" y="716"/>
      <point x="60" y="675"/>
      <point x="60" y="626" type="curve" smooth="yes"/>
      <point x="60" y="576"/>
      <point x="100" y="536"/>
      <point x="150" y="536" type="curve" smooth="yes"/>
      <point x="199" y="536"/>
      <point x="240" y="576"/>
      <point x="240" y="626" type="curve" smooth="yes"/>
      <point x="240" y="675"/>
      <point x="199" y="716"/>
    </contour>
    <contour>
      <point x="113" y="472" type="line"/>
      <point x="68" y="339" type="line"/>
      <point x="45" y="0" type="line"/>
      <point x="250" y="0" type="line"/>
      <point x="228" y="339" type="line"/>
      <point x="183" y="472" type="line"/>
    </contour>
  </outline>
</glyph>
<glyph name="cent" format="2">
  <advance width="578"/>
  <unicode hex="00A2"/>
  <outline>
    <contour>
      <point x="534" y="304" type="line"/>
      <point x="528" y="304" type="line"/>
      <point x="499" y="164"/>
      <point x="473" y="121"/>
      <point x="354" y="121" type="curve"/>
      <point x="252" y="125"/>
      <point x="201" y="208"/>
      <point x="201" y="351" type="curve" smooth="yes"/>
      <point x="201" y="492"/>
      <point x="250" y="574"/>
      <point x="369" y="574" type="curve" smooth="yes"/>
      <point x="435" y="574"/>
      <point x="493" y="549"/>
      <point x="525" y="439" type="curve"/>
      <point x="531" y="439" type="line"/>
      <point x="542" y="586" type="line"/>
      <point x="505" y="601"/>
      <point x="437" y="617"/>
      <point x="354" y="617" type="curve" smooth="yes"/>
      <point x="145" y="617"/>
      <point x="15" y="518"/>
      <point x="15" y="348" type="curve" smooth="yes"/>
      <point x="15" y="178"/>
      <point x="145" y="79"/>
      <point x="354" y="78" type="curve"/>
      <point x="473" y="78"/>
      <point x="530" y="121"/>
      <point x="557" y="166" type="curve"/>
    </contour>
    <contour>
      <point x="368" y="701" type="line"/>
      <point x="311.002" y="-6" type="line"/>
      <point x="357" y="-9" type="line"/>
      <point x="415" y="700" type="line"/>
    </contour>
  </outline>
</glyph>
<glyph name="sterling" format="2">
  <advance width="620"/>
  <unicode hex="00A3"/>
  <outline>
    <contour>
      <point x="616" y="219" type="line"/>
      <point x="606" y="219" type="line"/>
      <point x="546" y="99"/>
      <point x="443" y="59"/>
      <point x="340" y="68" type="curve" smooth="yes"/>
      <point x="269" y="74"/>
      <point x="218" y="92"/>
      <point x="163" y="74" type="curve"/>
      <point x="260" y="96"/>
      <point x="330" y="147"/>
      <point x="317" y="377" type="curve" smooth="yes"/>
      <point x="307" y="549"/>
      <point x="317" y="661"/>
      <point x="425" y="664" type="curve" smooth="yes"/>
      <point x="500" y="666"/>
      <point x="528" y="617"/>
      <point x="533" y="516" type="curve"/>
      <point x="543" y="516" type="line"/>
      <point x="591" y="657" type="line"/>
      <point x="562" y="693"/>
      <point x="491" y="720"/>
      <point x="388" y="714" type="curve" smooth="yes"/>
      <point x="167" y="701"/>
      <point x="108" y="546"/>
      <point x="112" y="370" type="curve" smooth="yes"/>
      <point x="117" y="164"/>
      <point x="57" y="53"/>
      <point x="30" y="0" type="curve"/>
      <point x="30" y="-10" type="line"/>
      <point x="40" y="-10" type="line"/>
      <point x="49" y="0"/>
      <point x="113" y="23"/>
      <point x="137" y="24" type="curve" smooth="yes"/>
      <point x="200" y="26"/>
      <point x="249" y="4"/>
      <point x="338" y="-8" type="curve" smooth="yes"/>
      <point x="391" y="-15"/>
      <point x="505" y="-6"/>
      <point x="571" y="24" type="curve"/>
    </contour>
    <contour>
      <point x="48" y="375" type="line"/>
      <point x="30" y="319" type="line"/>
      <point x="476" y="319" type="line"/>
      <point x="498" y="375" type="line"/>
    </contour>
  </outline>
</glyph>
<glyph name="dieresis" format="2">
  <advance width="600"/>
  <unicode hex="00A8"/>
  <outline>
    <contour>
      <point x="149" y="665" type="curve"/>
      <point x="190" y="665"/>
      <point x="223" y="698"/>
      <point x="223" y="739" type="curve" smooth="yes"/>
      <point x="223" y="780"/>
      <point x="190" y="813"/>
      <point x="149" y="813" type="curve" smooth="yes"/>
      <point x="109" y="813"/>
      <point x="76" y="780"/>
      <point x="76" y="739" type="curve" smooth="yes"/>
      <point x="76" y="698"/>
      <point x="109" y="665"/>
    </contour>
    <contour>
      <point x="412" y="665" type="curve" smooth="yes"/>
      <point x="452" y="665"/>
      <point x="485" y="698"/>
      <point x="485" y="739" type="curve" smooth="yes"/>
      <point x="485" y="780"/>
      <point x="452" y="813"/>
      <point x="412" y="813" type="curve" smooth="yes"/>
      <point x="371" y="813"/>
      <point x="338" y="780"/>
      <point x="338" y="739" type="curve" smooth="yes"/>
      <point x="338" y="698"/>
      <point x="371" y="665"/>
    </contour>
  </outline>
</glyph>
<glyph name="copyright" format="2">
  <advance width="848"/>
  <unicode hex="00A9"/>
  <outline>
    <contour>
      <point x="424" y="714" type="curve" smooth="yes"/>
      <point x="223" y="714"/>
      <point x="60" y="551"/>
      <point x="60" y="350" type="curve" smooth="yes"/>
      <point x="60" y="149"/>
      <point x="223" y="-14"/>
      <point x="424" y="-14" type="curve" smooth="yes"/>
      <point x="625" y="-14"/>
      <point x="788" y="149"/>
      <point x="788" y="350" type="curve" smooth="yes"/>
      <point x="788" y="551"/>
      <point x="625" y="714"/>
    </contour>
    <contour>
      <point x="424" y="662" type="curve" smooth="yes"/>
      <point x="596" y="662"/>
      <point x="736" y="522"/>
      <point x="736" y="350" type="curve" smooth="yes"/>
      <point x="736" y="178"/>
      <point x="596" y="38"/>
      <point x="424" y="38" type="curve" smooth="yes"/>
      <point x="252" y="38"/>
      <point x="112" y="178"/>
      <point x="112" y="350" type="curve" smooth="yes"/>
      <point x="112" y="522"/>
      <point x="252" y="662"/>
    </contour>
    <contour>
      <point x="616" y="326" type="line"/>
      <point x="610" y="326" type="line"/>
      <point x="594" y="224"/>
      <point x="534" y="169"/>
      <point x="445" y="169" type="curve" smooth="yes"/>
      <point x="367" y="169"/>
      <point x="321" y="236"/>
      <point x="321" y="350" type="curve" smooth="yes"/>
      <point x="321" y="464"/>
      <point x="366" y="532"/>
      <point x="442" y="532" type="curve" smooth="yes"/>
      <point x="521" y="532"/>
      <point x="572" y="487"/>
      <point x="605" y="410" type="curve"/>
      <point x="611" y="410" type="line"/>
      <point x="617" y="530" type="line"/>
      <point x="568" y="558"/>
      <point x="494" y="573"/>
      <point x="436" y="573" type="curve" smooth="yes"/>
      <point x="291" y="573"/>
      <point x="185" y="478"/>
      <point x="185" y="350" type="curve" smooth="yes"/>
      <point x="185" y="224"/>
      <point x="290" y="128"/>
      <point x="434" y="127" type="curve"/>
      <point x="523" y="127"/>
      <point x="591" y="162"/>
      <point x="639" y="218" type="curve"/>
    </contour>
  </outline>
</glyph>
<glyph name="ordfeminine" format="2">
  <advance width="390"/>
  <unicode hex="00AA"/>
  <outline>
    <contour>
      <point x="189" y="710" type="line" smooth="yes"/>
      <point x="138" y="564" type="line"/>
      <point x="227" y="380" type="line"/>
      <point x="364" y="380" type="line"/>
    </contour>
    <contour>
      <point x="84" y="409" type="curve"/>
      <point x="42" y="409" type="line"/>
      <point x="32" y="389"/>
      <point x="15" y="381"/>
      <point x="-1" y="381" type="curve" smooth="yes"/>
      <point x="-1" y="381"/>
      <point x="-5" y="381"/>
      <point x="-5" y="381" type="curve"/>
      <point x="-5" y="377" type="line"/>
      <point x="108" y="377" type="line"/>
      <point x="108" y="381" type="line"/>
      <point x="103" y="381" type="line" smooth="yes"/>
      <point x="90" y="381"/>
      <point x="75" y="391"/>
    </contour>
    <contour>
      <point x="189" y="710" type="line"/>
      <point x="185" y="710" type="line"/>
      <point x="183" y="693"/>
      <point x="162" y="651"/>
      <point x="155" y="635" type="curve"/>
      <point x="27" y="378" type="line"/>
      <point x="69" y="378" type="line"/>
      <point x="188" y="624" type="line"/>
    </contour>
    <contour>
      <point x="223" y="465" type="line"/>
      <point x="86" y="465" type="line"/>
      <point x="86" y="439" type="line"/>
      <point x="223" y="439" type="line"/>
    </contour>
    <contour>
      <point x="213" y="409" type="line"/>
      <point x="222" y="391"/>
      <point x="207" y="381"/>
      <point x="195" y="381" type="curve" smooth="yes"/>
      <point x="190" y="381" type="line"/>
      <point x="190" y="377" type="line"/>
      <point x="395" y="377" type="line"/>
      <point x="395" y="381" type="line"/>
      <point x="395" y="381"/>
      <point x="391" y="381"/>
      <point x="391" y="381" type="curve" smooth="yes"/>
      <point x="376" y="381"/>
      <point x="359" y="389"/>
      <point x="348" y="409" type="curve"/>
    </contour>
  </outline>
</glyph>
<glyph name="guillemotleft" format="2">
  <advance width="541"/>
  <unicode hex="00AB"/>
  <outline>
    <contour>
      <point x="40" y="291.757" type="line"/>
      <point x="264.802" y="489.715" type="line"/>
      <point x="272.802" y="484.715" type="line"/>
      <point x="195" y="291.757" type="line"/>
      <point x="273.802" y="94.715" type="line"/>
      <point x="264.802" y="87.715" type="line"/>
    </contour>
    <contour>
      <point x="248.06" y="291.757" type="line"/>
      <point x="472.862" y="489.715" type="line"/>
      <point x="480.862" y="484.715" type="line"/>
      <point x="403.06" y="291.757" type="line"/>
      <point x="481.862" y="94.715" type="line"/>
      <point x="472.862" y="87.715" type="line"/>
    </contour>
  </outline>
</glyph>
<glyph name="logicalnot" format="2">
  <advance width="600"/>
  <unicode hex="00AC"/>
  <outline>
    <contour>
      <point x="40" y="407.228" type="line"/>
      <point x="40" y="342.228" type="line"/>
      <point x="561.723" y="342.228" type="line"/>
      <point x="561.723" y="407.228" type="line"/>
    </contour>
    <contour>
      <point x="496.723" y="407.228" type="line"/>
      <point x="496.723" y="194.57" type="line"/>
      <point x="561.723" y="194.57" type="line"/>
      <point x="561.723" y="407.228" type="line"/>
    </contour>
  </outline>
</glyph>
<glyph name="registered" format="2">
  <advance width="245"/>
  <unicode hex="00AE"/>
  <outline>
    <contour>
      <point x="123" y="701" type="curve" smooth="yes"/>
      <point x="61" y="701"/>
      <point x="10" y="650"/>
      <point x="10" y="588" type="curve" smooth="yes"/>
      <point x="10" y="526"/>
      <point x="61" y="475"/>
      <point x="123" y="475" type="curve" smooth="yes"/>
      <point x="185" y="475"/>
      <point x="236" y="526"/>
      <point x="236" y="588" type="curve" smooth="yes"/>
      <point x="236" y="650"/>
      <point x="185" y="701"/>
    </contour>
    <contour>
      <point x="79" y="530" type="line"/>
      <point x="76" y="543" type="line"/>
      <point x="76" y="537"/>
      <point x="71" y="532"/>
      <point x="65" y="532" type="curve" smooth="yes"/>
      <point x="65" y="532"/>
      <point x="63" y="532"/>
      <point x="63" y="532" type="curve"/>
      <point x="63" y="530" type="line"/>
    </contour>
    <contour>
      <point x="107" y="543" type="curve"/>
      <point x="104" y="530" type="line"/>
      <point x="120" y="530" type="line"/>
      <point x="120" y="532" type="line"/>
      <point x="120" y="532"/>
      <point x="117" y="532"/>
      <point x="117" y="532" type="curve" smooth="yes"/>
      <point x="111" y="532"/>
      <point x="107" y="537"/>
    </contour>
    <contour>
      <point x="107" y="650" type="line"/>
      <point x="76" y="650" type="line"/>
      <point x="76" y="530" type="line"/>
      <point x="107" y="530" type="line"/>
    </contour>
    <contour>
      <point x="79" y="650" type="line"/>
      <point x="63" y="650" type="line"/>
      <point x="63" y="648" type="line"/>
      <point x="63" y="648"/>
      <point x="65" y="648"/>
      <point x="65" y="648" type="curve" smooth="yes"/>
      <point x="71" y="648"/>
      <point x="76" y="643"/>
      <point x="76" y="637" type="curve"/>
    </contour>
    <contour>
      <point x="126" y="650" type="curve" smooth="yes"/>
      <point x="102" y="650" type="line" smooth="yes"/>
      <point x="102" y="650"/>
      <point x="104" y="641"/>
      <point x="104" y="641" type="curve"/>
      <point x="117" y="640" type="line"/>
      <point x="132" y="641"/>
      <point x="137" y="632"/>
      <point x="137" y="619" type="curve" smooth="yes"/>
      <point x="138" y="615"/>
      <point x="137" y="609"/>
      <point x="136" y="606" type="curve" smooth="yes"/>
      <point x="134" y="595"/>
      <point x="128" y="590"/>
      <point x="122" y="590" type="curve" smooth="yes"/>
      <point x="116" y="590"/>
      <point x="111" y="590"/>
      <point x="111" y="590" type="curve"/>
      <point x="111" y="588" type="line"/>
      <point x="115" y="588"/>
      <point x="118" y="581"/>
      <point x="121" y="575" type="curve" smooth="yes"/>
      <point x="130" y="554"/>
      <point x="137" y="530"/>
      <point x="171" y="530" type="curve" smooth="yes"/>
      <point x="190" y="530" type="line"/>
      <point x="190" y="532" type="line"/>
      <point x="179" y="536"/>
      <point x="172" y="547"/>
      <point x="169" y="551" type="curve" smooth="yes"/>
      <point x="162" y="563"/>
      <point x="148" y="582"/>
      <point x="139" y="584" type="curve"/>
      <point x="156" y="586"/>
      <point x="170" y="595"/>
      <point x="170" y="617" type="curve" smooth="yes"/>
      <point x="170" y="638"/>
      <point x="150" y="650"/>
    </contour>
    <contour>
      <point x="123" y="677" type="curve" smooth="yes"/>
      <point x="174" y="677"/>
      <point x="212" y="639"/>
      <point x="212" y="588" type="curve" smooth="yes"/>
      <point x="212" y="537"/>
      <point x="174" y="499"/>
      <point x="123" y="499" type="curve" smooth="yes"/>
      <point x="72" y="499"/>
      <point x="34" y="537"/>
      <point x="34" y="588" type="curve" smooth="yes"/>
      <point x="34" y="639"/>
      <point x="72" y="677"/>
    </contour>
  </outline>
</glyph>
<glyph name="macron" format="2">
  <advance width="600"/>
  <unicode hex="00AF"/>
  <outline>
    <contour>
      <point x="150" y="788" type="line"/>
      <point x="150" y="703" type="line"/>
      <point x="440" y="703" type="line"/>
      <point x="440" y="788" type="line"/>
    </contour>
  </outline>
</glyph>
<glyph name="degree" format="2">
  <advance width="237"/>
  <unicode hex="00B0"/>
  <outline>
    <contour>
      <point x="119" y="664" type="curve" smooth="yes"/>
      <point x="64" y="664"/>
      <point x="20" y="620"/>
      <point x="20" y="566" type="curve" smooth="yes"/>
      <point x="20" y="511"/>
      <point x="64" y="467"/>
      <point x="119" y="467" type="curve" smooth="yes"/>
      <point x="173" y="467"/>
      <point x="217" y="511"/>
      <point x="217" y="566" type="curve" smooth="yes"/>
      <point x="217" y="620"/>
      <point x="173" y="664"/>
    </contour>
    <contour>
      <point x="119" y="606" type="curve" smooth="yes"/>
      <point x="141" y="606"/>
      <point x="159" y="588"/>
      <point x="159" y="566" type="curve" smooth="yes"/>
      <point x="159" y="543"/>
      <point x="141" y="526"/>
      <point x="119" y="526" type="curve" smooth="yes"/>
      <point x="96" y="526"/>
      <point x="78" y="543"/>
      <point x="78" y="566" type="curve" smooth="yes"/>
      <point x="78" y="588"/>
      <point x="96" y="606"/>
    </contour>
  </outline>
</glyph>
<glyph name="plusminus" format="2">
  <advance width="481"/>
  <unicode hex="00B1"/>
  <outline>
    <contour>
      <point x="40" y="115" type="line"/>
      <point x="40" y="50" type="line"/>
      <point x="442" y="50" type="line"/>
      <point x="442" y="115" type="line"/>
    </contour>
    <contour>
      <point x="208" y="179" type="line"/>
      <point x="273" y="179" type="line"/>
      <point x="273" y="581" type="line"/>
      <point x="208" y="581" type="line"/>
    </contour>
    <contour>
      <point x="40" y="412" type="line"/>
      <point x="40" y="347" type="line"/>
      <point x="442" y="347" type="line"/>
      <point x="442" y="412" type="line"/>
    </contour>
  </outline>
</glyph>
<glyph name="twosuperior" format="2">
  <advance width="419"/>
  <unicode hex="00B2"/>
  <guideline x="247.549" y="719.583" angle="0"/>
  <guideline x="247.549" y="308" angle="0"/>
  <outline>
    <contour>
      <point x="79" y="559" type="line"/>
      <point x="85" y="559" type="line"/>
      <point x="85" y="639"/>
      <point x="104" y="682"/>
      <point x="147" y="687" type="curve" smooth="yes"/>
      <point x="187" y="691"/>
      <point x="212" y="665"/>
      <point x="212" y="625" type="curve" smooth="yes"/>
      <point x="212" y="532"/>
      <point x="121" y="427"/>
      <point x="38" y="313" type="curve"/>
      <point x="38" y="308" type="line"/>
      <point x="348" y="308" type="line"/>
      <point x="389" y="496" type="line"/>
      <point x="384" y="496" type="line"/>
      <point x="365" y="454"/>
      <point x="337" y="434"/>
      <point x="305" y="434" type="curve"/>
      <point x="212" y="434" type="line"/>
      <point x="266" y="459"/>
      <point x="364" y="523"/>
      <point x="364" y="607" type="curve" smooth="yes"/>
      <point x="364" y="678"/>
      <point x="288" y="719"/>
      <point x="193" y="719" type="curve" smooth="yes"/>
      <point x="132" y="719"/>
      <point x="67" y="705"/>
      <point x="30" y="674" type="curve"/>
    </contour>
  </outline>
</glyph>
<glyph name="acute" format="2">
  <advance width="600"/>
  <unicode hex="00B4"/>
  <outline>
    <contour>
      <point x="204" y="750" type="curve"/>
      <point x="211" y="743" type="line"/>
      <point x="284" y="752"/>
      <point x="380" y="794"/>
      <point x="444" y="836" type="curve"/>
      <point x="430" y="882"/>
      <point x="407" y="915"/>
      <point x="358" y="936" type="curve"/>
      <point x="314" y="898"/>
      <point x="232" y="816"/>
    </contour>
  </outline>
</glyph>
<glyph name="paragraph" format="2">
  <advance width="540"/>
  <unicode hex="00B6"/>
  <outline>
    <contour>
      <point x="523" y="743" type="line"/>
      <point x="482" y="695"/>
      <point x="449" y="700"/>
      <point x="427" y="700" type="curve"/>
      <point x="246" y="700" type="line"/>
      <point x="138" y="700"/>
      <point x="51" y="630"/>
      <point x="50" y="517" type="curve"/>
      <point x="49" y="403"/>
      <point x="136" y="333"/>
      <point x="246" y="333" type="curve"/>
      <point x="249" y="0" type="line" smooth="yes"/>
      <point x="249" y="-97"/>
      <point x="242" y="-132"/>
      <point x="186" y="-190" type="curve"/>
      <point x="193" y="-199" type="line"/>
      <point x="275" y="-164"/>
      <point x="299" y="-77"/>
      <point x="299" y="0" type="curve" smooth="yes"/>
      <point x="299" y="650" type="line"/>
      <point x="425" y="650" type="line"/>
      <point x="484" y="651"/>
      <point x="524" y="700"/>
      <point x="530" y="737" type="curve"/>
    </contour>
    <contour>
      <point x="432" y="687" type="line"/>
      <point x="382" y="687" type="line"/>
      <point x="382" y="145" type="line" smooth="yes"/>
      <point x="382" y="79"/>
      <point x="384" y="44"/>
      <point x="355" y="-5" type="curve"/>
      <point x="364" y="-13" type="line"/>
      <point x="403" y="15"/>
      <point x="432" y="70"/>
      <point x="432" y="147" type="curve" smooth="yes"/>
    </contour>
  </outline>
</glyph>
<glyph name="periodcentered" format="2">
  <advance width="250"/>
  <unicode hex="00B7"/>
  <outline>
    <contour>
      <point x="125" y="265" type="curve" smooth="yes"/>
      <point x="175" y="265"/>
      <point x="215" y="305"/>
      <point x="215" y="355" type="curve" smooth="yes"/>
      <point x="215" y="405"/>
      <point x="175" y="445"/>
      <point x="125" y="445" type="curve" smooth="yes"/>
      <point x="75" y="445"/>
      <point x="35" y="405"/>
      <point x="35" y="355" type="curve" smooth="yes"/>
      <point x="35" y="305"/>
      <point x="75" y="265"/>
    </contour>
  </outline>
</glyph>
<glyph name="cedilla" format="2">
  <advance width="600"/>
  <unicode hex="00B8"/>
  <outline>
    <contour>
      <point x="265" y="1" type="line"/>
      <point x="217" y="-62" type="line"/>
      <point x="217" y="-62"/>
      <point x="222" y="-72"/>
      <point x="222" y="-72" type="curve"/>
      <point x="258" y="-57"/>
      <point x="324" y="-68"/>
      <point x="319" y="-110" type="curve" smooth="yes"/>
      <point x="312" y="-165"/>
      <point x="257" y="-186"/>
      <point x="215" y="-186" type="curve"/>
      <point x="214" y="-196" type="line"/>
      <point x="298" y="-225"/>
      <point x="397" y="-181"/>
      <point x="403" y="-111" type="curve" smooth="yes"/>
      <point x="409" y="-42"/>
      <point x="320" y="-36"/>
      <point x="284" y="-48" type="curve"/>
      <point x="327" y="1" type="line"/>
    </contour>
  </outline>
</glyph>
<glyph name="onesuperior" format="2">
  <advance width="292"/>
  <unicode hex="00B9"/>
  <outline>
    <contour>
      <point x="263" y="308" type="line"/>
      <point x="34" y="308" type="line"/>
      <point x="34" y="314" type="line"/>
      <point x="45" y="314" type="line" smooth="yes"/>
      <point x="62" y="314"/>
      <point x="75" y="327"/>
      <point x="75" y="343" type="curve" smooth="yes"/>
      <point x="75" y="632" type="line"/>
      <point x="75" y="666"/>
      <point x="59" y="675"/>
      <point x="34" y="675" type="curve"/>
      <point x="30" y="675" type="line"/>
      <point x="30" y="680" type="line"/>
      <point x="60" y="681"/>
      <point x="169" y="693"/>
      <point x="216" y="715" type="curve"/>
      <point x="221" y="715" type="line"/>
      <point x="221" y="343" type="line" smooth="yes"/>
      <point x="221" y="326"/>
      <point x="235" y="314"/>
      <point x="251" y="314" type="curve" smooth="yes"/>
      <point x="263" y="314" type="line"/>
    </contour>
  </outline>
</glyph>
<glyph name="ordmasculine" format="2">
  <advance width="400"/>
  <unicode hex="00BA"/>
  <outline>
    <contour>
      <point x="199.646" y="709.795" type="curve" smooth="yes"/>
      <point x="82.624" y="709.795"/>
      <point x="20" y="650.228"/>
      <point x="20" y="542.959" type="curve" smooth="yes"/>
      <point x="20" y="436.369"/>
      <point x="82.624" y="377"/>
      <point x="199.646" y="377" type="curve" smooth="yes"/>
      <point x="317.376" y="377"/>
      <point x="380" y="436.369"/>
      <point x="380" y="542.959" type="curve" smooth="yes"/>
      <point x="380" y="650.228"/>
      <point x="317.376" y="709.795"/>
    </contour>
    <contour>
      <point x="199.646" y="402.543" type="curve" smooth="yes"/>
      <point x="156.68" y="402.543"/>
      <point x="140.306" y="453.071"/>
      <point x="140.306" y="542.959" type="curve" smooth="yes"/>
      <point x="140.306" y="633.526"/>
      <point x="156.68" y="684.054"/>
      <point x="199.646" y="684.054" type="curve" smooth="yes"/>
      <point x="243.32" y="684.054"/>
      <point x="258.986" y="633.526"/>
      <point x="258.986" y="542.959" type="curve" smooth="yes"/>
      <point x="258.986" y="453.071"/>
      <point x="243.32" y="402.543"/>
    </contour>
  </outline>
</glyph>
<glyph name="guillemotright" format="2">
  <advance width="541"/>
  <unicode hex="00BB"/>
  <outline>
    <contour>
      <point x="502" y="292" type="line"/>
      <point x="277" y="88" type="line"/>
      <point x="268" y="95" type="line"/>
      <point x="347" y="292" type="line"/>
      <point x="269" y="485" type="line"/>
      <point x="277" y="490" type="line"/>
    </contour>
    <contour>
      <point x="294" y="292" type="line"/>
      <point x="69" y="88" type="line"/>
      <point x="60" y="95" type="line"/>
      <point x="139" y="292" type="line"/>
      <point x="61" y="485" type="line"/>
      <point x="69" y="490" type="line"/>
    </contour>
  </outline>
</glyph>
<glyph name="questiondown" format="2">
  <advance width="523"/>
  <unicode hex="00BF"/>
  <outline>
    <contour>
      <point x="493" y="75.046" type="curve"/>
      <point x="443" y="189.77" type="line"/>
      <point x="433" y="189.77" type="line"/>
      <point x="433" y="83"/>
      <point x="397" y="36"/>
      <point x="336" y="36" type="curve" smooth="yes"/>
      <point x="278" y="36"/>
      <point x="246" y="78"/>
      <point x="245" y="154" type="curve" smooth="yes"/>
      <point x="243" y="280"/>
      <point x="328" y="278"/>
      <point x="337" y="361" type="curve" smooth="yes"/>
      <point x="344" y="428"/>
      <point x="295" y="470"/>
      <point x="236.792" y="485.044" type="curve"/>
      <point x="227.792" y="479.044" type="line"/>
      <point x="258" y="421"/>
      <point x="218" y="393"/>
      <point x="177" y="363" type="curve" smooth="yes"/>
      <point x="76" y="289"/>
      <point x="30" y="245"/>
      <point x="30" y="163" type="curve" smooth="yes"/>
      <point x="30" y="51"/>
      <point x="115" y="-14"/>
      <point x="272" y="-14" type="curve" smooth="yes"/>
      <point x="382" y="-14"/>
      <point x="463" y="23"/>
    </contour>
    <contour>
      <point x="267" y="714" type="curve" smooth="yes"/>
      <point x="218" y="714"/>
      <point x="178" y="674"/>
      <point x="177.774" y="624" type="curve" smooth="yes"/>
      <point x="178" y="574"/>
      <point x="218" y="534"/>
      <point x="267" y="534" type="curve" smooth="yes"/>
      <point x="317" y="534"/>
      <point x="358" y="574"/>
      <point x="357.774" y="624" type="curve" smooth="yes"/>
      <point x="358" y="674"/>
      <point x="317" y="714"/>
    </contour>
  </outline>
</glyph>
<glyph name="Aring" format="2">
  <advance width="720"/>
  <unicode hex="00C5"/>
  <outline>
    <contour>
      <point x="351" y="714" type="line" smooth="yes"/>
      <point x="264" y="458" type="line"/>
      <point x="457" y="6" type="line"/>
      <point x="697" y="6" type="line"/>
    </contour>
    <contour>
      <point x="136" y="73" type="curve"/>
      <point x="57" y="73" type="line"/>
      <point x="35" y="28"/>
      <point x="-1" y="10"/>
      <point x="-31" y="10" type="curve" smooth="yes"/>
      <point x="-31" y="10"/>
      <point x="-40" y="10"/>
      <point x="-40" y="10" type="curve"/>
      <point x="-40" y="0" type="line"/>
      <point x="183" y="0" type="line"/>
      <point x="183" y="10" type="line"/>
      <point x="174" y="10" type="line" smooth="yes"/>
      <point x="149" y="10"/>
      <point x="118" y="33"/>
    </contour>
    <contour>
      <point x="351" y="714" type="line"/>
      <point x="342" y="714" type="line"/>
      <point x="338" y="680"/>
      <point x="297" y="590"/>
      <point x="285" y="565" type="curve"/>
      <point x="24" y="3" type="line"/>
      <point x="105" y="3" type="line"/>
      <point x="351" y="558" type="line"/>
    </contour>
    <contour>
      <point x="433" y="216" type="line"/>
      <point x="150" y="216" type="line"/>
      <point x="150" y="166" type="line"/>
      <point x="433" y="166" type="line"/>
    </contour>
    <contour>
      <point x="428" y="73" type="line"/>
      <point x="445" y="33"/>
      <point x="416" y="10"/>
      <point x="390" y="10" type="curve" smooth="yes"/>
      <point x="381" y="10" type="line"/>
      <point x="381" y="0" type="line"/>
      <point x="760" y="0" type="line"/>
      <point x="760" y="10" type="line"/>
      <point x="760" y="10"/>
      <point x="752" y="10"/>
      <point x="752" y="10" type="curve" smooth="yes"/>
      <point x="721" y="10"/>
      <point x="686" y="28"/>
      <point x="664" y="73" type="curve"/>
    </contour>
    <contour>
      <point x="348" y="843" type="curve"/>
      <point x="294" y="843"/>
      <point x="248" y="813"/>
      <point x="249" y="768" type="curve" smooth="yes"/>
      <point x="248" y="724"/>
      <point x="295" y="693"/>
      <point x="347" y="693" type="curve" smooth="yes"/>
      <point x="401" y="693"/>
      <point x="446" y="725"/>
      <point x="446" y="769" type="curve" smooth="yes"/>
      <point x="446" y="814"/>
      <point x="402" y="843"/>
    </contour>
    <contour>
      <point x="347" y="821" type="curve" smooth="yes"/>
      <point x="372" y="821"/>
      <point x="391" y="799"/>
      <point x="390" y="768" type="curve" smooth="yes"/>
      <point x="391" y="739"/>
      <point x="372" y="716"/>
      <point x="347" y="716" type="curve" smooth="yes"/>
      <point x="323" y="716"/>
      <point x="305" y="739"/>
      <point x="305" y="768" type="curve" smooth="yes"/>
      <point x="305" y="799"/>
      <point x="323" y="821"/>
    </contour>
  </outline>
</glyph>
<glyph name="AE" format="2">
  <advance width="1017"/>
  <unicode hex="00C6"/>
  <anchor x="300" y="700" name="top"/>
  <outline>
    <contour>
      <point x="158" y="73" type="curve"/>
      <point x="64" y="73" type="line"/>
      <point x="32" y="28"/>
      <point x="6" y="10"/>
      <point x="-24" y="10" type="curve" smooth="yes"/>
      <point x="-24" y="10"/>
      <point x="-33" y="10"/>
      <point x="-33" y="10" type="curve"/>
      <point x="-33" y="0" type="line"/>
      <point x="205" y="0" type="line"/>
      <point x="205" y="10" type="line"/>
      <point x="196" y="10" type="line" smooth="yes"/>
      <point x="170" y="10"/>
      <point x="133" y="33"/>
    </contour>
    <contour>
      <point x="671" y="700" type="line"/>
      <point x="466" y="654" type="line"/>
      <point x="466" y="0" type="line"/>
      <point x="671" y="0" type="line"/>
    </contour>
    <contour>
      <point x="468" y="58" type="line"/>
      <point x="466" y="58" type="line"/>
      <point x="465" y="32"/>
      <point x="443" y="10"/>
      <point x="416" y="10" type="curve" smooth="yes"/>
      <point x="416" y="10"/>
      <point x="407" y="10"/>
      <point x="407" y="10" type="curve"/>
      <point x="406" y="0" type="line"/>
      <point x="468" y="0" type="line"/>
    </contour>
    <contour>
      <point x="941" y="51" type="line"/>
      <point x="668" y="51" type="line"/>
      <point x="668" y="0" type="line"/>
      <point x="941" y="0" type="line"/>
    </contour>
    <contour>
      <point x="888" y="367" type="line"/>
      <point x="298" y="367" type="line"/>
      <point x="293" y="317" type="line"/>
      <point x="888" y="317" type="line"/>
    </contour>
    <contour>
      <point x="940" y="700" type="line"/>
      <point x="427" y="700" type="line"/>
      <point x="427" y="690" type="line"/>
      <point x="432" y="690" type="line"/>
      <point x="457" y="690"/>
      <point x="471" y="668"/>
      <point x="453" y="641" type="curve"/>
      <point x="16" y="3" type="line"/>
      <point x="115" y="3" type="line"/>
      <point x="488" y="605" type="line" smooth="yes"/>
      <point x="551" y="649" type="line"/>
      <point x="940" y="649" type="line"/>
    </contour>
    <contour>
      <point x="1001" y="232" type="line"/>
      <point x="991" y="232" type="line"/>
      <point x="960" y="117"/>
      <point x="880" y="51"/>
      <point x="784" y="51" type="curve"/>
      <point x="748" y="0" type="line"/>
      <point x="963" y="0" type="line"/>
    </contour>
    <contour>
      <point x="888" y="320" type="line"/>
      <point x="769" y="320" type="line"/>
      <point x="769" y="317" type="line"/>
      <point x="833" y="316"/>
      <point x="878" y="271"/>
      <point x="878" y="208" type="curve" smooth="yes"/>
      <point x="878" y="203" type="line"/>
      <point x="888" y="203" type="line"/>
    </contour>
    <contour>
      <point x="888" y="481" type="line"/>
      <point x="878" y="481" type="line"/>
      <point x="878" y="476" type="line" smooth="yes"/>
      <point x="878" y="414"/>
      <point x="833" y="368"/>
      <point x="769" y="367" type="curve"/>
      <point x="769" y="365" type="line"/>
      <point x="888" y="365" type="line"/>
    </contour>
    <contour>
      <point x="940" y="652" type="line"/>
      <point x="802" y="652" type="line"/>
      <point x="802" y="650" type="line"/>
      <point x="883" y="648"/>
      <point x="931" y="600"/>
      <point x="930" y="520" type="curve" smooth="yes"/>
      <point x="930" y="512" type="line"/>
      <point x="940" y="512" type="line"/>
    </contour>
    <contour>
      <point x="940" y="718" type="line"/>
      <point x="921" y="710"/>
      <point x="862" y="700"/>
      <point x="818" y="700" type="curve"/>
      <point x="940" y="689" type="line"/>
    </contour>
  </outline>
</glyph>
<glyph name="Igrave" format="2">
  <advance width="418"/>
  <unicode hex="00CC"/>
  <outline>
    <contour>
      <point x="312" y="700" type="line"/>
      <point x="107" y="700" type="line"/>
      <point x="107" y="0" type="line"/>
      <point x="312" y="0" type="line"/>
    </contour>
    <contour>
      <point x="110" y="73" type="line"/>
      <point x="107" y="73" type="line"/>
      <point x="106" y="38"/>
      <point x="78" y="10"/>
      <point x="43" y="10" type="curve" smooth="yes"/>
      <point x="43" y="10"/>
      <point x="30" y="10"/>
      <point x="30" y="10" type="curve"/>
      <point x="30" y="0" type="line"/>
      <point x="110" y="0" type="line"/>
    </contour>
    <contour>
      <point x="110" y="627" type="line"/>
      <point x="110" y="700" type="line"/>
      <point x="30" y="700" type="line"/>
      <point x="30" y="690" type="line"/>
      <point x="30" y="690"/>
      <point x="43" y="690"/>
      <point x="43" y="690" type="curve" smooth="yes"/>
      <point x="78" y="690"/>
      <point x="106" y="662"/>
      <point x="107" y="627" type="curve"/>
    </contour>
    <contour>
      <point x="309" y="73" type="line"/>
      <point x="309" y="0" type="line"/>
      <point x="389" y="0" type="line"/>
      <point x="389" y="10" type="line"/>
      <point x="388" y="10"/>
      <point x="376" y="10"/>
      <point x="376" y="10" type="curve" smooth="yes"/>
      <point x="341" y="10"/>
      <point x="313" y="38"/>
      <point x="312" y="73" type="curve"/>
    </contour>
    <contour>
      <point x="309" y="627" type="line"/>
      <point x="312" y="627" type="line"/>
      <point x="313" y="662"/>
      <point x="341" y="690"/>
      <point x="376" y="690" type="curve" smooth="yes"/>
      <point x="376" y="690"/>
      <point x="388" y="690"/>
      <point x="389" y="690" type="curve"/>
      <point x="389" y="700" type="line"/>
      <point x="309" y="700" type="line"/>
    </contour>
    <contour>
      <point x="245" y="771" type="line"/>
      <point x="217" y="837"/>
      <point x="135" y="919"/>
      <point x="90" y="957" type="curve"/>
      <point x="42" y="936"/>
      <point x="19" y="903"/>
      <point x="5" y="857" type="curve"/>
      <point x="69" y="815"/>
      <point x="165" y="773"/>
      <point x="238" y="764" type="curve"/>
    </contour>
  </outline>
</glyph>
<glyph name="Ograve" format="2">
  <advance width="905"/>
  <unicode hex="00D2"/>
  <outline>
    <contour>
      <point x="450" y="714" type="curve" smooth="yes"/>
      <point x="192" y="714"/>
      <point x="35" y="579"/>
      <point x="35" y="349.992" type="curve" smooth="yes"/>
      <point x="35" y="121"/>
      <point x="192" y="-14"/>
      <point x="450" y="-14" type="curve" smooth="yes"/>
      <point x="708" y="-14"/>
      <point x="866" y="121"/>
      <point x="866" y="350" type="curve" smooth="yes"/>
      <point x="866" y="579"/>
      <point x="708" y="714"/>
    </contour>
    <contour>
      <point x="450" y="36" type="curve" smooth="yes"/>
      <point x="322" y="36"/>
      <point x="251" y="153"/>
      <point x="251" y="350" type="curve" smooth="yes"/>
      <point x="251" y="547"/>
      <point x="322" y="664"/>
      <point x="450" y="664" type="curve" smooth="yes"/>
      <point x="579" y="664"/>
      <point x="650" y="547"/>
      <point x="650" y="350" type="curve" smooth="yes"/>
      <point x="650" y="153"/>
      <point x="579" y="36"/>
    </contour>
    <contour>
      <point x="477" y="785" type="line"/>
      <point x="449" y="851"/>
      <point x="367" y="933"/>
      <point x="323" y="971" type="curve"/>
      <point x="274" y="950"/>
      <point x="251" y="917"/>
      <point x="237" y="871" type="curve"/>
      <point x="301" y="829"/>
      <point x="397" y="787"/>
      <point x="470" y="778" type="curve"/>
    </contour>
  </outline>
</glyph>
<glyph name="Oslash" format="2">
  <advance width="905"/>
  <unicode hex="00D8"/>
  <anchor x="335" y="700" name="top"/>
  <outline>
    <contour>
      <point x="450" y="714" type="curve" smooth="yes"/>
      <point x="192" y="714"/>
      <point x="35" y="579"/>
      <point x="35" y="349.992" type="curve" smooth="yes"/>
      <point x="35" y="121"/>
      <point x="192" y="-14"/>
      <point x="450" y="-14" type="curve" smooth="yes"/>
      <point x="708" y="-14"/>
      <point x="866" y="121"/>
      <point x="866" y="350" type="curve" smooth="yes"/>
      <point x="866" y="579"/>
      <point x="708" y="714"/>
    </contour>
    <contour>
      <point x="450" y="36" type="curve" smooth="yes"/>
      <point x="322" y="36"/>
      <point x="251" y="153"/>
      <point x="251" y="350" type="curve" smooth="yes"/>
      <point x="251" y="547"/>
      <point x="322" y="664"/>
      <point x="450" y="664" type="curve" smooth="yes"/>
      <point x="579" y="664"/>
      <point x="650" y="547"/>
      <point x="650" y="350" type="curve" smooth="yes"/>
      <point x="650" y="153"/>
      <point x="579" y="36"/>
    </contour>
    <contour>
      <point x="722" y="726" type="line"/>
      <point x="109" y="13" type="line"/>
      <point x="153" y="-23" type="line"/>
      <point x="766" y="692" type="line"/>
    </contour>
  </outline>
</glyph>
<glyph name="ae" format="2">
  <advance width="891"/>
  <unicode hex="00E6"/>
  <anchor x="300" y="498" name="top"/>
  <outline>
    <contour>
      <point x="136" y="63" type="curve"/>
      <point x="52" y="63" type="line"/>
      <point x="24" y="23"/>
      <point x="2" y="10"/>
      <point x="-23" y="10" type="curve" smooth="yes"/>
      <point x="-23" y="10"/>
      <point x="-31" y="10"/>
      <point x="-31" y="10" type="curve"/>
      <point x="-31" y="0" type="line"/>
      <point x="178" y="0" type="line"/>
      <point x="178" y="10" type="line"/>
      <point x="170" y="10" type="line" smooth="yes"/>
      <point x="149" y="10"/>
      <point x="114" y="27"/>
    </contour>
    <contour>
      <point x="592" y="599" type="line"/>
      <point x="400" y="560" type="line"/>
      <point x="400" y="0" type="line"/>
      <point x="592" y="0" type="line"/>
    </contour>
    <contour>
      <point x="402" y="50" type="line"/>
      <point x="400" y="50" type="line"/>
      <point x="400" y="27"/>
      <point x="381" y="10"/>
      <point x="358" y="10" type="curve" smooth="yes"/>
      <point x="358" y="10"/>
      <point x="350" y="10"/>
      <point x="349" y="10" type="curve"/>
      <point x="349" y="0" type="line"/>
      <point x="402" y="0" type="line"/>
    </contour>
    <contour>
      <point x="824" y="46" type="line"/>
      <point x="589" y="46" type="line"/>
      <point x="589" y="0" type="line"/>
      <point x="824" y="0" type="line"/>
    </contour>
    <contour>
      <point x="777" y="316" type="line"/>
      <point x="256" y="316" type="line"/>
      <point x="252" y="271" type="line"/>
      <point x="777" y="271" type="line"/>
    </contour>
    <contour>
      <point x="824" y="599" type="line"/>
      <point x="366" y="599" type="line"/>
      <point x="366" y="590" type="line"/>
      <point x="370" y="590" type="line"/>
      <point x="392" y="590"/>
      <point x="405" y="571"/>
      <point x="389" y="547" type="curve"/>
      <point x="10" y="3" type="line"/>
      <point x="98" y="3" type="line"/>
      <point x="419" y="515" type="line" smooth="yes"/>
      <point x="480" y="553" type="line"/>
      <point x="824" y="553" type="line"/>
    </contour>
    <contour>
      <point x="877" y="209" type="line"/>
      <point x="868" y="209" type="line"/>
      <point x="841" y="105"/>
      <point x="768" y="46"/>
      <point x="684" y="46" type="curve"/>
      <point x="652" y="0" type="line"/>
      <point x="845" y="0" type="line"/>
    </contour>
    <contour>
      <point x="777" y="273" type="line"/>
      <point x="669" y="273" type="line"/>
      <point x="669" y="271" type="line"/>
      <point x="728" y="270"/>
      <point x="769" y="228"/>
      <point x="769" y="170" type="curve" smooth="yes"/>
      <point x="769" y="167" type="line"/>
      <point x="777" y="167" type="line"/>
    </contour>
    <contour>
      <point x="777" y="419" type="line"/>
      <point x="769" y="419" type="line"/>
      <point x="769" y="416" type="line" smooth="yes"/>
      <point x="769" y="358"/>
      <point x="728" y="317"/>
      <point x="669" y="316" type="curve"/>
      <point x="669" y="314" type="line"/>
      <point x="777" y="314" type="line"/>
    </contour>
    <contour>
      <point x="824" y="556" type="line"/>
      <point x="696" y="556" type="line"/>
      <point x="696" y="554" type="line"/>
      <point x="771" y="552"/>
      <point x="815" y="508"/>
      <point x="815" y="433" type="curve" smooth="yes"/>
      <point x="815" y="428" type="line"/>
      <point x="824" y="427" type="line"/>
    </contour>
    <contour>
      <point x="824" y="615" type="line"/>
      <point x="807" y="608"/>
      <point x="756" y="599"/>
      <point x="719" y="599" type="curve"/>
      <point x="824" y="590" type="line"/>
    </contour>
  </outline>
</glyph>
<glyph name="eth" format="2">
  <advance width="741"/>
  <unicode hex="00F0"/>
  <outline>
    <contour>
      <point x="359.29" y="600.072" type="curve"/>
      <point x="120.182" y="600.072" type="line"/>
      <point x="120.182" y="554.704" type="line"/>
      <point x="288.17" y="554.704"/>
      <point x="339.462" y="554.704"/>
      <point x="339.462" y="554.704" type="curve" smooth="yes"/>
      <point x="447.103" y="554.704"/>
      <point x="512.399" y="460.45"/>
      <point x="512.399" y="299.516" type="curve" smooth="yes"/>
      <point x="512.399" y="139.619"/>
      <point x="446.059" y="46.419"/>
      <point x="339.462" y="46.419" type="curve" smooth="yes"/>
      <point x="339.462" y="46.418"/>
      <point x="290.369" y="46.418"/>
      <point x="128.823" y="46.418" type="curve"/>
      <point x="130.957" y="0" type="line"/>
      <point x="359.29" y="0" type="line"/>
      <point x="585.105" y="0"/>
      <point x="717" y="109.651"/>
      <point x="717" y="299.516" type="curve" smooth="yes"/>
      <point x="717" y="489.355"/>
      <point x="585.105" y="600.072"/>
    </contour>
    <contour>
      <point x="282.767" y="600.072" type="line"/>
      <point x="86.72" y="600.072" type="line"/>
      <point x="86.72" y="0" type="line"/>
      <point x="282.767" y="0" type="line"/>
    </contour>
    <contour>
      <point x="89.926" y="62.369" type="line"/>
      <point x="86.72" y="62.369" type="line"/>
      <point x="86.704" y="32.098"/>
      <point x="60.981" y="10"/>
      <point x="30.861" y="10" type="curve" smooth="yes"/>
      <point x="29.813" y="10"/>
      <point x="19.009" y="10"/>
      <point x="19.005" y="10" type="curve"/>
      <point x="19" y="0" type="line"/>
      <point x="89.926" y="0" type="line"/>
    </contour>
    <contour>
      <point x="88.893" y="537.697" type="line"/>
      <point x="88.893" y="600.066" type="line"/>
      <point x="17.966" y="600.066" type="line"/>
      <point x="17.972" y="590.066" type="line"/>
      <point x="19.02" y="590.066"/>
      <point x="29.794" y="590.066"/>
      <point x="29.798" y="590.066" type="curve" smooth="yes"/>
      <point x="60.962" y="590.066"/>
      <point x="86.731" y="567.88"/>
      <point x="86.731" y="537.697" type="curve"/>
    </contour>
    <contour>
      <point x="20" y="323.036" type="line"/>
      <point x="20" y="278.036" type="line"/>
      <point x="388" y="278.036" type="line"/>
      <point x="388" y="323.036" type="line"/>
    </contour>
  </outline>
</glyph>
<glyph name="oslash" format="2">
  <advance width="779"/>
  <unicode hex="00F8"/>
  <anchor x="330" y="500" name="top"/>
  <outline>
    <contour>
      <point x="640.524" y="642.542" type="line"/>
      <point x="98.844" y="3" type="line"/>
      <point x="142.854" y="-33" type="line"/>
      <point x="683.836" y="607.783" type="line"/>
    </contour>
    <contour>
      <point x="388.97" y="611.93" type="curve" smooth="yes"/>
      <point x="161.18" y="611.93"/>
      <point x="25" y="497.898"/>
      <point x="25" y="299.442" type="curve" smooth="yes"/>
      <point x="25" y="102.065"/>
      <point x="161.18" y="-12"/>
      <point x="388.97" y="-12" type="curve" smooth="yes"/>
      <point x="617.82" y="-12"/>
      <point x="754" y="102.065"/>
      <point x="754" y="299.442" type="curve" smooth="yes"/>
      <point x="754" y="497.898"/>
      <point x="607.82" y="611.93"/>
    </contour>
    <contour>
      <point x="388.97" y="33.404" type="curve" smooth="yes"/>
      <point x="284.534" y="33.404"/>
      <point x="229.379" y="131.096"/>
      <point x="229.379" y="299.442" type="curve" smooth="yes"/>
      <point x="229.379" y="468.866"/>
      <point x="284.534" y="566.558"/>
      <point x="388.97" y="566.558" type="curve" smooth="yes"/>
      <point x="494.466" y="566.558"/>
      <point x="548.56" y="468.866"/>
      <point x="548.56" y="299.442" type="curve" smooth="yes"/>
      <point x="548.56" y="131.096"/>
      <point x="494.466" y="33.404"/>
    </contour>
  </outline>
</glyph>
<glyph name="thorn" format="2">
  <advance width="600"/>
  <unicode hex="00FE"/>
  <outline>
    <contour>
      <point x="276.293" y="480.999" type="line" smooth="yes"/>
      <point x="276.293" y="480.999"/>
      <point x="284.939" y="435.849"/>
      <point x="284.939" y="435.849" type="curve"/>
      <point x="308.887" y="435.849" type="line"/>
      <point x="374.008" y="435.849"/>
      <point x="412.067" y="392.481"/>
      <point x="415" y="324" type="curve" smooth="yes"/>
      <point x="415.603" y="309.917"/>
      <point x="414.182" y="289.878"/>
      <point x="410" y="272" type="curve" smooth="yes"/>
      <point x="387.583" y="176.176"/>
      <point x="315.449" y="170.446"/>
      <point x="316.449" y="169.348" type="curve"/>
      <point x="316.552" y="161.221" type="line"/>
      <point x="451.845" y="60.536"/>
      <point x="626.051" y="154.014"/>
      <point x="616" y="317" type="curve" smooth="yes"/>
      <point x="610.672" y="403.403"/>
      <point x="548.47" y="480.999"/>
      <point x="370.052" y="480.999" type="curve" smooth="yes"/>
    </contour>
    <contour>
      <point x="294.501" y="599.992" type="line"/>
      <point x="103.111" y="599.992" type="line"/>
      <point x="103.111" y="0" type="line"/>
      <point x="294.501" y="0" type="line"/>
    </contour>
    <contour>
      <point x="105.607" y="62.663" type="line"/>
      <point x="103.104" y="62.663" type="line"/>
      <point x="102.541" y="32.705"/>
      <point x="78.119" y="9.979"/>
      <point x="48.017" y="9.979" type="curve" smooth="yes"/>
      <point x="47.887" y="9.979"/>
      <point x="37.273" y="10"/>
      <point x="37.138" y="10" type="curve"/>
      <point x="37" y="0" type="line"/>
      <point x="105.607" y="0" type="line"/>
    </contour>
    <contour>
      <point x="105.62" y="537.389" type="line"/>
      <point x="105.62" y="600.052" type="line"/>
      <point x="37.014" y="600.052" type="line"/>
      <point x="37.153" y="590.052" type="line"/>
      <point x="37.288" y="590.052"/>
      <point x="47.901" y="590.072"/>
      <point x="48.032" y="590.072" type="curve" smooth="yes"/>
      <point x="78.133" y="590.072"/>
      <point x="102.554" y="567.346"/>
      <point x="103.119" y="537.389" type="curve"/>
    </contour>
    <contour>
      <point x="292" y="62.663" type="line"/>
      <point x="292" y="0" type="line"/>
      <point x="360.607" y="0" type="line"/>
      <point x="360.468" y="10" type="line"/>
      <point x="360.333" y="10"/>
      <point x="349.72" y="9.979"/>
      <point x="349.589" y="9.979" type="curve" smooth="yes"/>
      <point x="319.488" y="9.979"/>
      <point x="295.066" y="32.705"/>
      <point x="294.503" y="62.663" type="curve"/>
    </contour>
    <contour>
      <point x="291.987" y="537.389" type="line"/>
      <point x="294.488" y="537.389" type="line"/>
      <point x="295.052" y="567.346"/>
      <point x="319.474" y="590.072"/>
      <point x="349.575" y="590.072" type="curve" smooth="yes"/>
      <point x="349.705" y="590.072"/>
      <point x="360.319" y="590.052"/>
      <point x="360.454" y="590.052" type="curve"/>
      <point x="360.593" y="600.052" type="line"/>
      <point x="291.987" y="600.052" type="line"/>
    </contour>
  </outline>
</glyph>
<glyph name="Aogonek" format="2">
  <advance width="720"/>
  <unicode hex="0104"/>
  <outline>
    <contour>
      <point x="351" y="714" type="line" smooth="yes"/>
      <point x="264" y="458" type="line"/>
      <point x="449" y="24" type="line"/>
      <point x="682" y="37" type="line"/>
    </contour>
    <contour>
      <point x="351" y="714" type="line"/>
      <point x="342" y="714" type="line"/>
      <point x="338" y="680"/>
      <point x="297" y="590"/>
      <point x="285" y="565" type="curve"/>
      <point x="24" y="3" type="line"/>
      <point x="105" y="3" type="line"/>
      <point x="351" y="558" type="line"/>
    </contour>
    <contour>
      <point x="433" y="216" type="line"/>
      <point x="150" y="216" type="line"/>
      <point x="150" y="166" type="line"/>
      <point x="433" y="166" type="line"/>
    </contour>
    <contour>
      <point x="136" y="73" type="curve"/>
      <point x="57" y="73" type="line"/>
      <point x="35" y="28"/>
      <point x="-1" y="10"/>
      <point x="-31" y="10" type="curve" smooth="yes"/>
      <point x="-31" y="10"/>
      <point x="-40" y="10"/>
      <point x="-40" y="10" type="curve"/>
      <point x="-40" y="0" type="line"/>
      <point x="183" y="0" type="line"/>
      <point x="183" y="10" type="line"/>
      <point x="174" y="10" type="line" smooth="yes"/>
      <point x="149" y="10"/>
      <point x="118" y="33"/>
    </contour>
    <contour>
      <point x="501" y="0" type="curve" smooth="yes"/>
      <point x="574" y="17"/>
      <point x="734" y="1"/>
      <point x="760" y="0" type="curve"/>
      <point x="760" y="10" type="line"/>
      <point x="760" y="10"/>
      <point x="752" y="12"/>
      <point x="752" y="12" type="curve" smooth="yes"/>
      <point x="721" y="18"/>
      <point x="686" y="28"/>
      <point x="664" y="73" type="curve"/>
      <point x="428" y="73" type="line"/>
      <point x="444" y="33"/>
      <point x="442" y="14"/>
      <point x="421" y="0" type="curve" smooth="yes"/>
      <point x="388" y="-22"/>
      <point x="359" y="-37"/>
      <point x="351" y="-84" type="curve" smooth="yes"/>
      <point x="328" y="-220"/>
      <point x="548" y="-257"/>
      <point x="555" y="-121" type="curve"/>
      <point x="549" y="-115" type="line"/>
      <point x="501" y="-155"/>
      <point x="442" y="-133"/>
      <point x="437" y="-73" type="curve" smooth="yes"/>
      <point x="434" y="-42"/>
      <point x="448" y="-12"/>
    </contour>
  </outline>
</glyph>
<glyph name="aogonek" format="2">
  <advance width="632"/>
  <unicode hex="0105"/>
  <outline>
    <contour>
      <point x="118.913" y="61.779" type="curve"/>
      <point x="48.931" y="62.061" type="line"/>
      <point x="30.422" y="24.194"/>
      <point x="-2" y="10"/>
      <point x="-28" y="10" type="curve" smooth="yes"/>
      <point x="-28" y="10"/>
      <point x="-36" y="10"/>
      <point x="-36" y="10" type="curve"/>
      <point x="-36" y="0" type="line"/>
      <point x="160.218" y="0" type="line"/>
      <point x="160.218" y="9.908" type="line"/>
      <point x="152.524" y="9.908" type="line" smooth="yes"/>
      <point x="129.935" y="9.908"/>
      <point x="103.486" y="27.764"/>
    </contour>
    <contour>
      <point x="308.006" y="625.453" type="line"/>
      <point x="300.182" y="625.453" type="line"/>
      <point x="296.616" y="596.147"/>
      <point x="260.457" y="518.184"/>
      <point x="249.722" y="494.744" type="curve"/>
      <point x="21.245" y="2.631" type="line"/>
      <point x="92.597" y="2.631" type="line"/>
      <point x="307.634" y="484.984" type="line"/>
    </contour>
    <contour>
      <point x="308.006" y="625.453" type="line" smooth="yes"/>
      <point x="228.508" y="393.57" type="line"/>
      <point x="395.84" y="5.181" type="line"/>
      <point x="611.609" y="5.181" type="line"/>
    </contour>
    <contour>
      <point x="377.126" y="177.146" type="line"/>
      <point x="130.584" y="177.146" type="line"/>
      <point x="130.584" y="132.936" type="line"/>
      <point x="377.126" y="132.936" type="line"/>
    </contour>
    <contour>
      <point x="442.566" y="-7" type="curve" smooth="yes"/>
      <point x="515.567" y="9.834"/>
      <point x="639.996" y="-2"/>
      <point x="666.26" y="-3" type="curve"/>
      <point x="666.26" y="7" type="line"/>
      <point x="666.26" y="7"/>
      <point x="608.594" y="14.231"/>
      <point x="585.382" y="58.78" type="curve"/>
      <point x="369.709" y="65.847" type="line"/>
      <point x="385.566" y="25.834"/>
      <point x="383.566" y="6.834"/>
      <point x="362.566" y="-7" type="curve" smooth="yes"/>
      <point x="329.566" y="-29"/>
      <point x="300.566" y="-44"/>
      <point x="292.566" y="-91" type="curve" smooth="yes"/>
      <point x="269.566" y="-227"/>
      <point x="489.566" y="-264"/>
      <point x="496.97" y="-128" type="curve"/>
      <point x="490.97" y="-122" type="line"/>
      <point x="442.566" y="-162"/>
      <point x="383.566" y="-140"/>
      <point x="378.566" y="-80" type="curve" smooth="yes"/>
      <point x="375.566" y="-49"/>
      <point x="389.566" y="-19"/>
    </contour>
  </outline>
</glyph>
